<svg width="95" height="96" viewBox="0 0 95 96" fill="none" xmlns="http://www.w3.org/2000/svg">
<path d="M79.595 87.3184C79.8053 88.9598 50.9976 103.962 25.8054 89.7382C11.8205 81.8419 -1.04393 65.0418 0.0670715 44.7769C1.21574 23.7463 16.7353 11.5158 19.2712 9.5825C40.4776 -6.56789 65.6227 2.41431 67.5905 3.15499C64.2418 2.95413 39.6584 1.86509 24.1169 20.316C21.647 23.2473 12.8593 33.6826 13.5404 48.5211C14.4631 68.6196 31.9944 80.0373 34.3733 81.5343C54.8704 94.4207 79.4005 85.8151 79.5919 87.3153L79.595 87.3184Z" fill="url(#paint0_linear_158_91)"/>
<path d="M93.2314 55.8178C89.073 72.6492 75.4491 80.1783 73.2333 81.3552C54.7071 91.1942 37.1413 80.1155 35.7729 79.2148C39.3602 79.8237 56.5274 82.325 70.2644 69.9627C73.1831 67.3327 80.2885 60.9397 81.9519 50.4447C84.3183 35.5058 73.7888 24.0474 71.3911 21.5994C58.2661 8.21081 39.7588 10.7906 39.8874 9.34692C40.0318 7.7118 64.0722 0.239177 80.8472 15.5579C90.1652 24.0662 97.2392 39.6046 93.2314 55.8178Z" fill="url(#paint1_linear_158_91)"/>
<path d="M63.256 46.0823C61.8186 43.7191 60.2525 42.379 59.0882 41.5944C56.5021 39.8494 55.5888 39.8714 54.3523 38.3492C52.5288 36.099 53.7057 34.354 52.5414 30.5502C51.0192 25.5821 47.4289 23.3883 47.8996 22.8642C48.3892 22.3181 52.5163 24.2012 55.5606 27.8135C58.3914 31.1716 58.2659 33.6227 60.0485 33.9052C60.9398 34.0464 61.8029 33.5694 67.0033 28.4475C70.2014 25.3027 71.0142 24.3612 71.3061 24.537C71.7047 24.7786 71.0707 27.1042 66.1214 36.802C65.1642 39.8933 64.2069 42.9878 63.2529 46.0792L63.256 46.0823Z" fill="url(#paint2_linear_158_91)"/>
<path d="M61.1128 27.1795C63.3019 27.1795 65.0766 25.7744 65.0766 24.0411C65.0766 22.3078 63.3019 20.9026 61.1128 20.9026C58.9236 20.9026 57.1489 22.3078 57.1489 24.0411C57.1489 25.7744 58.9236 27.1795 61.1128 27.1795Z" fill="url(#paint3_linear_158_91)"/>
<path d="M71.3061 67.3955C70.6909 67.7156 67.7439 58.9719 58.9752 51.9073C56.4801 49.8955 45.3951 40.7909 35.6064 44.5445C31.9595 45.9442 27.2267 49.6131 27.073 54.5561C26.9819 57.5031 28.5668 60.8047 31.2377 62.2673C37.502 65.6944 46.3618 57.0763 46.9424 56.4988C49.2994 54.1544 50.6646 51.719 51.4304 50.087C52.2809 50.3569 53.4358 50.8308 54.6347 51.6907C56.4111 52.9649 57.4216 54.4714 57.9426 55.3909C56.9414 57.183 55.209 59.8099 52.3907 62.2673C50.8654 63.5979 39.9594 72.8658 29.954 68.0357C25.2024 65.7415 21.2229 60.5411 20.9812 54.5561C20.6737 46.914 26.5834 40.9698 31.7618 38.6348C42.9315 33.5945 56.1694 42.8749 62.327 49.4467C69.74 57.3619 71.9338 67.0659 71.3029 67.3955H71.3061Z" fill="url(#paint4_linear_158_91)"/>
<defs>
<linearGradient id="paint0_linear_158_91" x1="0" y1="47.9054" x2="79.5962" y2="47.9054" gradientUnits="userSpaceOnUse">
<stop stop-color="#02767F"/>
<stop offset="1" stop-color="#04D5E5"/>
</linearGradient>
<linearGradient id="paint1_linear_158_91" x1="35.7729" y1="45.7444" x2="94.3774" y2="45.7444" gradientUnits="userSpaceOnUse">
<stop stop-color="#02767F"/>
<stop offset="1" stop-color="#04D5E5"/>
</linearGradient>
<linearGradient id="paint2_linear_158_91" x1="47.8574" y1="34.4267" x2="71.4048" y2="34.4267" gradientUnits="userSpaceOnUse">
<stop stop-color="#02767F"/>
<stop offset="1" stop-color="#04D5E5"/>
</linearGradient>
<linearGradient id="paint3_linear_158_91" x1="57.1489" y1="24.0411" x2="65.0766" y2="24.0411" gradientUnits="userSpaceOnUse">
<stop stop-color="#02767F"/>
<stop offset="1" stop-color="#04D5E5"/>
</linearGradient>
<linearGradient id="paint4_linear_158_91" x1="20.9697" y1="53.3058" x2="71.4055" y2="53.3058" gradientUnits="userSpaceOnUse">
<stop stop-color="#02767F"/>
<stop offset="1" stop-color="#04D5E5"/>
</linearGradient>
</defs>
</svg>
