<svg width="162" height="65" viewBox="0 0 162 65" fill="none" xmlns="http://www.w3.org/2000/svg">
<g clip-path="url(#clip0_742_131)">
<path d="M80.6267 10.9613C79.2105 9.38021 77.3222 8.58878 74.9618 8.58878C74.1112 8.58878 73.1671 8.89036 72.1293 9.49353C71.1506 10.0583 70.6805 10.3599 70.7212 10.3928C70.6398 10.369 70.5707 10.0839 70.5116 9.54288C70.4526 8.97261 70.2105 8.68748 69.7852 8.68748C69.2643 8.68748 68.4199 8.78252 67.2559 8.97078C66.0574 9.15905 65.2476 9.33452 64.8223 9.50084C64.6921 9.55568 64.627 9.66717 64.627 9.8335C64.627 9.91027 64.6371 10.0035 64.6595 10.115C65.04 11.8843 65.2313 14.0557 65.2313 16.6329L65.2048 26.6565L65.1987 29.4019C65.1987 29.7345 65.3615 29.9392 65.6871 30.016C65.9048 30.0708 66.3891 30.0983 67.142 30.0983L70.471 30.0818C70.8311 30.0818 71.0102 29.9045 71.0102 29.5517C71.0102 28.9888 70.9837 28.1389 70.9288 27.0056C70.9227 26.8868 70.9186 26.7698 70.9125 26.6565C70.8677 25.6969 70.8474 24.964 70.8474 24.4595C70.8474 24.1287 70.9186 23.9623 71.059 23.9623C70.9715 23.9623 71.407 24.1725 72.3654 24.5929C73.3238 25.0133 74.2211 25.2235 75.0595 25.2235C77.3547 25.2235 79.2105 24.4156 80.6267 22.8017C81.9982 21.2426 82.6839 19.2814 82.6839 16.9144C82.6839 14.5474 81.9982 12.4856 80.6267 10.9613ZM73.7531 20.2318C72.8497 20.2318 72.1415 19.8937 71.6308 19.2192C71.1526 18.5996 70.9125 17.821 70.9125 16.8815C70.9125 15.942 71.1404 15.1889 71.5982 14.5584C72.1212 13.862 72.8171 13.5147 73.688 13.5147C74.5589 13.5147 75.2487 13.862 75.8266 14.5584C76.3597 15.2218 76.6263 15.9968 76.6263 16.8815C76.6263 19.115 75.6679 20.2318 73.7531 20.2318Z" fill="#02767F"/>
<path d="M101.098 12.8677L101.066 24.3115C101.066 24.699 100.913 24.9128 100.608 24.9585C100.26 25.0024 99.4663 25.0243 98.2251 25.0243C96.9839 25.0243 96.1943 24.9804 95.7263 24.8909C95.3682 24.8251 95.1871 24.5875 95.1871 24.178C95.1871 23.2276 95.2034 21.7964 95.2359 19.8827C95.2705 17.9709 95.2868 16.5379 95.2868 15.5874C95.2868 14.2933 94.6377 13.6463 93.3436 13.6463C92.9081 13.6463 92.3953 13.8236 91.8093 14.1782C91.1663 14.5657 90.8448 14.9678 90.8448 15.3882V19.4843C90.8448 20.0162 90.857 20.8149 90.8774 21.8805C90.8997 22.9479 90.9099 23.7467 90.9099 24.2786C90.9099 24.688 90.741 24.9128 90.4053 24.9585C90.0675 25.0024 89.1193 25.0243 87.5647 25.0243C86.6714 25.0243 86.0284 24.9804 85.6377 24.8909C85.245 24.8031 85.0496 24.6094 85.0496 24.3115C85.0496 23.4378 85.0557 22.1254 85.0659 20.3726C85.0761 18.6197 85.0822 17.3074 85.0822 16.4337C85.0822 12.8183 85.0435 9.82803 84.9682 7.46104C84.9357 6.63122 84.9072 5.80323 84.8869 4.97341C84.8319 4.01199 84.7342 3.18766 84.5918 2.50224C84.5593 2.35784 84.543 2.25366 84.543 2.18786C84.543 2.02153 84.6244 1.91003 84.7892 1.8552C85.1249 1.7565 85.6214 1.69618 86.2746 1.67242C87.1455 1.63952 87.6501 1.6121 87.7926 1.59017L90.7471 1.24106C90.9221 1.24106 91.0096 1.35804 91.0096 1.59017C91.0096 1.94476 90.9872 2.42547 90.9425 3.0323C90.8997 3.74148 90.8774 4.22219 90.8774 4.47625C90.8122 6.97485 90.7797 8.94886 90.7797 10.3965C90.7797 10.6176 90.8346 10.7291 90.9425 10.7291C90.9649 10.7291 91.2416 10.5354 91.7768 10.1479C92.4075 9.6946 93.0119 9.33453 93.5877 9.0695C94.4485 8.68201 95.2807 8.49009 96.0865 8.49009C97.4783 8.49009 98.6443 8.8593 99.5803 9.60139C100.592 10.3965 101.098 11.4858 101.098 12.8677Z" fill="#02767F"/>
<path d="M99.5803 9.60139C98.6443 8.8593 97.4783 8.49009 96.0865 8.49009C95.2807 8.49009 94.4485 8.68201 93.5877 9.0695C93.0119 9.33453 92.4075 9.6946 91.7768 10.1479C91.2416 10.5354 90.9649 10.7291 90.9425 10.7291C90.8346 10.7291 90.7797 10.6176 90.7797 10.3965C90.7797 8.94886 90.8122 6.97485 90.8774 4.47625C90.8774 4.22219 90.8997 3.74148 90.9425 3.0323C90.9872 2.42547 91.0096 1.94476 91.0096 1.59017C91.0096 1.35804 90.9221 1.24106 90.7471 1.24106L87.7926 1.59017C87.6501 1.6121 87.1455 1.63952 86.2746 1.67242C85.6214 1.69618 85.1249 1.7565 84.7892 1.8552C84.6244 1.91003 84.543 2.02153 84.543 2.18786C84.543 2.25366 84.5593 2.35784 84.5918 2.50224C84.7342 3.18766 84.8319 4.01199 84.8869 4.97341C84.9072 5.80323 84.9357 6.63122 84.9682 7.46104C85.0435 9.82803 85.0822 12.8183 85.0822 16.4337C85.0822 17.3074 85.0761 18.6197 85.0659 20.3726C85.0557 22.1254 85.0496 23.4378 85.0496 24.3115C85.0496 24.6094 85.245 24.8031 85.6377 24.8909C86.0284 24.9804 86.6714 25.0243 87.5647 25.0243C89.1193 25.0243 90.0675 25.0024 90.4053 24.9585C90.741 24.9128 90.9099 24.688 90.9099 24.2786C90.9099 23.7467 90.8997 22.9479 90.8774 21.8805C90.857 20.8149 90.8448 20.0162 90.8448 19.4843V15.3882C90.8448 14.9678 91.1663 14.5657 91.8093 14.1782C92.3953 13.8236 92.9081 13.6463 93.3436 13.6463C94.6377 13.6463 95.2868 14.2933 95.2868 15.5874C95.2868 16.5379 95.2705 17.9709 95.2359 19.8827C95.2034 21.7964 95.1871 23.2276 95.1871 24.178C95.1871 24.5875 95.3682 24.8251 95.7263 24.8909C96.1943 24.9804 97.0266 25.0243 98.2251 25.0243C99.4236 25.0243 100.26 25.0024 100.608 24.9585C100.913 24.9128 101.066 24.699 101.066 24.3115L101.098 12.8677C101.098 11.4858 100.592 10.3965 99.5803 9.60139Z" fill="#02767F"/>
<path d="M119.564 9.53375C119.716 10.0437 119.792 11.2208 119.792 13.0669C119.792 15.2109 119.726 16.5159 119.596 16.9802C119.433 17.534 118.241 19.5354 116.021 22.9845C115.679 23.5164 114.804 24.741 113.396 26.6565C113.374 26.6876 113.349 26.7187 113.327 26.7497C111.728 28.9157 110.818 30.0599 110.6 30.1823C110.34 30.3487 108.669 30.4309 105.589 30.4309C105.12 30.4309 104.805 30.3761 104.642 30.2646C104.5 29.8113 104.321 29.2757 104.103 28.6561C103.928 28.2686 103.755 27.8775 103.58 27.479C103.432 27.1354 103.326 26.8612 103.267 26.6565C103.226 26.5176 103.206 26.4098 103.206 26.3348C103.206 26.1246 103.297 26.0186 103.482 26.0186C106.508 26.0186 108.022 25.3167 108.022 23.913C108.022 23.7905 107.281 22.692 105.802 20.612C104.266 18.479 103.423 17.1301 103.271 16.5653C103.183 16.2454 103.141 15.1012 103.141 13.1327C103.141 12.7342 103.151 12.1347 103.173 11.3341C103.194 10.5317 103.206 9.9322 103.206 9.53375C103.206 9.24678 103.385 9.10239 103.745 9.10239C104.298 9.10239 105.141 9.11884 106.266 9.15174C107.393 9.18647 108.234 9.20291 108.789 9.20291C109.017 9.20291 109.131 9.37473 109.131 9.71653C109.131 10.0254 109.115 10.4933 109.082 11.1184C109.05 11.7435 109.033 12.2096 109.033 12.5185C109.033 13.9131 109.056 14.8581 109.099 15.3553C109.131 15.7428 109.459 16.4611 110.079 17.5121C110.733 18.6051 111.205 19.1534 111.5 19.1534C111.75 19.1534 112.173 18.6124 112.771 17.5285C113.327 16.4995 113.626 15.8086 113.671 15.454C113.779 14.4816 113.834 13.4269 113.834 12.2864C113.834 11.9885 113.805 11.5352 113.752 10.9265C113.697 10.3197 113.671 9.86092 113.671 9.5502C113.671 9.34 113.785 9.23582 114.013 9.23582C114.568 9.23582 115.398 9.21388 116.503 9.17001C117.608 9.12615 118.436 9.10239 118.992 9.10239C119.275 9.10239 119.466 9.24678 119.564 9.53375Z" fill="#02767F"/>
<path d="M119.564 9.53375C119.466 9.24678 119.275 9.10239 118.992 9.10239C118.436 9.10239 117.608 9.12615 116.503 9.17001C115.398 9.21388 114.568 9.23582 114.013 9.23582C113.785 9.23582 113.671 9.34 113.671 9.5502C113.671 9.86092 113.697 10.3197 113.752 10.9265C113.805 11.5352 113.834 11.9885 113.834 12.2864C113.834 13.4269 113.779 14.4816 113.671 15.454C113.626 15.8086 113.327 16.4995 112.771 17.5285C112.173 18.6124 111.75 19.1534 111.5 19.1534C111.205 19.1534 110.733 18.6051 110.079 17.5121C109.459 16.4611 109.131 15.7428 109.099 15.3553C109.056 14.8581 109.033 13.9131 109.033 12.5185C109.033 12.2096 109.05 11.7435 109.082 11.1184C109.115 10.4933 109.131 10.0254 109.131 9.71653C109.131 9.37473 109.017 9.20291 108.789 9.20291C108.234 9.20291 107.393 9.18647 106.266 9.15174C105.141 9.11884 104.298 9.10239 103.745 9.10239C103.385 9.10239 103.206 9.24678 103.206 9.53375C103.206 9.9322 103.194 10.5317 103.173 11.3341C103.151 12.1347 103.141 12.7342 103.141 13.1327C103.141 15.1012 103.183 16.2454 103.271 16.5653C103.423 17.1301 104.266 18.479 105.802 20.612C107.281 22.692 108.022 23.7905 108.022 23.913C108.022 25.3167 106.508 26.0186 103.482 26.0186C103.297 26.0186 103.206 26.1246 103.206 26.3348C103.206 26.4098 103.226 26.5176 103.267 26.6565C103.326 26.8612 103.432 27.1354 103.58 27.479C103.755 27.8775 103.928 28.2686 104.103 28.6561C104.321 29.2757 104.5 29.8113 104.642 30.2646C104.805 30.3761 105.12 30.4309 105.589 30.4309C108.669 30.4309 110.34 30.3487 110.6 30.1823C110.818 30.0599 111.728 28.9157 113.327 26.7497C113.349 26.7187 113.374 26.6876 113.396 26.6565C114.804 24.741 115.679 23.5164 116.021 22.9845C118.241 19.5354 119.433 17.534 119.596 16.9802C119.726 16.5159 119.792 15.2109 119.792 13.0669C119.792 11.2208 119.716 10.0437 119.564 9.53375Z" fill="#02767F"/>
<path d="M134.825 10.0236C134.833 10.0474 134.863 10.1296 134.845 10.2338C134.845 10.2411 134.843 10.2466 134.841 10.2503C134.804 10.4276 134.831 11.0728 135.026 12.7872C129.148 19.466 126.689 22.1803 126.474 22.3064C126.455 22.3173 126.295 22.4033 126.24 22.5623C126.238 22.5714 126.181 22.7432 126.272 22.8346C126.399 22.9607 126.732 22.8639 126.812 22.8419C128.02 22.5166 134.037 22.6591 134.326 22.6061C134.328 22.6061 134.342 22.6025 134.361 22.6007C134.41 22.5933 134.501 22.5879 134.603 22.608C134.8 22.65 134.967 22.7834 135.026 22.9351C135.073 23.0576 135.036 23.1673 135.026 23.2038C134.878 23.6699 134.841 24.741 135.016 25.2418C135.026 25.2711 135.032 25.399 135.016 25.5635C135 25.7207 134.975 25.9419 134.841 26.0826C134.672 26.2617 134.375 26.2654 134.269 26.269C130.21 26.3897 126.14 26.1978 122.087 26.4098C121.902 26.4189 121.389 26.4555 121.1 26.1758C120.825 25.9108 120.786 25.3917 120.778 25.282C120.77 25.1724 120.774 25.1011 120.778 25.0152C120.795 24.5016 120.75 24.0245 120.66 23.0741C120.65 22.9571 120.632 22.7798 120.607 22.5604C120.65 22.4124 120.695 22.2643 120.738 22.1163C125.605 17.0149 128.871 13.6335 129.231 13.3666C129.274 13.3356 129.53 13.1583 129.491 12.9938C129.471 12.9079 129.373 12.8512 129.284 12.8146C128.995 12.8055 128.769 12.8 128.663 12.7982C127.381 12.769 122.498 12.6556 121.812 12.8238C121.782 12.8311 121.647 12.8658 121.501 12.8238C121.352 12.7817 121.24 12.6757 121.195 12.5679C121.151 12.4619 121.177 12.3668 121.185 12.3412C121.287 11.9556 121.218 10.7218 120.933 10.179C120.882 10.0839 120.907 10.009 120.905 9.91028C120.905 9.78965 120.905 9.22486 121.283 8.98177C121.456 8.87027 121.678 8.87575 122.115 8.88855C122.463 8.89951 122.636 8.905 122.998 8.98177C124.628 9.32905 133.284 9.40033 133.986 9.30894C134.007 9.30711 134.123 9.29066 134.271 9.30894C134.395 9.32539 134.621 9.35281 134.739 9.49538C134.869 9.65257 134.768 9.82803 134.831 10.0218L134.825 10.0236Z" fill="#02767F"/>
<path d="M141.915 2.83488C141.294 2.31396 140.56 2.05441 139.711 2.05441C138.863 2.05441 138.094 2.30848 137.475 2.8166C136.799 3.37042 136.462 4.07778 136.462 4.9405C136.462 5.84708 136.789 6.56541 137.442 7.09547C138.041 7.58349 138.796 7.82658 139.711 7.82658C141.844 7.82658 142.91 6.86334 142.91 4.9405C142.91 4.08875 142.578 3.38687 141.915 2.83488ZM142.877 9.45149C142.877 9.23033 142.747 9.11884 142.487 9.11884C142.171 9.11884 141.697 9.14808 141.066 9.20291C140.434 9.25775 139.961 9.28516 139.646 9.28516C139.331 9.28516 138.859 9.25226 138.234 9.18646C137.607 9.11883 137.141 9.08594 136.838 9.08594C136.535 9.08594 136.396 9.19743 136.396 9.41859C136.396 9.47343 136.407 9.59041 136.429 9.76587C136.669 11.6247 136.789 14.1233 136.789 17.2635C136.789 18.0366 136.773 19.19 136.738 20.7198C136.706 22.2515 136.689 23.3994 136.689 24.1616C136.689 24.4504 136.702 24.6149 136.722 24.6587C136.777 24.7593 136.924 24.8305 137.164 24.8744C137.534 24.942 138.372 24.9749 139.679 24.9749C140.985 24.9749 141.805 24.942 142.175 24.8744C142.448 24.8305 142.584 24.6935 142.584 24.4595C142.584 23.6644 142.568 22.4672 142.536 20.8697C142.503 19.2722 142.487 18.0695 142.487 17.2635C142.487 14.4213 142.605 11.9227 142.845 9.76587C142.867 9.60137 142.877 9.49536 142.877 9.45149Z" fill="#02767F"/>
<path d="M160.732 16.7316C160.732 19.2521 159.973 21.2974 158.455 22.8675C156.937 24.4376 154.943 25.2217 152.471 25.2217C149.999 25.2217 148.106 24.4486 146.562 22.9004C145.015 21.3523 144.244 19.3618 144.244 16.9308C144.244 14.3664 144.985 12.2846 146.464 10.6871C147.943 9.08961 149.948 8.29086 152.473 8.29086C154.998 8.29086 156.925 9.07316 158.449 10.6378C159.973 12.2023 160.734 14.2348 160.734 16.7334L160.732 16.7316ZM155.377 16.7316C155.377 15.8579 155.11 15.0866 154.577 14.4176C154.044 13.7487 153.352 13.4142 152.503 13.4142C151.655 13.4142 150.937 13.7578 150.381 14.4432C149.858 15.0848 149.598 15.847 149.598 16.7316C149.598 17.6163 149.858 18.3949 150.381 19.0365C150.937 19.7219 151.643 20.0655 152.503 20.0655C153.364 20.0655 154.054 19.7237 154.61 19.0365C155.12 18.3949 155.377 17.6272 155.377 16.7316Z" fill="#02767F"/>
<path d="M51.6058 50.8529C51.7421 51.8088 33.0645 60.5457 16.731 52.2621C7.66388 47.6634 -0.676839 37.8792 0.0434861 26.0771C0.788229 13.8291 10.8504 6.70619 12.4945 5.58027C26.2438 -3.82556 42.5468 1.40558 43.8226 1.83694C41.6514 1.71996 25.7127 1.08572 15.6363 11.8313C14.0349 13.5385 8.3374 19.6159 8.77896 28.2577C9.3772 39.9629 20.7437 46.6124 22.2861 47.4843C35.5755 54.9892 51.4796 49.9774 51.6037 50.8511L51.6058 50.8529Z" fill="#02767F"/>
<path d="M60.4468 32.5073C57.7507 42.3098 48.9175 46.6946 47.4809 47.3801C35.4694 53.1102 24.0805 46.6581 23.1934 46.1335C25.5192 46.4881 36.6496 47.9449 45.556 40.7452C47.4484 39.2135 52.0552 35.4903 53.1337 29.3781C54.6679 20.6778 47.8411 14.0046 46.2865 12.5789C37.7769 4.78151 25.7776 6.28396 25.861 5.44317C25.9546 4.49089 41.5413 0.138915 52.4174 9.06038C58.4588 14.0155 63.0453 23.0649 60.4468 32.5073Z" fill="#02767F"/>
<path d="M41.0111 26.8375C40.0791 25.4612 39.0638 24.6807 38.3088 24.2238C36.6321 23.2075 36.04 23.2203 35.2383 22.3338C34.0561 21.0233 34.8191 20.007 34.0642 17.7917C33.0773 14.8983 30.7495 13.6207 31.0547 13.3155C31.3721 12.9974 34.0479 14.0941 36.0217 16.1979C37.8571 18.1536 37.7757 19.5812 38.9315 19.7457C39.5094 19.8279 40.069 19.5501 43.4406 16.5671C45.5141 14.7357 46.0411 14.1873 46.2304 14.2897C46.4888 14.4304 46.0778 15.7848 42.8689 21.4327C42.2482 23.2331 41.6276 25.0353 41.009 26.8357L41.0111 26.8375Z" fill="#02767F"/>
<path d="M39.6227 15.8287C41.0421 15.8287 42.1927 15.0104 42.1927 14.0009C42.1927 12.9914 41.0421 12.1731 39.6227 12.1731C38.2034 12.1731 37.0527 12.9914 37.0527 14.0009C37.0527 15.0104 38.2034 15.8287 39.6227 15.8287Z" fill="#02767F"/>
<path d="M46.2315 39.25C45.8327 39.4365 43.922 34.3443 38.2367 30.2299C36.619 29.0583 29.432 23.7558 23.0854 25.9419C20.721 26.7571 17.6525 28.8938 17.5528 31.7725C17.4937 33.4888 18.5213 35.4117 20.253 36.2634C24.3145 38.2594 30.0587 33.2403 30.4352 32.9039C31.9633 31.5386 32.8485 30.1202 33.345 29.1698C33.8964 29.327 34.6452 29.603 35.4225 30.1038C36.5742 30.8459 37.2294 31.7232 37.5672 32.2587C36.9181 33.3024 35.7949 34.8323 33.9676 36.2634C32.9787 37.0384 25.9077 42.4359 19.4207 39.6229C16.34 38.2868 13.7599 35.2581 13.6032 31.7725C13.4038 27.3219 17.2353 23.86 20.5928 22.5001C27.8347 19.5647 36.4175 24.9695 40.4099 28.7969C45.2161 33.4066 46.6384 39.0581 46.2294 39.25H46.2315Z" fill="#02767F"/>
<path d="M90.3427 49.3212C90.3203 47.7072 90.3101 45.3914 90.3101 42.3719C90.3101 40.2169 90.359 37.8719 90.4567 35.3367H84.5516C84.5577 35.5615 84.5597 35.79 84.5638 36.0203C84.5516 35.6127 84.5475 37.7293 84.5475 42.3719C84.5475 43.3461 84.5353 44.8138 84.515 46.7769C84.4926 48.7381 84.4824 50.2113 84.4824 51.1965V51.9093C84.515 52.1524 84.6513 52.3023 84.8894 52.3571C85.2495 52.4449 86.0818 52.4887 87.3881 52.4887C88.6945 52.4887 89.543 52.4449 90.0334 52.3571C90.304 52.3133 90.4404 52.1744 90.4404 51.9422C90.4404 51.6333 90.4241 51.1965 90.3915 50.6317C90.359 50.0121 90.3427 49.5752 90.3427 49.3212Z" fill="#02767F"/>
<path d="M99.7289 36.9324C99.7289 36.7112 99.5987 36.6016 99.3383 36.6016C99.0229 36.6016 98.5487 36.629 97.918 36.6838C97.2872 36.7405 96.813 36.7679 96.4977 36.7679C96.1823 36.7679 95.7102 36.7332 95.0855 36.6674C94.4588 36.6016 93.9948 36.5687 93.6896 36.5687C93.3844 36.5687 93.248 36.6783 93.248 36.8995C93.248 36.9543 93.2603 37.0713 93.2806 37.2486C93.5207 39.1056 93.6408 41.6042 93.6408 44.7444C93.6408 45.5175 93.6245 46.6709 93.5919 48.2026C93.5594 49.7343 93.5431 50.8803 93.5431 51.6443C93.5431 51.9313 93.5533 52.0976 93.5756 52.1415C93.6286 52.2402 93.7771 52.3133 94.0152 52.3571C94.3855 52.4229 95.2239 52.4558 96.5302 52.4558C97.8366 52.4558 98.6586 52.4229 99.0269 52.3571C99.2996 52.3133 99.4359 52.1744 99.4359 51.9422C99.4359 51.1453 99.4196 49.9499 99.3871 48.3506C99.3545 46.7531 99.3383 45.5523 99.3383 44.7444C99.3383 41.9022 99.4583 39.4036 99.6964 37.2486C99.7188 37.0823 99.7289 36.9781 99.7289 36.9324Z" fill="#02767F"/>
<path d="M118.699 48.6504C118.689 47.2192 118.683 46.1427 118.683 45.4243V40.1347C118.683 38.7748 118.166 37.7129 117.132 36.9488C116.208 36.2854 115.055 35.9545 113.671 35.9545C112.702 35.9545 111.573 36.3384 110.283 37.1079C109.05 37.8426 108.46 38.2265 108.517 38.2575C108.403 38.2338 108.315 37.8609 108.252 37.1408C108.187 36.3932 108.094 36.0203 107.974 36.0203C107.756 36.0203 106.781 36.1921 105.052 36.5339C103.908 36.7003 102.994 36.8227 102.309 36.8995C102.146 36.9653 102.064 37.0878 102.064 37.2651C102.064 37.3309 102.075 37.4131 102.097 37.5136C102.52 39.0837 102.734 41.2442 102.734 43.9986C102.734 44.8723 102.728 46.1756 102.718 47.912C102.705 49.6484 102.701 50.9461 102.701 51.8088C102.701 52.1195 102.87 52.3023 103.206 52.3572C103.589 52.423 104.415 52.4558 105.688 52.4558C106.865 52.4558 107.642 52.4339 108.022 52.3901C108.36 52.3462 108.529 52.1415 108.529 51.7759V42.8197C108.529 42.4121 108.834 41.9972 109.443 41.5768C110.008 41.2003 110.505 41.012 110.928 41.012C112.224 41.012 112.871 41.7706 112.871 43.284C112.871 43.6934 112.882 44.3057 112.904 45.1173C112.926 45.9306 112.936 46.5411 112.936 46.9505C112.936 47.4806 112.92 48.272 112.888 49.3212C112.855 50.3722 112.839 51.1563 112.839 51.6772C112.839 52.0629 113.002 52.2895 113.329 52.3572C113.655 52.423 114.505 52.4558 115.875 52.4558C117.159 52.4558 117.954 52.4339 118.26 52.3901C118.565 52.3462 118.715 52.1744 118.715 51.8764C118.715 51.1563 118.711 50.0815 118.699 48.6504Z" fill="#02767F"/>
<path d="M135.337 45.258C136.045 45.1045 136.399 44.4684 136.399 43.3516C136.399 41.2167 135.668 39.3762 134.209 37.828C132.752 36.2799 130.978 35.5067 128.888 35.5067C126.406 35.5067 124.416 36.3475 122.912 38.0272C121.455 39.6522 120.725 41.7377 120.725 44.2801C120.725 46.8226 121.541 48.9739 123.175 50.533C124.764 52.0702 126.853 52.8379 129.444 52.8379C132.24 52.8379 134.303 52.114 135.63 50.6646C135.794 50.4891 135.876 50.3612 135.876 50.2844C135.876 50.0066 135.605 49.3614 135.068 48.3433C134.529 47.3271 134.144 46.7623 133.916 46.6508C133.503 46.9176 133.09 47.1827 132.675 47.4477C131.696 47.9778 130.722 48.2428 129.753 48.2428C128.947 48.2428 128.229 48.0892 127.598 47.7785C126.825 47.4038 126.363 46.8555 126.21 46.1372C128.758 45.9379 130.673 45.7679 131.957 45.6236C134.091 45.4024 135.217 45.2799 135.337 45.258ZM130.146 42.604C128.447 42.8599 127.195 42.986 126.39 42.986C126.086 42.986 125.934 42.838 125.934 42.5382C125.934 41.8089 126.139 41.1729 126.554 40.6318C127 40.0451 127.566 39.7527 128.251 39.7527C128.937 39.7527 129.487 40.0122 129.965 40.5313C130.445 41.0522 130.683 41.6536 130.683 42.339C130.683 42.4615 130.504 42.5492 130.146 42.604Z" fill="#02767F"/>
<path d="M90.7581 29.1039C90.6421 30.8513 90.5485 32.5164 90.4793 34.0975H160.727C160.978 34.0883 161.354 34.0372 161.625 33.7941C161.977 33.4797 161.946 33.0227 161.938 32.5402C161.924 31.7012 161.952 29.3891 161.995 28.5538C162.003 28.3783 162.028 27.9945 161.753 27.713C161.549 27.5046 161.267 27.4388 161.104 27.4132H114.858C114.698 27.6088 114.527 27.8154 114.348 28.031C111.886 30.9829 111.56 31.2041 111.275 31.3485C110.903 31.555 110.469 31.7305 105.58 31.7305C104.823 31.7305 104.288 31.6226 103.897 31.3887L103.567 31.1913L103.455 30.8733C103.323 30.4949 103.15 30.038 102.943 29.5152C102.774 29.1807 102.603 28.8407 102.434 28.4971C102.198 28.0201 102.064 27.6801 102.007 27.4132H72.0886C72.0927 27.501 72.0988 27.5905 72.1028 27.6801C72.1598 28.7091 72.1863 29.4604 72.1863 29.9776C72.1863 30.8257 71.4619 31.4198 70.4241 31.4198L67.0931 31.4344H67.0911C65.9638 31.4344 65.5568 31.3814 65.3127 31.3284C64.456 31.1438 63.9229 30.5771 63.9229 29.846L63.929 27.4132H63.3491C62.9421 29.1113 62.7895 31.131 63.3491 33.2823C63.404 33.4943 63.465 33.7027 63.5302 33.9037C63.7621 33.9695 64.0755 34.0445 64.454 34.0957C65.3818 34.2199 66.0981 34.1121 66.2304 34.0957C67.0524 33.9915 72.0133 33.9641 84.5702 34.0957C84.3382 30.5223 84.1998 29.2465 84.1734 29.1021C84.153 28.9961 84.1408 28.9102 84.1408 28.8535C84.1408 28.6379 84.2833 28.53 84.5661 28.53H90.3999C90.4284 28.5282 90.6014 28.5191 90.7235 28.6324C90.8476 28.7475 90.8679 28.9413 90.7601 29.1039H90.7581ZM94.3536 29.634C94.9742 29.1844 95.721 28.9577 96.5919 28.9577C97.4628 28.9577 98.177 29.1899 98.7976 29.6486C99.461 30.1385 99.7967 30.7618 99.7967 31.5148C99.7967 33.2201 98.7264 34.0719 96.5919 34.0719C95.6762 34.0719 94.9193 33.8562 94.321 33.4249C93.6679 32.9533 93.3382 32.3172 93.3382 31.513C93.3382 30.7088 93.676 30.122 94.3536 29.6322V29.634Z" fill="#02767F"/>
<path d="M114.777 56.0918V57.687H114.569L113.602 56.4345H113.584V57.687H113.369V56.0918H113.577L114.548 57.3474H114.566V56.0918H114.777Z" fill="#02767F"/>
<path d="M113.007 56.8894C113.007 57.0576 112.973 57.203 112.906 57.3256C112.838 57.4481 112.745 57.5426 112.627 57.6091C112.509 57.6756 112.375 57.7088 112.223 57.7088C112.072 57.7088 111.937 57.6756 111.819 57.6091C111.701 57.5426 111.609 57.4481 111.541 57.3256C111.473 57.203 111.439 57.0576 111.439 56.8894C111.439 56.7212 111.473 56.5758 111.541 56.4532C111.609 56.3307 111.701 56.2362 111.819 56.1697C111.937 56.1032 112.072 56.07 112.223 56.07C112.375 56.07 112.509 56.1032 112.627 56.1697C112.745 56.2362 112.838 56.3307 112.906 56.4532C112.973 56.5758 113.007 56.7212 113.007 56.8894ZM112.799 56.8894C112.799 56.7513 112.773 56.6347 112.722 56.5397C112.671 56.4447 112.602 56.3727 112.515 56.3239C112.428 56.2751 112.331 56.2507 112.223 56.2507C112.116 56.2507 112.018 56.2751 111.931 56.3239C111.844 56.3727 111.775 56.4447 111.724 56.5397C111.673 56.6347 111.648 56.7513 111.648 56.8894C111.648 57.0275 111.673 57.1441 111.724 57.2391C111.775 57.3341 111.844 57.4061 111.931 57.4549C112.018 57.5037 112.116 57.5281 112.223 57.5281C112.331 57.5281 112.428 57.5037 112.515 57.4549C112.602 57.4061 112.671 57.3341 112.722 57.2391C112.773 57.1441 112.799 57.0275 112.799 56.8894Z" fill="#02767F"/>
<path d="M111.078 56.0918V57.687H110.863V56.0918H111.078Z" fill="#02767F"/>
<path d="M109.199 56.2632V56.0918H110.531V56.2632H109.973V57.687H109.758V56.2632H109.199Z" fill="#02767F"/>
<path d="M108.652 56.0918H108.867V57.148C108.867 57.257 108.838 57.3544 108.781 57.4401C108.724 57.5252 108.644 57.5925 108.541 57.6418C108.437 57.6906 108.316 57.715 108.177 57.715C108.037 57.715 107.916 57.6906 107.812 57.6418C107.709 57.5925 107.629 57.5252 107.571 57.4401C107.515 57.3544 107.486 57.257 107.486 57.148V56.0918H107.701V57.1324C107.701 57.2103 107.72 57.2796 107.759 57.3404C107.797 57.4006 107.851 57.4481 107.922 57.4829C107.993 57.5172 108.078 57.5343 108.177 57.5343C108.275 57.5343 108.36 57.5172 108.431 57.4829C108.503 57.4481 108.557 57.4006 108.594 57.3404C108.633 57.2796 108.652 57.2103 108.652 57.1324V56.0918Z" fill="#02767F"/>
<path d="M106.113 57.687V56.0918H106.328V57.5156H107.154V57.687H106.113Z" fill="#02767F"/>
<path d="M105.751 56.8894C105.751 57.0576 105.718 57.203 105.65 57.3256C105.582 57.4481 105.489 57.5426 105.372 57.6091C105.254 57.6756 105.119 57.7088 104.967 57.7088C104.816 57.7088 104.681 57.6756 104.563 57.6091C104.445 57.5426 104.353 57.4481 104.285 57.3256C104.217 57.203 104.184 57.0576 104.184 56.8894C104.184 56.7212 104.217 56.5758 104.285 56.4532C104.353 56.3307 104.445 56.2362 104.563 56.1697C104.681 56.1032 104.816 56.07 104.967 56.07C105.119 56.07 105.254 56.1032 105.372 56.1697C105.489 56.2362 105.582 56.3307 105.65 56.4532C105.718 56.5758 105.751 56.7212 105.751 56.8894ZM105.543 56.8894C105.543 56.7513 105.517 56.6347 105.466 56.5397C105.415 56.4447 105.346 56.3727 105.259 56.3239C105.172 56.2751 105.075 56.2507 104.967 56.2507C104.86 56.2507 104.763 56.2751 104.675 56.3239C104.589 56.3727 104.519 56.4447 104.468 56.5397C104.417 56.6347 104.392 56.7513 104.392 56.8894C104.392 57.0275 104.417 57.1441 104.468 57.2391C104.519 57.3341 104.589 57.4061 104.675 57.4549C104.763 57.5037 104.86 57.5281 104.967 57.5281C105.075 57.5281 105.172 57.5037 105.259 57.4549C105.346 57.4061 105.415 57.3341 105.466 57.2391C105.517 57.1441 105.543 57.0275 105.543 56.8894Z" fill="#02767F"/>
<path d="M103.669 56.4906C103.658 56.4117 103.616 56.3504 103.542 56.3068C103.468 56.2632 103.377 56.2414 103.27 56.2414C103.191 56.2414 103.122 56.2528 103.063 56.2756C103.005 56.2985 102.959 56.3299 102.926 56.3699C102.894 56.4099 102.878 56.4553 102.878 56.5062C102.878 56.5488 102.889 56.5854 102.912 56.616C102.935 56.6461 102.964 56.6713 103 56.6916C103.036 56.7113 103.073 56.7276 103.113 56.7406C103.152 56.7531 103.188 56.7632 103.221 56.771L103.401 56.8146C103.448 56.8255 103.499 56.8406 103.556 56.8598C103.613 56.879 103.668 56.9052 103.72 56.9385C103.772 56.9712 103.816 57.0132 103.85 57.0646C103.884 57.1161 103.901 57.1791 103.901 57.2539C103.901 57.3401 103.876 57.418 103.826 57.4876C103.776 57.5572 103.703 57.6125 103.607 57.6535C103.512 57.6945 103.396 57.715 103.259 57.715C103.132 57.715 103.022 57.6966 102.929 57.6597C102.836 57.6229 102.764 57.5714 102.71 57.5055C102.658 57.4396 102.628 57.363 102.621 57.2757H102.843C102.849 57.336 102.871 57.3858 102.911 57.4253C102.951 57.4642 103.001 57.4933 103.062 57.5125C103.123 57.5312 103.189 57.5406 103.259 57.5406C103.341 57.5406 103.415 57.5286 103.48 57.5047C103.546 57.4803 103.597 57.4466 103.636 57.4035C103.674 57.3598 103.693 57.309 103.693 57.2508C103.693 57.1978 103.676 57.1547 103.643 57.1215C103.61 57.0883 103.567 57.0613 103.513 57.0405C103.46 57.0197 103.401 57.0016 103.339 56.986L103.121 56.9299C102.982 56.8941 102.872 56.8429 102.791 56.7765C102.71 56.71 102.67 56.623 102.67 56.5155C102.67 56.4262 102.697 56.3483 102.75 56.2819C102.805 56.2149 102.877 56.163 102.969 56.1261C103.061 56.0887 103.163 56.07 103.277 56.07C103.391 56.07 103.493 56.0884 103.582 56.1253C103.671 56.1617 103.741 56.2115 103.793 56.2749C103.846 56.3382 103.874 56.4101 103.877 56.4906H103.669Z" fill="#02767F"/>
<path d="M100.551 57.687V56.0918H101.623V56.2632H100.766V56.8022H101.567V56.9735H100.766V57.5156H101.636V57.687H100.551Z" fill="#02767F"/>
<path d="M98.9883 57.687V56.0918H99.5883C99.7271 56.0918 99.8409 56.1131 99.93 56.1557C100.019 56.1978 100.085 56.2557 100.128 56.3294C100.17 56.4031 100.192 56.487 100.192 56.581C100.192 56.675 100.17 56.7583 100.128 56.831C100.085 56.9037 100.019 56.9608 99.9308 57.0023C99.8424 57.0434 99.7294 57.0639 99.5918 57.0639H99.1062V56.8894H99.5849C99.6797 56.8894 99.756 56.8769 99.8138 56.852C99.8722 56.8271 99.9144 56.7918 99.9404 56.7461C99.967 56.6999 99.9803 56.6448 99.9803 56.581C99.9803 56.5171 99.967 56.4613 99.9404 56.4135C99.9138 56.3657 99.8713 56.3289 99.8129 56.3029C99.7545 56.2764 99.6773 56.2632 99.5814 56.2632H99.2033V57.687H98.9883ZM99.8242 56.9704L100.261 57.687H100.011L99.5814 56.9704H99.8242Z" fill="#02767F"/>
<path d="M97.411 57.687H97.1855L97.8376 56.0918H98.0596L98.7117 57.687H98.4862L97.9555 56.3442H97.9417L97.411 57.687ZM97.4942 57.0639H98.403V57.2352H97.4942V57.0639Z" fill="#02767F"/>
<path d="M95.4817 57.687L94.9961 56.0918H95.2146L95.5857 57.391H95.6031L95.9811 56.0918H96.2239L96.602 57.391H96.6193L96.9904 56.0918H97.209L96.7234 57.687H96.5014L96.1095 56.4158H96.0956L95.7037 57.687H95.4817Z" fill="#02767F"/>
<path d="M93.4961 56.2632V56.0918H94.828V56.2632H94.2696V57.687H94.0545V56.2632H93.4961Z" fill="#02767F"/>
<path d="M92.1582 57.687V56.0918H93.223V56.2632H92.3732V56.8022H93.1432V56.9735H92.3732V57.687H92.1582Z" fill="#02767F"/>
<path d="M91.7982 56.8894C91.7982 57.0576 91.7644 57.203 91.6968 57.3256C91.6291 57.4481 91.5363 57.5426 91.4184 57.6091C91.3005 57.6756 91.1658 57.7088 91.0143 57.7088C90.8629 57.7088 90.7282 57.6756 90.6103 57.6091C90.4923 57.5426 90.3996 57.4481 90.3319 57.3256C90.2643 57.203 90.2305 57.0576 90.2305 56.8894C90.2305 56.7212 90.2643 56.5758 90.3319 56.4532C90.3996 56.3307 90.4923 56.2362 90.6103 56.1697C90.7282 56.1032 90.8629 56.07 91.0143 56.07C91.1658 56.07 91.3005 56.1032 91.4184 56.1697C91.5363 56.2362 91.6291 56.3307 91.6968 56.4532C91.7644 56.5758 91.7982 56.7212 91.7982 56.8894ZM91.5901 56.8894C91.5901 56.7513 91.5644 56.6347 91.5129 56.5397C91.4621 56.4447 91.393 56.3727 91.3057 56.3239C91.219 56.2751 91.1219 56.2507 91.0143 56.2507C90.9068 56.2507 90.8094 56.2751 90.7221 56.3239C90.6354 56.3727 90.5663 56.4447 90.5149 56.5397C90.464 56.6347 90.4386 56.7513 90.4386 56.8894C90.4386 57.0275 90.464 57.1441 90.5149 57.2391C90.5663 57.3341 90.6354 57.4061 90.7221 57.4549C90.8094 57.5037 90.9068 57.5281 91.0143 57.5281C91.1219 57.5281 91.219 57.5037 91.3057 57.4549C91.393 57.4061 91.4621 57.3341 91.5129 57.2391C91.5644 57.1441 91.5901 57.0275 91.5901 56.8894Z" fill="#02767F"/>
<path d="M89.7135 56.4906C89.7031 56.4117 89.6609 56.3504 89.5869 56.3068C89.5129 56.2632 89.4221 56.2414 89.3146 56.2414C89.236 56.2414 89.1672 56.2528 89.1082 56.2756C89.0499 56.2985 89.0042 56.3299 88.9712 56.3699C88.9389 56.4099 88.9227 56.4553 88.9227 56.5062C88.9227 56.5488 88.934 56.5854 88.9565 56.616C88.9796 56.6461 89.0091 56.6713 89.0449 56.6916C89.0808 56.7113 89.1184 56.7276 89.1577 56.7406C89.197 56.7531 89.2331 56.7632 89.2661 56.771L89.4464 56.8146C89.4927 56.8255 89.5441 56.8406 89.6008 56.8598C89.658 56.879 89.7126 56.9052 89.7646 56.9385C89.8172 56.9712 89.8606 57.0132 89.8947 57.0646C89.9288 57.1161 89.9459 57.1791 89.9459 57.2539C89.9459 57.3401 89.9207 57.418 89.8704 57.4876C89.8207 57.5572 89.7479 57.6125 89.6519 57.6535C89.5565 57.6945 89.4406 57.715 89.3042 57.715C89.177 57.715 89.0669 57.6966 88.9738 57.6597C88.8813 57.6229 88.8085 57.5714 88.7553 57.5055C88.7027 57.4396 88.673 57.363 88.666 57.2757H88.888C88.8938 57.336 88.9163 57.3858 88.9556 57.4253C88.9955 57.4642 89.0458 57.4933 89.1065 57.5125C89.1678 57.5312 89.2337 57.5406 89.3042 57.5406C89.3863 57.5406 89.46 57.5286 89.5253 57.5047C89.5906 57.4803 89.6424 57.4466 89.6805 57.4035C89.7187 57.3598 89.7378 57.309 89.7378 57.2508C89.7378 57.1978 89.7213 57.1547 89.6883 57.1215C89.6554 57.0883 89.612 57.0613 89.5583 57.0405C89.5045 57.0197 89.4464 57.0016 89.384 56.986L89.1655 56.9299C89.0267 56.8941 88.9169 56.8429 88.836 56.7765C88.755 56.71 88.7146 56.623 88.7146 56.5155C88.7146 56.4262 88.7415 56.3483 88.7952 56.2819C88.8496 56.2149 88.9224 56.163 89.0137 56.1261C89.1056 56.0887 89.2082 56.07 89.3216 56.07C89.436 56.07 89.5378 56.0884 89.6268 56.1253C89.7158 56.1617 89.7863 56.2115 89.8383 56.2749C89.891 56.3382 89.9187 56.4101 89.9216 56.4906H89.7135Z" fill="#02767F"/>
<path d="M86.2793 56.0918H86.5256L87.0181 56.8364H87.0389L87.5314 56.0918H87.7777L87.136 57.0296V57.687H86.921V57.0296L86.2793 56.0918Z" fill="#02767F"/>
<path d="M84.8809 57.687V56.0918H85.4809C85.6202 56.0918 85.7341 56.1144 85.8225 56.1596C85.9116 56.2042 85.9775 56.2647 86.0202 56.3411C86.063 56.4174 86.0844 56.5026 86.0844 56.5965C86.0844 56.6905 86.063 56.776 86.0202 56.8528C85.978 56.9297 85.9127 56.9909 85.8243 57.0366C85.7358 57.0818 85.6225 57.1044 85.4844 57.1044H85.0543V56.933H85.4774C85.5728 56.933 85.6494 56.9182 85.7072 56.8886C85.765 56.859 85.8069 56.8191 85.8329 56.7687C85.8595 56.7178 85.8728 56.6604 85.8728 56.5965C85.8728 56.5327 85.8595 56.4756 85.8329 56.4252C85.8069 56.3748 85.7647 56.3354 85.7063 56.3068C85.648 56.2777 85.5705 56.2632 85.474 56.2632H85.0959V57.687H84.8809Z" fill="#02767F"/>
<path d="M83.3036 57.687H83.0781L83.7302 56.0918H83.9522L84.6042 57.687H84.3788L83.8481 56.3442H83.8342L83.3036 57.687ZM83.3868 57.0639H84.2955V57.2352H83.3868V57.0639Z" fill="#02767F"/>
<path d="M81.6699 57.687V56.0918H82.27C82.4087 56.0918 82.5226 56.1131 82.6116 56.1557C82.7006 56.1978 82.7665 56.2557 82.8093 56.3294C82.8521 56.4031 82.8735 56.487 82.8735 56.581C82.8735 56.675 82.8521 56.7583 82.8093 56.831C82.7665 56.9037 82.7009 56.9608 82.6125 57.0023C82.524 57.0434 82.411 57.0639 82.2734 57.0639H81.7878V56.8894H82.2665C82.3613 56.8894 82.4376 56.8769 82.4954 56.852C82.5538 56.8271 82.596 56.7918 82.622 56.7461C82.6486 56.6999 82.6619 56.6448 82.6619 56.581C82.6619 56.5171 82.6486 56.4613 82.622 56.4135C82.5954 56.3657 82.5529 56.3289 82.4945 56.3029C82.4362 56.2764 82.359 56.2632 82.263 56.2632H81.885V57.687H81.6699ZM82.5058 56.9704L82.9428 57.687H82.6931L82.263 56.9704H82.5058Z" fill="#02767F"/>
<path d="M80.2109 57.687V56.0918H81.2827V56.2632H80.426V56.8022H81.2272V56.9735H80.426V57.5156H81.2966V57.687H80.2109Z" fill="#02767F"/>
<path d="M78.4023 57.687V56.0918H78.6174V56.8022H79.5643V56.0918H79.7793V57.687H79.5643V56.9735H78.6174V57.687H78.4023Z" fill="#02767F"/>
<path d="M76.7383 56.2632V56.0918H78.0702V56.2632H77.5117V57.687H77.2967V56.2632H76.7383Z" fill="#02767F"/>
<path d="M75.6992 57.687V56.0918H75.9143V57.5156H76.7398V57.687H75.6992Z" fill="#02767F"/>
<path d="M74.1219 57.687H73.8965L74.5486 56.0918H74.7705L75.4226 57.687H75.1971L74.6665 56.3442H74.6526L74.1219 57.687ZM74.2052 57.0639H75.1139V57.2352H74.2052V57.0639Z" fill="#02767F"/>
<path d="M73.7015 56.5903H73.4864C73.4737 56.5347 73.4515 56.4859 73.4197 56.4439C73.3885 56.4018 73.3503 56.3665 73.3052 56.3379C73.2607 56.3089 73.2113 56.2871 73.1569 56.2725C73.1026 56.258 73.046 56.2507 72.987 56.2507C72.8795 56.2507 72.7821 56.2751 72.6948 56.3239C72.6081 56.3727 72.539 56.4447 72.4875 56.5397C72.4367 56.6347 72.4112 56.7513 72.4112 56.8894C72.4112 57.0275 72.4367 57.1441 72.4875 57.2391C72.539 57.3341 72.6081 57.4061 72.6948 57.4549C72.7821 57.5037 72.8795 57.5281 72.987 57.5281C73.046 57.5281 73.1026 57.5208 73.1569 57.5063C73.2113 57.4917 73.2607 57.4702 73.3052 57.4416C73.3503 57.4126 73.3885 57.377 73.4197 57.3349C73.4515 57.2923 73.4737 57.2435 73.4864 57.1885H73.7015C73.6853 57.27 73.6558 57.343 73.613 57.4074C73.5703 57.4717 73.5171 57.5265 73.4535 57.5717C73.3899 57.6164 73.3185 57.6504 73.2393 57.6737C73.1607 57.6971 73.0766 57.7088 72.987 57.7088C72.8355 57.7088 72.7008 57.6756 72.5829 57.6091C72.465 57.5426 72.3722 57.4481 72.3046 57.3256C72.2369 57.203 72.2031 57.0576 72.2031 56.8894C72.2031 56.7212 72.2369 56.5758 72.3046 56.4532C72.3722 56.3307 72.465 56.2362 72.5829 56.1697C72.7008 56.1032 72.8355 56.07 72.987 56.07C73.0766 56.07 73.1607 56.0817 73.2393 56.1051C73.3185 56.1284 73.3899 56.1627 73.4535 56.2079C73.5171 56.2525 73.5703 56.307 73.613 56.3714C73.6558 56.4353 73.6853 56.5083 73.7015 56.5903Z" fill="#02767F"/>
<path d="M71.84 56.0918V57.687H71.625V56.0918H71.84Z" fill="#02767F"/>
<path d="M71.0397 56.4906C71.0293 56.4117 70.9871 56.3504 70.9131 56.3068C70.8391 56.2632 70.7483 56.2414 70.6408 56.2414C70.5622 56.2414 70.4934 56.2528 70.4344 56.2756C70.376 56.2985 70.3304 56.3299 70.2974 56.3699C70.265 56.4099 70.2489 56.4553 70.2489 56.5062C70.2489 56.5488 70.2601 56.5854 70.2827 56.616C70.3058 56.6461 70.3353 56.6713 70.3711 56.6916C70.407 56.7113 70.4445 56.7276 70.4838 56.7406C70.5231 56.7531 70.5593 56.7632 70.5922 56.771L70.7726 56.8146C70.8188 56.8255 70.8703 56.8406 70.9269 56.8598C70.9842 56.879 71.0388 56.9052 71.0908 56.9385C71.1434 56.9712 71.1868 57.0132 71.2209 57.0646C71.255 57.1161 71.272 57.1791 71.272 57.2539C71.272 57.3401 71.2469 57.418 71.1966 57.4876C71.1469 57.5572 71.0741 57.6125 70.9781 57.6535C70.8827 57.6945 70.7668 57.715 70.6304 57.715C70.5032 57.715 70.3931 57.6966 70.3 57.6597C70.2075 57.6229 70.1347 57.5714 70.0815 57.5055C70.0289 57.4396 69.9991 57.363 69.9922 57.2757H70.2142C70.2199 57.336 70.2425 57.3858 70.2818 57.4253C70.3217 57.4642 70.372 57.4933 70.4327 57.5125C70.494 57.5312 70.5599 57.5406 70.6304 57.5406C70.7125 57.5406 70.7862 57.5286 70.8515 57.5047C70.9168 57.4803 70.9686 57.4466 71.0067 57.4035C71.0449 57.3598 71.0639 57.309 71.0639 57.2508C71.0639 57.1978 71.0475 57.1547 71.0145 57.1215C70.9816 57.0883 70.9382 57.0613 70.8844 57.0405C70.8307 57.0197 70.7726 57.0016 70.7102 56.986L70.4916 56.9299C70.3529 56.8941 70.2431 56.8429 70.1621 56.7765C70.0812 56.71 70.0407 56.623 70.0407 56.5155C70.0407 56.4262 70.0676 56.3483 70.1214 56.2819C70.1757 56.2149 70.2486 56.163 70.3399 56.1261C70.4318 56.0887 70.5344 56.07 70.6477 56.07C70.7622 56.07 70.8639 56.0884 70.9529 56.1253C71.042 56.1617 71.1125 56.2115 71.1645 56.2749C71.2171 56.3382 71.2449 56.4101 71.2478 56.4906H71.0397Z" fill="#02767F"/>
<path d="M68.293 56.0918H68.5392L69.0317 56.8364H69.0526L69.5451 56.0918H69.7913L69.1497 57.0296V57.687H68.9346V57.0296L68.293 56.0918Z" fill="#02767F"/>
<path d="M66.6367 57.687V56.0918H66.8518V56.8022H67.7986V56.0918H68.0137V57.687H67.7986V56.9735H66.8518V57.687H66.6367Z" fill="#02767F"/>
<path d="M64.877 57.687V55.8405H65.5715C65.7328 55.8405 65.8646 55.8666 65.967 55.9189C66.0701 55.9706 66.1464 56.0406 66.1959 56.129C66.2454 56.2173 66.2702 56.3159 66.2702 56.4247C66.2702 56.5335 66.2454 56.6324 66.1959 56.7213C66.147 56.8103 66.0714 56.8812 65.969 56.9341C65.8667 56.9864 65.7355 57.0126 65.5756 57.0126H65.0777V56.8142H65.5675C65.6779 56.8142 65.7666 56.7971 65.8335 56.7628C65.9004 56.7286 65.949 56.6823 65.9791 56.624C66.0099 56.5651 66.0252 56.4986 66.0252 56.4247C66.0252 56.3508 66.0099 56.2847 65.9791 56.2264C65.949 56.168 65.9001 56.1224 65.8325 56.0893C65.7649 56.0556 65.6753 56.0388 65.5635 56.0388H65.1259V57.687H64.877Z" fill="#02767F"/>
</g>
<defs>
<clipPath id="clip0_742_131">
<rect width="162" height="65" fill="white"/>
</clipPath>
</defs>
</svg>
