<svg width="270" height="96" viewBox="0 0 270 96" fill="none" xmlns="http://www.w3.org/2000/svg">
<g id="Frame 131">
<path id="Vector" d="M144.211 18.8219C142.026 16.1071 139.114 14.7482 135.473 14.7482C134.161 14.7482 132.705 15.266 131.105 16.3017C129.595 17.2715 128.87 17.7893 128.933 17.8458C128.807 17.805 128.701 17.3154 128.61 16.3865C128.519 15.4073 128.145 14.9177 127.489 14.9177C126.686 14.9177 125.383 15.0809 123.588 15.4041C121.74 15.7274 120.49 16.0287 119.834 16.3143C119.634 16.4084 119.533 16.5999 119.533 16.8855C119.533 17.0173 119.549 17.1773 119.583 17.3688C120.17 20.4068 120.465 24.1353 120.465 28.5605L120.425 45.7716L120.415 50.4856C120.415 51.0568 120.666 51.4083 121.168 51.5401C121.504 51.6342 122.251 51.6813 123.412 51.6813L128.547 51.6531C129.102 51.6531 129.378 51.3486 129.378 50.7429C129.378 49.7763 129.338 48.3169 129.253 46.3711C129.244 46.1671 129.237 45.9662 129.228 45.7716C129.159 44.124 129.127 42.8655 129.127 41.9992C129.127 41.4312 129.237 41.1456 129.454 41.1456C129.319 41.1456 129.99 41.5065 131.469 42.2283C132.947 42.9502 134.331 43.3111 135.624 43.3111C139.164 43.3111 142.026 41.9239 144.211 39.1527C146.326 36.4756 147.384 33.1081 147.384 29.0438C147.384 24.9795 146.326 21.4393 144.211 18.8219ZM133.609 34.74C132.216 34.74 131.123 34.1594 130.336 33.0013C129.598 31.9374 129.228 30.6004 129.228 28.9873C129.228 27.3741 129.579 26.0811 130.285 24.9983C131.092 23.8026 132.165 23.2063 133.509 23.2063C134.852 23.2063 135.916 23.8026 136.807 24.9983C137.629 26.1376 138.041 27.4683 138.041 28.9873C138.041 32.8225 136.562 34.74 133.609 34.74Z" fill="url(#paint0_linear_184_120)"/>
<path id="Vector_2" d="M175.787 22.0953L175.737 41.745C175.737 42.4104 175.501 42.7776 175.03 42.856C174.494 42.9314 173.27 42.969 171.355 42.969C169.441 42.969 168.223 42.8937 167.501 42.7399C166.949 42.6269 166.67 42.2189 166.67 41.5159C166.67 39.8839 166.695 37.4265 166.745 34.1406C166.798 30.8578 166.823 28.3973 166.823 26.7653C166.823 24.5433 165.822 23.4323 163.826 23.4323C163.155 23.4323 162.364 23.7367 161.46 24.3455C160.468 25.0109 159.972 25.7013 159.972 26.4232V33.4564C159.972 34.3697 159.991 35.7412 160.022 37.5709C160.057 39.4038 160.073 40.7752 160.073 41.6885C160.073 42.3915 159.812 42.7776 159.294 42.856C158.773 42.9314 157.311 42.969 154.913 42.969C153.535 42.969 152.544 42.8937 151.941 42.7399C151.335 42.5893 151.034 42.2566 151.034 41.745C151.034 40.2449 151.043 37.9915 151.059 34.9817C151.075 31.9719 151.084 29.7185 151.084 28.2184C151.084 22.0105 151.024 16.8761 150.908 12.8118C150.858 11.3869 150.814 9.96522 150.783 8.54037C150.698 6.88955 150.547 5.47412 150.328 4.2972C150.278 4.04927 150.252 3.87038 150.252 3.75739C150.252 3.4718 150.378 3.28035 150.632 3.1862C151.15 3.01672 151.916 2.91315 152.923 2.87235C154.267 2.81586 155.045 2.76879 155.265 2.73112L159.822 2.13168C160.091 2.13168 160.226 2.33254 160.226 2.73112C160.226 3.33998 160.192 4.16539 160.123 5.20735C160.057 6.42506 160.022 7.25047 160.022 7.68672C159.922 11.977 159.872 15.3665 159.872 17.8521C159.872 18.2319 159.956 18.4233 160.123 18.4233C160.157 18.4233 160.584 18.0906 161.41 17.4253C162.383 16.647 163.315 16.0287 164.203 15.5736C165.53 14.9083 166.814 14.5787 168.057 14.5787C170.203 14.5787 172.002 15.2127 173.445 16.4869C175.005 17.8521 175.787 19.7226 175.787 22.0953Z" fill="url(#paint1_linear_184_120)"/>
<path id="Vector_3" d="M173.445 16.4869C172.002 15.2127 170.203 14.5787 168.057 14.5787C166.814 14.5787 165.53 14.9083 164.203 15.5736C163.315 16.0287 162.383 16.647 161.41 17.4253C160.584 18.0906 160.157 18.4233 160.123 18.4233C159.956 18.4233 159.872 18.2319 159.872 17.8521C159.872 15.3665 159.922 11.977 160.022 7.68672C160.022 7.25047 160.057 6.42506 160.123 5.20735C160.192 4.16539 160.226 3.33998 160.226 2.73112C160.226 2.33254 160.091 2.13168 159.822 2.13168L155.265 2.73112C155.045 2.76879 154.267 2.81586 152.923 2.87235C151.916 2.91315 151.15 3.01672 150.632 3.1862C150.378 3.28035 150.252 3.4718 150.252 3.75739C150.252 3.87038 150.278 4.04927 150.328 4.2972C150.547 5.47412 150.698 6.88955 150.783 8.54037C150.814 9.96522 150.858 11.3869 150.908 12.8118C151.024 16.8761 151.084 22.0105 151.084 28.2184C151.084 29.7185 151.075 31.9719 151.059 34.9817C151.043 37.9915 151.034 40.2449 151.034 41.745C151.034 42.2566 151.335 42.5893 151.941 42.7399C152.544 42.8937 153.535 42.969 154.913 42.969C157.311 42.969 158.773 42.9314 159.294 42.856C159.812 42.7776 160.073 42.3915 160.073 41.6885C160.073 40.7752 160.057 39.4038 160.022 37.5709C159.991 35.7412 159.972 34.3697 159.972 33.4564V26.4232C159.972 25.7013 160.468 25.0109 161.46 24.3455C162.364 23.7367 163.155 23.4323 163.826 23.4323C165.822 23.4323 166.823 24.5433 166.823 26.7653C166.823 28.3973 166.798 30.8578 166.745 34.1406C166.695 37.4265 166.67 39.8839 166.67 41.5159C166.67 42.2189 166.949 42.6269 167.501 42.7399C168.223 42.8937 169.507 42.969 171.355 42.969C173.204 42.969 174.494 42.9314 175.03 42.856C175.501 42.7776 175.737 42.4104 175.737 41.745L175.787 22.0953C175.787 19.7226 175.005 17.8521 173.445 16.4869Z" fill="url(#paint2_linear_184_120)"/>
<path id="Vector_4" d="M204.265 16.3708C204.5 17.2464 204.616 19.2675 204.616 22.4374C204.616 26.1187 204.516 28.3596 204.315 29.1568C204.064 30.1077 202.225 33.5443 198.801 39.4665C198.274 40.3798 196.924 42.4826 194.752 45.7716C194.718 45.825 194.68 45.8783 194.646 45.9317C192.179 49.6507 190.776 51.6154 190.44 51.8257C190.038 52.1113 187.462 52.2525 182.71 52.2525C181.988 52.2525 181.502 52.1584 181.251 51.9669C181.031 51.1886 180.755 50.269 180.419 49.2051C180.149 48.5397 179.882 47.8681 179.612 47.1839C179.383 46.5939 179.22 46.1231 179.129 45.7716C179.066 45.5331 179.035 45.3479 179.035 45.2193C179.035 44.8584 179.176 44.6763 179.462 44.6763C184.129 44.6763 186.464 43.4712 186.464 41.0608C186.464 40.8506 185.321 38.9644 183.04 35.3928C180.67 31.7303 179.371 29.4141 179.135 28.4443C179 27.8951 178.935 25.9304 178.935 22.5503C178.935 21.8662 178.95 20.8368 178.985 19.4621C179.016 18.0844 179.035 17.0549 179.035 16.3708C179.035 15.878 179.311 15.6301 179.867 15.6301C180.72 15.6301 182.02 15.6583 183.755 15.7148C185.494 15.7745 186.79 15.8027 187.647 15.8027C187.998 15.8027 188.174 16.0977 188.174 16.6846C188.174 17.215 188.149 18.0184 188.099 19.0918C188.049 20.1651 188.023 20.9654 188.023 21.4958C188.023 23.8905 188.058 25.513 188.124 26.3667C188.174 27.032 188.679 28.2654 189.637 30.07C190.644 31.9468 191.372 32.8884 191.827 32.8884C192.213 32.8884 192.866 31.9594 193.789 30.0983C194.646 28.3313 195.107 27.145 195.176 26.5362C195.342 24.8665 195.427 23.0556 195.427 21.0973C195.427 20.5857 195.383 19.8074 195.302 18.7623C195.217 17.7203 195.176 16.9325 195.176 16.399C195.176 16.0381 195.352 15.8592 195.703 15.8592C196.56 15.8592 197.841 15.8215 199.545 15.7462C201.249 15.6709 202.526 15.6301 203.383 15.6301C203.819 15.6301 204.114 15.878 204.265 16.3708Z" fill="url(#paint3_linear_184_120)"/>
<path id="Vector_5" d="M204.265 16.3708C204.114 15.878 203.819 15.6301 203.383 15.6301C202.526 15.6301 201.249 15.6709 199.545 15.7462C197.841 15.8215 196.56 15.8592 195.703 15.8592C195.352 15.8592 195.176 16.0381 195.176 16.399C195.176 16.9325 195.217 17.7203 195.302 18.7623C195.383 19.8074 195.427 20.5857 195.427 21.0973C195.427 23.0556 195.342 24.8665 195.176 26.5362C195.107 27.145 194.646 28.3313 193.789 30.0983C192.866 31.9594 192.213 32.8884 191.827 32.8884C191.372 32.8884 190.644 31.9468 189.637 30.07C188.679 28.2654 188.174 27.032 188.124 26.3667C188.058 25.513 188.023 23.8905 188.023 21.4958C188.023 20.9654 188.049 20.1651 188.099 19.0918C188.149 18.0184 188.174 17.215 188.174 16.6846C188.174 16.0977 187.998 15.8027 187.647 15.8027C186.79 15.8027 185.494 15.7745 183.755 15.7148C182.02 15.6583 180.72 15.6301 179.867 15.6301C179.311 15.6301 179.035 15.878 179.035 16.3708C179.035 17.0549 179.016 18.0844 178.985 19.4621C178.95 20.8368 178.935 21.8662 178.935 22.5503C178.935 25.9304 179 27.8951 179.135 28.4443C179.371 29.4141 180.67 31.7303 183.04 35.3928C185.321 38.9644 186.464 40.8506 186.464 41.0608C186.464 43.4712 184.129 44.6763 179.462 44.6763C179.176 44.6763 179.035 44.8584 179.035 45.2193C179.035 45.3479 179.066 45.5331 179.129 45.7716C179.22 46.1231 179.383 46.5939 179.612 47.1839C179.882 47.8681 180.149 48.5397 180.419 49.2051C180.755 50.269 181.031 51.1886 181.251 51.9669C181.502 52.1584 181.988 52.2525 182.71 52.2525C187.462 52.2525 190.038 52.1113 190.44 51.8257C190.776 51.6154 192.179 49.6507 194.646 45.9317C194.68 45.8783 194.718 45.825 194.752 45.7716C196.924 42.4826 198.274 40.3798 198.801 39.4665C202.225 33.5443 204.064 30.1077 204.315 29.1568C204.516 28.3596 204.616 26.1187 204.616 22.4374C204.616 19.2675 204.5 17.2464 204.265 16.3708Z" fill="url(#paint4_linear_184_120)"/>
<path id="Vector_6" d="M216.881 23.4322C216.881 24.0976 217.308 24.9418 218.165 25.9681C219.458 27.5059 220.255 28.5416 220.556 29.072C221.413 30.5157 221.84 32.0629 221.84 33.7138C221.84 34.6835 221.674 35.7067 221.338 36.7894C220.952 37.9852 220.465 38.8577 219.875 39.41C218.636 40.6246 217.182 41.6509 215.519 42.4857C213.724 43.3582 212.07 43.7944 210.56 43.7944C210.224 43.7944 209.474 42.765 208.307 40.7062C207.139 38.6442 206.556 37.3889 206.556 36.9307C206.556 36.7612 206.65 36.6576 206.832 36.62C208.009 36.372 209.192 36.1241 210.385 35.8793C211.86 35.3457 212.6 34.4733 212.6 33.2587C212.6 32.4239 212.17 31.4541 211.317 30.3525C209.788 28.4349 208.991 27.4212 208.922 27.3051C208.068 25.9399 207.638 24.4962 207.638 22.9772C207.638 20.1306 208.916 17.7109 211.467 15.7148C213.749 13.951 216.191 13.0691 218.792 13.0691C219.062 13.0691 219.725 14.0891 220.782 16.1291C221.84 18.1691 222.37 19.3617 222.37 19.7038C222.37 19.8921 222.245 20.1494 221.99 20.4727C221.523 20.3409 221.052 20.2718 220.581 20.2718C219.59 20.2718 218.761 20.5198 218.089 21.0125C217.283 21.5837 216.881 22.3903 216.881 23.4322Z" fill="url(#paint5_linear_184_120)"/>
<path id="Vector_7" d="M218.089 21.0125C218.761 20.5198 219.59 20.2718 220.581 20.2718C221.052 20.2718 221.523 20.3409 221.99 20.4727C222.245 20.1494 222.37 19.8921 222.37 19.7038C222.37 19.3617 221.84 18.1691 220.782 16.1291C219.725 14.0891 219.062 13.0691 218.792 13.0691C216.191 13.0691 213.749 13.951 211.467 15.7148C208.916 17.7109 207.638 20.1306 207.638 22.9772C207.638 24.4962 208.068 25.9399 208.922 27.3051C208.991 27.4212 209.788 28.4349 211.317 30.3525C212.17 31.4541 212.6 32.4239 212.6 33.2587C212.6 34.4733 211.86 35.3457 210.385 35.8793C209.192 36.1241 208.009 36.372 206.832 36.62C206.65 36.6576 206.556 36.7612 206.556 36.9307C206.556 37.3889 207.139 38.6442 208.307 40.7062C209.474 42.765 210.224 43.7944 210.56 43.7944C212.07 43.7944 213.724 43.3582 215.519 42.4857C217.182 41.6509 218.636 40.6246 219.875 39.41C220.465 38.8577 220.952 37.9852 221.338 36.7894C221.674 35.7067 221.84 34.6835 221.84 33.7138C221.84 32.0629 221.413 30.5157 220.556 29.072C220.255 28.5416 219.458 27.5059 218.165 25.9681C217.308 24.9418 216.881 24.0976 216.881 23.4322C216.881 22.3903 217.283 21.5837 218.089 21.0125Z" fill="url(#paint6_linear_184_120)"/>
<path id="Vector_8" d="M234.432 4.89663C235.455 5.84444 235.966 7.0496 235.966 8.51211C235.966 11.8137 234.322 13.4677 231.033 13.4677C229.62 13.4677 228.456 13.0503 227.533 12.2123C226.526 11.3022 226.021 10.0688 226.021 8.51211C226.021 6.95545 226.542 5.81619 227.583 4.86525C228.538 3.99276 229.689 3.55652 231.033 3.55652C232.376 3.55652 233.474 4.00218 234.432 4.89663Z" fill="url(#paint7_linear_184_120)"/>
<path id="Vector_9" d="M235.916 16.2578C235.916 16.3331 235.9 16.5151 235.866 16.7976C235.495 20.501 235.313 24.7912 235.313 29.6715C235.313 31.0555 235.338 33.1206 235.389 35.8636C235.439 38.6066 235.464 40.6623 235.464 42.0275C235.464 42.4292 235.254 42.6646 234.833 42.7399C234.262 42.856 232.978 42.9125 230.982 42.9125C228.986 42.9125 227.674 42.856 227.103 42.7399C226.733 42.6646 226.507 42.5422 226.422 42.3696C226.391 42.2943 226.372 42.0118 226.372 41.5159C226.372 40.2072 226.397 38.2363 226.447 35.6062C226.501 32.9794 226.526 30.999 226.526 29.6715C226.526 24.2796 226.34 19.9894 225.97 16.7976C225.936 16.4963 225.92 16.2954 225.92 16.2013C225.92 15.8215 226.146 15.6301 226.601 15.6301C227.056 15.6301 227.787 15.6866 228.754 15.8027C229.717 15.9157 230.442 15.9722 230.932 15.9722C231.422 15.9722 232.147 15.9251 233.123 15.831C234.096 15.7368 234.827 15.6866 235.313 15.6866C235.715 15.6866 235.916 15.878 235.916 16.2578Z" fill="url(#paint8_linear_184_120)"/>
<path id="Vector_10" d="M234.431 4.89663C233.474 4.00218 232.341 3.55652 231.032 3.55652C229.724 3.55652 228.537 3.99276 227.583 4.86525C226.541 5.81619 226.02 7.03077 226.02 8.51211C226.02 10.0688 226.526 11.3022 227.533 12.2123C228.456 13.0503 229.62 13.4677 231.032 13.4677C234.322 13.4677 235.966 11.8137 235.966 8.51211C235.966 7.0496 235.454 5.84444 234.431 4.89663ZM235.916 16.2578C235.916 15.878 235.715 15.6866 235.313 15.6866C234.827 15.6866 234.096 15.7368 233.123 15.8309C232.147 15.9251 231.418 15.9722 230.932 15.9722C230.446 15.9722 229.717 15.9157 228.754 15.8027C227.787 15.6866 227.069 15.6301 226.601 15.6301C226.133 15.6301 225.92 15.8215 225.92 16.2013C225.92 16.2954 225.936 16.4963 225.97 16.7976C226.34 19.9894 226.526 24.2796 226.526 29.6714C226.526 30.999 226.501 32.9794 226.447 35.6062C226.397 38.2362 226.372 40.2072 226.372 41.5159C226.372 42.0118 226.391 42.2942 226.422 42.3696C226.507 42.5422 226.733 42.6646 227.103 42.7399C227.674 42.856 228.967 42.9125 230.982 42.9125C232.997 42.9125 234.262 42.856 234.833 42.7399C235.254 42.6646 235.464 42.4292 235.464 42.0275C235.464 40.6623 235.439 38.6066 235.389 35.8636C235.338 33.1206 235.313 31.0555 235.313 29.6714C235.313 24.7912 235.495 20.5009 235.866 16.7976C235.9 16.5151 235.916 16.3331 235.916 16.2578Z" fill="url(#paint9_linear_184_120)"/>
<path id="Vector_11" d="M264.394 28.7299C264.394 33.0578 263.223 36.5697 260.882 39.2657C258.541 41.9616 255.465 43.308 251.652 43.308C247.839 43.308 244.92 41.9804 242.538 39.3222C240.153 36.6639 238.963 33.2461 238.963 29.072C238.963 24.6688 240.106 21.0941 242.387 18.3511C244.669 15.6081 247.76 14.2366 251.655 14.2366C255.55 14.2366 258.522 15.5799 260.873 18.2664C263.223 20.9529 264.397 24.4428 264.397 28.7331L264.394 28.7299ZM256.134 28.7299C256.134 27.2298 255.723 25.9053 254.9 24.7567C254.078 23.608 253.011 23.0337 251.702 23.0337C250.394 23.0337 249.286 23.6237 248.429 24.8006C247.622 25.9022 247.221 27.2109 247.221 28.7299C247.221 30.2489 247.622 31.5859 248.429 32.6875C249.286 33.8644 250.375 34.4544 251.702 34.4544C253.03 34.4544 254.094 33.8676 254.951 32.6875C255.738 31.5859 256.134 30.2678 256.134 28.7299Z" fill="url(#paint10_linear_184_120)"/>
<path id="Vector_12" d="M159.194 84.6882C159.159 81.917 159.144 77.9406 159.144 72.7559C159.144 69.0557 159.219 65.0291 159.37 60.6761H150.262C150.271 61.0621 150.275 61.4544 150.281 61.8498C150.262 61.15 150.256 64.7843 150.256 72.7559C150.256 74.4287 150.237 76.9488 150.205 80.3195C150.171 83.6871 150.155 86.2167 150.155 87.9083V89.1323C150.205 89.5497 150.416 89.807 150.783 89.9012C151.338 90.0518 152.622 90.1271 154.637 90.1271C156.652 90.1271 157.961 90.0518 158.717 89.9012C159.134 89.8259 159.345 89.5873 159.345 89.1887C159.345 88.6583 159.32 87.9083 159.269 86.9385C159.219 85.8746 159.194 85.1245 159.194 84.6882Z" fill="url(#paint11_linear_184_120)"/>
<path id="Vector_13" d="M173.672 63.4159C173.672 63.0362 173.471 62.8479 173.069 62.8479C172.583 62.8479 171.851 62.8949 170.878 62.9891C169.906 63.0864 169.174 63.1335 168.688 63.1335C168.201 63.1335 167.473 63.0738 166.51 62.9609C165.543 62.8479 164.828 62.7914 164.357 62.7914C163.886 62.7914 163.676 62.9797 163.676 63.3594C163.676 63.4536 163.695 63.6544 163.726 63.9589C164.096 67.1475 164.281 71.4378 164.281 76.8296C164.281 78.1572 164.256 80.1375 164.206 82.7675C164.156 85.3975 164.131 87.3653 164.131 88.6772C164.131 89.1699 164.147 89.4555 164.181 89.5309C164.263 89.7003 164.492 89.8259 164.859 89.9012C165.43 90.0142 166.723 90.0707 168.738 90.0707C170.753 90.0707 172.021 90.0142 172.589 89.9012C173.009 89.8259 173.22 89.5873 173.22 89.1888C173.22 87.8204 173.195 85.7679 173.144 83.0217C173.094 80.2787 173.069 78.2168 173.069 76.8296C173.069 71.9493 173.254 67.6591 173.621 63.9589C173.656 63.6733 173.672 63.4944 173.672 63.4159Z" fill="url(#paint12_linear_184_120)"/>
<path id="Vector_14" d="M202.931 83.5364C202.915 81.079 202.906 79.2305 202.906 77.9971V68.9144C202.906 66.5795 202.109 64.756 200.515 63.4442C199.09 62.3049 197.31 61.7368 195.176 61.7368C193.682 61.7368 191.94 62.3959 189.951 63.7172C188.049 64.9789 187.139 65.6379 187.226 65.6913C187.051 65.6505 186.916 65.0102 186.818 63.7737C186.718 62.4901 186.574 61.8498 186.388 61.8498C186.053 61.8498 184.549 62.1448 181.882 62.7317C180.118 63.0173 178.709 63.2276 177.651 63.3594C177.4 63.4724 177.274 63.6827 177.274 63.9871C177.274 64.1001 177.29 64.2413 177.325 64.4139C177.977 67.1098 178.307 70.8195 178.307 75.5491C178.307 77.0493 178.298 79.287 178.282 82.2685C178.263 85.25 178.257 87.4783 178.257 88.9596C178.257 89.4932 178.517 89.807 179.035 89.9012C179.625 90.0142 180.899 90.0706 182.864 90.0706C184.678 90.0706 185.877 90.033 186.464 89.9577C186.985 89.8823 187.245 89.5308 187.245 88.9031V73.5248C187.245 72.8249 187.716 72.1125 188.654 71.3907C189.527 70.7442 190.293 70.4209 190.945 70.4209C192.945 70.4209 193.943 71.7233 193.943 74.322C193.943 75.025 193.958 76.0764 193.993 77.4698C194.027 78.8664 194.043 79.9147 194.043 80.6177C194.043 81.5278 194.018 82.8868 193.968 84.6882C193.918 86.4928 193.892 87.8392 193.892 88.7337C193.892 89.3959 194.144 89.7851 194.649 89.9012C195.151 90.0142 196.463 90.0706 198.575 90.0706C200.555 90.0706 201.782 90.033 202.253 89.9577C202.724 89.8823 202.956 89.5873 202.956 89.0758C202.956 87.8392 202.95 85.9938 202.931 83.5364Z" fill="url(#paint13_linear_184_120)"/>
<path id="Vector_15" d="M228.591 77.7115C229.683 77.4479 230.23 76.3557 230.23 74.4381C230.23 70.7724 229.103 67.612 226.853 64.9537C224.606 62.2955 221.869 60.9679 218.646 60.9679C214.817 60.9679 211.747 62.4116 209.428 65.2958C207.181 68.0859 206.054 71.6669 206.054 76.0324C206.054 80.398 207.313 84.0919 209.833 86.769C212.284 89.4084 215.507 90.7266 219.502 90.7266C223.815 90.7266 226.997 89.4838 229.043 86.995C229.297 86.6937 229.423 86.474 229.423 86.3422C229.423 85.8651 229.006 84.7573 228.177 83.0092C227.345 81.2642 226.752 80.2944 226.401 80.103C225.764 80.5612 225.126 81.0163 224.486 81.4713C222.977 82.3815 221.473 82.8366 219.979 82.8366C218.737 82.8366 217.629 82.5729 216.656 82.0394C215.463 81.396 214.751 80.4545 214.515 79.2211C218.445 78.879 221.398 78.5871 223.378 78.3392C226.671 77.9594 228.406 77.7491 228.591 77.7115ZM220.585 73.1545C217.965 73.5939 216.034 73.8104 214.792 73.8104C214.324 73.8104 214.089 73.5562 214.089 73.0415C214.089 71.7893 214.406 70.6971 215.046 69.7681C215.733 68.7607 216.606 68.2585 217.663 68.2585C218.721 68.2585 219.568 68.7042 220.306 69.5955C221.047 70.4899 221.414 71.5225 221.414 72.6994C221.414 72.9097 221.138 73.0603 220.585 73.1545Z" fill="url(#paint14_linear_184_120)"/>
<path id="Vector_16" d="M159.837 49.974C159.658 52.9743 159.514 55.8334 159.407 58.5482H267.755C268.142 58.5325 268.722 58.4446 269.14 58.0272C269.682 57.4874 269.635 56.7028 269.623 55.8742C269.601 54.4337 269.645 50.4636 269.711 49.0293C269.723 48.728 269.761 48.0689 269.337 47.5856C269.023 47.2278 268.587 47.1149 268.336 47.0709H197.009C196.761 47.4067 196.497 47.7614 196.221 48.1317C192.424 53.2003 191.921 53.58 191.482 53.828C190.908 54.1826 190.239 54.4839 182.698 54.4839C181.53 54.4839 180.705 54.2987 180.102 53.897L179.594 53.5581L179.421 53.012C179.217 52.3623 178.95 51.5777 178.63 50.6801C178.37 50.1058 178.106 49.522 177.846 48.932C177.482 48.1129 177.274 47.5291 177.186 47.0709H131.042C131.048 47.2216 131.058 47.3754 131.064 47.5291C131.152 49.2961 131.193 50.586 131.193 51.4741C131.193 52.9304 130.075 53.9504 128.475 53.9504L123.337 53.9755H123.334C121.595 53.9755 120.968 53.8845 120.591 53.7935C119.27 53.4765 118.448 52.5036 118.448 51.2482L118.457 47.0709H117.562C116.935 49.9865 116.699 53.4545 117.562 57.1484C117.647 57.5125 117.741 57.8703 117.842 58.2155C118.2 58.3285 118.683 58.4572 119.267 58.545C120.698 58.7585 121.803 58.5733 122.007 58.545C123.274 58.3662 130.926 58.3191 150.293 58.545C149.935 52.4094 149.722 50.2188 149.681 49.9708C149.65 49.7888 149.631 49.6413 149.631 49.544C149.631 49.1737 149.851 48.9885 150.287 48.9885H159.285C159.329 48.9854 159.596 48.9697 159.784 49.1643C159.975 49.362 160.007 49.6947 159.84 49.974H159.837ZM165.383 50.8841C166.34 50.1121 167.492 49.7229 168.835 49.7229C170.178 49.7229 171.28 50.1215 172.237 50.9092C173.26 51.7503 173.778 52.8205 173.778 54.1136C173.778 57.0417 172.127 58.5042 168.835 58.5042C167.423 58.5042 166.255 58.1339 165.333 57.3932C164.325 56.5835 163.817 55.4914 163.817 54.1104C163.817 52.7295 164.338 51.7221 165.383 50.881V50.8841Z" fill="url(#paint15_linear_184_120)"/>
<path id="Vector_17" d="M79.595 87.3184C79.8053 88.9598 50.9976 103.962 25.8054 89.7382C11.8205 81.8419 -1.04393 65.0418 0.0670715 44.7769C1.21574 23.7463 16.7353 11.5158 19.2712 9.5825C40.4776 -6.56789 65.6227 2.41431 67.5905 3.15499C64.2418 2.95413 39.6584 1.86509 24.1169 20.316C21.647 23.2473 12.8593 33.6826 13.5404 48.5211C14.4631 68.6196 31.9944 80.0373 34.3733 81.5343C54.8704 94.4207 79.4005 85.8151 79.5919 87.3153L79.595 87.3184Z" fill="url(#paint16_linear_184_120)"/>
<path id="Vector_18" d="M93.2314 55.8178C89.073 72.6492 75.4491 80.1783 73.2333 81.3552C54.7071 91.1942 37.1413 80.1155 35.7729 79.2148C39.3602 79.8237 56.5274 82.325 70.2644 69.9627C73.1831 67.3327 80.2885 60.9397 81.9519 50.4447C84.3183 35.5058 73.7888 24.0474 71.3911 21.5994C58.2661 8.21081 39.7588 10.7906 39.8874 9.34692C40.0318 7.7118 64.0722 0.239177 80.8472 15.5579C90.1652 24.0662 97.2392 39.6046 93.2314 55.8178Z" fill="url(#paint17_linear_184_120)"/>
<path id="Vector_19" d="M63.256 46.0823C61.8186 43.7191 60.2525 42.379 59.0882 41.5944C56.5021 39.8494 55.5888 39.8714 54.3523 38.3492C52.5288 36.099 53.7057 34.354 52.5414 30.5502C51.0192 25.5821 47.4289 23.3883 47.8996 22.8642C48.3892 22.3181 52.5163 24.2012 55.5606 27.8135C58.3914 31.1716 58.2659 33.6227 60.0485 33.9052C60.9398 34.0464 61.8029 33.5694 67.0033 28.4475C70.2014 25.3027 71.0142 24.3612 71.3061 24.537C71.7047 24.7786 71.0707 27.1042 66.1214 36.802C65.1642 39.8933 64.2069 42.9878 63.2529 46.0792L63.256 46.0823Z" fill="url(#paint18_linear_184_120)"/>
<path id="Vector_20" d="M61.1128 27.1795C63.3019 27.1795 65.0766 25.7744 65.0766 24.0411C65.0766 22.3078 63.3019 20.9026 61.1128 20.9026C58.9236 20.9026 57.1489 22.3078 57.1489 24.0411C57.1489 25.7744 58.9236 27.1795 61.1128 27.1795Z" fill="url(#paint19_linear_184_120)"/>
<path id="Vector_21" d="M71.3061 67.3955C70.6909 67.7156 67.7439 58.9719 58.9752 51.9073C56.4801 49.8955 45.3951 40.7909 35.6064 44.5445C31.9595 45.9442 27.2267 49.6131 27.073 54.5561C26.9819 57.5031 28.5668 60.8047 31.2377 62.2673C37.502 65.6944 46.3618 57.0763 46.9424 56.4988C49.2994 54.1544 50.6646 51.719 51.4304 50.087C52.2809 50.3569 53.4358 50.8308 54.6347 51.6907C56.4111 52.9649 57.4216 54.4714 57.9426 55.3909C56.9414 57.183 55.209 59.8099 52.3907 62.2673C50.8654 63.5979 39.9594 72.8658 29.954 68.0357C25.2024 65.7415 21.2229 60.5411 20.9812 54.5561C20.6737 46.914 26.5834 40.9698 31.7618 38.6348C42.9315 33.5945 56.1694 42.8749 62.327 49.4467C69.74 57.3619 71.9338 67.0659 71.3029 67.3955H71.3061Z" fill="url(#paint20_linear_184_120)"/>
</g>
<defs>
<linearGradient id="paint0_linear_184_120" x1="119.533" y1="33.2148" x2="147.384" y2="33.2148" gradientUnits="userSpaceOnUse">
<stop stop-color="#02767F"/>
<stop offset="1" stop-color="#04D5E5"/>
</linearGradient>
<linearGradient id="paint1_linear_184_120" x1="150.252" y1="22.5504" x2="175.787" y2="22.5504" gradientUnits="userSpaceOnUse">
<stop stop-color="#02767F"/>
<stop offset="1" stop-color="#04D5E5"/>
</linearGradient>
<linearGradient id="paint2_linear_184_120" x1="150.252" y1="22.5504" x2="175.787" y2="22.5504" gradientUnits="userSpaceOnUse">
<stop stop-color="#02767F"/>
<stop offset="1" stop-color="#04D5E5"/>
</linearGradient>
<linearGradient id="paint3_linear_184_120" x1="178.935" y1="33.9413" x2="204.616" y2="33.9413" gradientUnits="userSpaceOnUse">
<stop stop-color="#02767F"/>
<stop offset="1" stop-color="#04D5E5"/>
</linearGradient>
<linearGradient id="paint4_linear_184_120" x1="178.935" y1="33.9413" x2="204.616" y2="33.9413" gradientUnits="userSpaceOnUse">
<stop stop-color="#02767F"/>
<stop offset="1" stop-color="#04D5E5"/>
</linearGradient>
<linearGradient id="paint5_linear_184_120" x1="206.556" y1="28.4318" x2="222.37" y2="28.4318" gradientUnits="userSpaceOnUse">
<stop stop-color="#02767F"/>
<stop offset="1" stop-color="#04D5E5"/>
</linearGradient>
<linearGradient id="paint6_linear_184_120" x1="206.556" y1="28.4318" x2="222.37" y2="28.4318" gradientUnits="userSpaceOnUse">
<stop stop-color="#02767F"/>
<stop offset="1" stop-color="#04D5E5"/>
</linearGradient>
<linearGradient id="paint7_linear_184_120" x1="226.021" y1="8.51211" x2="235.966" y2="8.51211" gradientUnits="userSpaceOnUse">
<stop stop-color="#02767F"/>
<stop offset="1" stop-color="#04D5E5"/>
</linearGradient>
<linearGradient id="paint8_linear_184_120" x1="225.92" y1="29.2713" x2="235.916" y2="29.2713" gradientUnits="userSpaceOnUse">
<stop stop-color="#02767F"/>
<stop offset="1" stop-color="#04D5E5"/>
</linearGradient>
<linearGradient id="paint9_linear_184_120" x1="225.92" y1="23.2345" x2="235.966" y2="23.2345" gradientUnits="userSpaceOnUse">
<stop stop-color="#02767F"/>
<stop offset="1" stop-color="#04D5E5"/>
</linearGradient>
<linearGradient id="paint10_linear_184_120" x1="238.963" y1="28.7723" x2="264.397" y2="28.7723" gradientUnits="userSpaceOnUse">
<stop stop-color="#02767F"/>
<stop offset="1" stop-color="#04D5E5"/>
</linearGradient>
<linearGradient id="paint11_linear_184_120" x1="150.155" y1="75.4016" x2="159.37" y2="75.4016" gradientUnits="userSpaceOnUse">
<stop stop-color="#02767F"/>
<stop offset="1" stop-color="#04D5E5"/>
</linearGradient>
<linearGradient id="paint12_linear_184_120" x1="163.676" y1="76.431" x2="173.672" y2="76.431" gradientUnits="userSpaceOnUse">
<stop stop-color="#02767F"/>
<stop offset="1" stop-color="#04D5E5"/>
</linearGradient>
<linearGradient id="paint13_linear_184_120" x1="177.274" y1="75.9037" x2="202.956" y2="75.9037" gradientUnits="userSpaceOnUse">
<stop stop-color="#02767F"/>
<stop offset="1" stop-color="#04D5E5"/>
</linearGradient>
<linearGradient id="paint14_linear_184_120" x1="206.054" y1="75.8473" x2="230.23" y2="75.8473" gradientUnits="userSpaceOnUse">
<stop stop-color="#02767F"/>
<stop offset="1" stop-color="#04D5E5"/>
</linearGradient>
<linearGradient id="paint15_linear_184_120" x1="117" y1="52.8587" x2="269.717" y2="52.8587" gradientUnits="userSpaceOnUse">
<stop stop-color="#02767F"/>
<stop offset="1" stop-color="#04D5E5"/>
</linearGradient>
<linearGradient id="paint16_linear_184_120" x1="0" y1="47.9054" x2="79.5962" y2="47.9054" gradientUnits="userSpaceOnUse">
<stop stop-color="#02767F"/>
<stop offset="1" stop-color="#04D5E5"/>
</linearGradient>
<linearGradient id="paint17_linear_184_120" x1="35.7729" y1="45.7444" x2="94.3774" y2="45.7444" gradientUnits="userSpaceOnUse">
<stop stop-color="#02767F"/>
<stop offset="1" stop-color="#04D5E5"/>
</linearGradient>
<linearGradient id="paint18_linear_184_120" x1="47.8574" y1="34.4267" x2="71.4048" y2="34.4267" gradientUnits="userSpaceOnUse">
<stop stop-color="#02767F"/>
<stop offset="1" stop-color="#04D5E5"/>
</linearGradient>
<linearGradient id="paint19_linear_184_120" x1="57.1489" y1="24.0411" x2="65.0766" y2="24.0411" gradientUnits="userSpaceOnUse">
<stop stop-color="#02767F"/>
<stop offset="1" stop-color="#04D5E5"/>
</linearGradient>
<linearGradient id="paint20_linear_184_120" x1="20.9697" y1="53.3058" x2="71.4055" y2="53.3058" gradientUnits="userSpaceOnUse">
<stop stop-color="#02767F"/>
<stop offset="1" stop-color="#04D5E5"/>
</linearGradient>
</defs>
</svg>
