<svg width="42" height="51" viewBox="0 0 42 51" fill="none" xmlns="http://www.w3.org/2000/svg">
<path d="M16.5842 35.0808C16.0817 35.2064 15.7048 35.3321 15.3278 35.5834C14.8253 34.8295 14.4484 33.9501 13.9458 33.3219C13.0664 32.0655 12.0612 30.9347 11.1817 29.6783C9.79971 27.7937 8.66896 25.9091 8.1664 23.522C7.03564 17.6169 10.3022 11.8375 15.956 9.57594C23.3688 6.56059 31.9123 11.5862 33.043 19.5015C33.5456 23.145 32.4148 26.1604 30.4046 29.0501C29.5251 30.3065 28.3944 31.5629 27.5149 32.9449C26.8867 33.8244 26.5098 34.7039 25.8816 35.5834C25.6303 35.9603 25.379 36.3372 25.0021 36.4628C22.1124 37.5936 19.2227 38.5987 16.333 39.6038C15.9561 39.7295 15.7048 39.6038 15.5791 39.3526C15.4535 38.9756 15.4535 38.5987 15.8304 38.4731C16.0817 38.3474 16.333 38.2218 16.5842 38.2218C19.097 37.3423 21.6098 36.4628 24.1226 35.4577C24.3739 35.3321 24.6252 35.0808 24.7508 34.8295C25.7559 32.9449 27.0124 31.4373 28.2688 29.6783C29.5252 28.045 30.6559 26.5373 31.1585 24.5271C32.4148 20.5066 31.5354 16.9887 28.7713 13.9733C25.6303 10.4554 21.6099 9.32466 17.0868 10.7067C12.5638 12.0887 10.051 15.2297 9.1715 19.8784C8.5433 23.145 9.67405 25.9091 11.5586 28.4219C12.6894 29.9296 13.8202 31.4373 14.9509 32.9449C15.7048 33.4475 16.0817 34.2013 16.5842 35.0808Z" fill="#02767F"/>
<path d="M15.9565 47.5193C15.8309 47.3937 15.5796 47.2681 15.5796 47.0168C15.5796 46.7655 15.7052 46.5142 15.8309 46.2629C15.8309 46.1373 16.0821 46.1373 16.2078 46.1373C18.9719 45.1322 21.8616 44.1271 24.6257 43.1219C25.2539 42.8707 25.5051 42.9963 25.6308 43.3732C25.7564 43.7501 25.5051 44.1271 25.0026 44.3783C22.1129 45.3835 19.3488 46.3886 16.4591 47.5193C16.3334 47.3937 16.2078 47.3937 15.9565 47.5193Z" fill="#02767F"/>
<path d="M15.9565 43.3738C15.8309 43.2482 15.5796 43.1225 15.5796 42.8713C15.5796 42.62 15.7052 42.3687 15.8309 42.1174C15.8309 41.9918 16.0821 41.9918 16.2078 41.9918C18.9719 40.9867 21.8616 39.9816 24.6257 38.9764C25.2539 38.7252 25.5051 38.8508 25.6308 39.2277C25.7564 39.6046 25.6308 39.9816 25.0026 40.2328C22.1129 41.2379 19.3488 42.3687 16.4591 43.3738C16.3334 43.3738 16.2078 43.3738 15.9565 43.3738Z" fill="#02767F"/>
<path d="M25.0023 46.8911C24.1228 49.9065 19.2229 51.6654 16.2075 50.0321C19.0972 49.027 21.9869 47.8962 25.0023 46.8911Z" fill="#02767F"/>
<path d="M21.233 2.91728C21.233 3.41984 21.233 3.92239 21.233 4.42495C21.233 4.80187 20.9817 5.05315 20.6048 5.05315C20.2278 5.05315 19.9766 4.80187 19.9766 4.42495C19.9766 3.41984 19.9766 2.41472 19.9766 1.28396C19.9766 0.907041 20.2278 0.655762 20.6048 0.655762C20.9817 0.655762 21.233 0.907041 21.233 1.28396C21.233 1.78652 21.233 2.41472 21.233 2.91728Z" fill="#02767F"/>
<path d="M2.2615 20.5068C2.76406 20.5068 3.26663 20.5068 3.76919 20.5068C4.27175 20.5068 4.52304 20.7581 4.52304 21.135C4.52304 21.512 4.27175 21.7632 3.76919 21.7632C2.76407 21.7632 1.75896 21.7632 0.753846 21.7632C0.251287 21.7632 0 21.512 0 21.135C0 20.7581 0.251287 20.5068 0.753846 20.5068C1.2564 20.5068 1.75894 20.5068 2.2615 20.5068Z" fill="#02767F"/>
<path d="M38.9484 21.8892C38.4458 21.8892 37.9433 21.8892 37.4407 21.8892C37.0638 21.8892 36.8125 21.6379 36.8125 21.261C36.8125 20.8841 37.0638 20.6328 37.4407 20.6328C38.4458 20.6328 39.5766 20.6328 40.5817 20.6328C40.9586 20.6328 41.2099 20.8841 41.2099 21.261C41.2099 21.6379 40.9586 21.8892 40.5817 21.8892C39.9535 21.8892 39.4509 21.8892 38.9484 21.8892Z" fill="#02767F"/>
<path d="M6.2818 6.18408C6.53308 6.30972 6.65871 6.43536 6.78435 6.561C7.53819 7.31484 8.1664 7.94304 8.92024 8.69688C9.29716 9.0738 9.29716 9.32507 8.92024 9.70199C8.66896 9.95327 8.29202 9.95327 7.9151 9.70199C7.16126 8.94816 6.40745 8.31996 5.77925 7.56612C5.65361 7.44048 5.52796 7.06356 5.6536 6.81228C5.77924 6.43536 6.15616 6.30972 6.2818 6.18408Z" fill="#02767F"/>
<path d="M32.5409 32.4429C32.7922 32.5685 32.9178 32.6942 33.0435 32.8198C33.7973 33.448 34.4255 34.2018 35.1794 34.83C35.5563 35.2069 35.5563 35.5839 35.305 35.8351C35.0537 36.0864 34.6768 36.0864 34.2999 35.7095C33.546 34.9557 32.9179 34.3275 32.164 33.5736C32.0384 33.448 31.9127 33.0711 32.0384 32.8198C32.0384 32.6942 32.2896 32.5685 32.5409 32.4429Z" fill="#02767F"/>
<path d="M35.556 6.93805C35.4303 7.18933 35.3047 7.31497 35.1791 7.44061C34.4252 8.19445 33.797 8.82265 33.0432 9.57649C32.7919 9.82777 32.415 9.95341 32.0381 9.57649C31.7868 9.32521 31.7868 8.94829 32.0381 8.57137C32.7919 7.81753 33.4201 7.06369 34.1739 6.43549C34.2996 6.30985 34.6765 6.18421 34.9278 6.30985C35.179 6.43549 35.3047 6.81241 35.556 6.93805Z" fill="#02767F"/>
<path d="M6.28202 36.0863C6.15638 35.9606 5.90511 35.835 5.77947 35.5837C5.65383 35.4581 5.77947 35.0811 5.77947 34.9555C6.53331 34.2017 7.28714 33.3222 8.16662 32.5683C8.4179 32.3171 8.7948 32.3171 9.04607 32.5683C9.29735 32.8196 9.29735 33.1965 9.04607 33.4478C8.29224 34.2017 7.53841 34.9555 6.78458 35.7093C6.65894 35.9606 6.5333 36.0863 6.28202 36.0863Z" fill="#02767F"/>
</svg>
