<svg width="250" height="100" viewBox="0 0 250 100" fill="none" xmlns="http://www.w3.org/2000/svg">
<g clip-path="url(#clip0_85_224)">
<path d="M124.357 18.8212C122.173 16.1065 119.261 14.7476 115.62 14.7476C114.308 14.7476 112.852 15.2654 111.251 16.3011C109.742 17.2709 109.017 17.7887 109.08 17.8452C108.954 17.8044 108.847 17.3148 108.756 16.3858C108.665 15.4066 108.292 14.917 107.636 14.917C106.832 14.917 105.53 15.0802 103.735 15.4035C101.886 15.7268 100.637 16.028 99.9812 16.3136C99.7804 16.4078 99.6799 16.5992 99.6799 16.8848C99.6799 17.0166 99.6956 17.1767 99.7301 17.3682C100.317 20.4062 100.612 24.1346 100.612 28.5598L100.571 45.771L100.562 50.4849C100.562 51.0561 100.813 51.4076 101.315 51.5394C101.651 51.6336 102.398 51.6807 103.559 51.6807L108.694 51.6524C109.249 51.6524 109.525 51.348 109.525 50.7423C109.525 49.7756 109.484 48.3163 109.4 46.3704C109.39 46.1664 109.384 45.9656 109.375 45.771C109.306 44.1233 109.274 42.8648 109.274 41.9986C109.274 41.4305 109.384 41.1449 109.601 41.1449C109.466 41.1449 110.137 41.5059 111.615 42.2277C113.094 42.9495 114.478 43.3105 115.771 43.3105C119.311 43.3105 122.173 41.9233 124.357 39.152C126.473 36.475 127.53 33.1074 127.53 29.0431C127.53 24.9789 126.473 21.4387 124.357 18.8212ZM113.756 34.7394C112.362 34.7394 111.27 34.1588 110.482 33.0007C109.745 31.9368 109.375 30.5998 109.375 28.9866C109.375 27.3735 109.726 26.0805 110.432 24.9977C111.239 23.8019 112.312 23.2056 113.655 23.2056C114.999 23.2056 116.063 23.8019 116.954 24.9977C117.776 26.1369 118.187 27.4676 118.187 28.9866C118.187 32.8218 116.709 34.7394 113.756 34.7394Z" fill="white"/>
<path d="M155.933 22.0945L155.883 41.7442C155.883 42.4095 155.648 42.7768 155.177 42.8552C154.64 42.9305 153.416 42.9682 151.502 42.9682C149.587 42.9682 148.37 42.8929 147.648 42.7391C147.095 42.6261 146.816 42.2181 146.816 41.5151C146.816 39.8831 146.841 37.4257 146.891 34.1398C146.945 30.857 146.97 28.3964 146.97 26.7644C146.97 24.5424 145.969 23.4314 143.973 23.4314C143.301 23.4314 142.51 23.7359 141.606 24.3447C140.615 25.0101 140.119 25.7005 140.119 26.4224V33.4556C140.119 34.3689 140.137 35.7404 140.169 37.5701C140.203 39.4029 140.219 40.7744 140.219 41.6877C140.219 42.3907 139.959 42.7768 139.441 42.8552C138.92 42.9305 137.457 42.9682 135.06 42.9682C133.682 42.9682 132.69 42.8929 132.087 42.7391C131.482 42.5884 131.18 42.2558 131.18 41.7442C131.18 40.244 131.19 37.9906 131.206 34.9809C131.221 31.9711 131.231 29.7177 131.231 28.2175C131.231 22.0097 131.171 16.8752 131.055 12.811C131.005 11.3861 130.961 9.9644 130.929 8.53955C130.845 6.88873 130.694 5.47329 130.474 4.29638C130.424 4.04844 130.399 3.86955 130.399 3.75657C130.399 3.47097 130.524 3.27953 130.779 3.18537C131.297 3.0159 132.062 2.91233 133.07 2.87153C134.413 2.81504 135.191 2.76796 135.411 2.7303L139.968 2.13086C140.238 2.13086 140.373 2.33172 140.373 2.7303C140.373 3.33916 140.338 4.16457 140.269 5.20653C140.203 6.42424 140.169 7.24965 140.169 7.68589C140.068 11.9761 140.018 15.3656 140.018 17.8513C140.018 18.231 140.103 18.4225 140.269 18.4225C140.304 18.4225 140.731 18.0898 141.556 17.4245C142.529 16.6461 143.461 16.0279 144.349 15.5728C145.677 14.9074 146.96 14.5779 148.203 14.5779C150.35 14.5779 152.148 15.2119 153.592 16.4861C155.152 17.8513 155.933 19.7218 155.933 22.0945Z" fill="white"/>
<path d="M153.592 16.4861C152.148 15.2119 150.35 14.5779 148.203 14.5779C146.96 14.5779 145.677 14.9074 144.349 15.5728C143.461 16.0279 142.529 16.6461 141.556 17.4245C140.731 18.0898 140.304 18.4225 140.269 18.4225C140.103 18.4225 140.018 18.231 140.018 17.8513C140.018 15.3656 140.068 11.9761 140.169 7.68589C140.169 7.24965 140.203 6.42424 140.269 5.20653C140.338 4.16457 140.373 3.33916 140.373 2.7303C140.373 2.33172 140.238 2.13086 139.968 2.13086L135.411 2.7303C135.191 2.76796 134.413 2.81504 133.07 2.87153C132.062 2.91233 131.297 3.0159 130.779 3.18537C130.524 3.27953 130.399 3.47097 130.399 3.75657C130.399 3.86955 130.424 4.04844 130.474 4.29638C130.694 5.47329 130.845 6.88873 130.929 8.53955C130.961 9.9644 131.005 11.3861 131.055 12.811C131.171 16.8752 131.231 22.0097 131.231 28.2175C131.231 29.7177 131.221 31.9711 131.206 34.9809C131.19 37.9906 131.18 40.244 131.18 41.7442C131.18 42.2558 131.482 42.5884 132.087 42.7391C132.69 42.8929 133.682 42.9682 135.06 42.9682C137.457 42.9682 138.92 42.9305 139.441 42.8552C139.959 42.7768 140.219 42.3907 140.219 41.6877C140.219 40.7744 140.203 39.4029 140.169 37.5701C140.137 35.7404 140.119 34.3689 140.119 33.4556V26.4224C140.119 25.7005 140.615 25.0101 141.606 24.3447C142.51 23.7359 143.301 23.4314 143.973 23.4314C145.969 23.4314 146.97 24.5424 146.97 26.7644C146.97 28.3964 146.945 30.857 146.891 34.1398C146.841 37.4257 146.816 39.8831 146.816 41.5151C146.816 42.2181 147.095 42.6261 147.648 42.7391C148.37 42.8929 149.653 42.9682 151.502 42.9682C153.35 42.9682 154.64 42.9305 155.177 42.8552C155.648 42.7768 155.883 42.4095 155.883 41.7442L155.933 22.0945C155.933 19.7218 155.152 17.8513 153.592 16.4861Z" fill="white"/>
<path d="M184.411 16.3701C184.647 17.2457 184.763 19.2668 184.763 22.4367C184.763 26.118 184.662 28.3589 184.462 29.1561C184.211 30.107 182.371 33.5436 178.947 39.4658C178.42 40.3791 177.071 42.4819 174.899 45.7709C174.864 45.8243 174.827 45.8776 174.792 45.931C172.325 49.65 170.922 51.6147 170.587 51.825C170.185 52.1106 167.608 52.2518 162.857 52.2518C162.135 52.2518 161.648 52.1576 161.397 51.9662C161.178 51.1879 160.901 50.2683 160.566 49.2044C160.296 48.539 160.029 47.8674 159.759 47.1832C159.53 46.5932 159.367 46.1224 159.276 45.7709C159.213 45.5324 159.181 45.3472 159.181 45.2186C159.181 44.8576 159.323 44.6756 159.608 44.6756C164.275 44.6756 166.61 43.4705 166.61 41.0601C166.61 40.8499 165.468 38.9637 163.186 35.3921C160.817 31.7296 159.517 29.4134 159.282 28.4436C159.147 27.8944 159.081 25.9297 159.081 22.5496C159.081 21.8655 159.097 20.8361 159.131 19.4614C159.163 18.0837 159.181 17.0542 159.181 16.3701C159.181 15.8773 159.458 15.6294 160.013 15.6294C160.867 15.6294 162.166 15.6576 163.902 15.7141C165.64 15.7738 166.937 15.802 167.793 15.802C168.145 15.802 168.321 16.097 168.321 16.6839C168.321 17.2143 168.296 18.0177 168.245 19.0911C168.195 20.1644 168.17 20.9647 168.17 21.4951C168.17 23.8898 168.204 25.5123 168.27 26.366C168.321 27.0313 168.826 28.2647 169.783 30.0693C170.791 31.9461 171.519 32.8877 171.974 32.8877C172.36 32.8877 173.013 31.9587 173.935 30.0976C174.792 28.3306 175.253 27.1443 175.322 26.5355C175.489 24.8658 175.574 23.0549 175.574 21.0966C175.574 20.585 175.53 19.8067 175.448 18.7616C175.363 17.7196 175.322 16.9318 175.322 16.3983C175.322 16.0374 175.498 15.8585 175.85 15.8585C176.707 15.8585 177.987 15.8208 179.691 15.7455C181.395 15.6702 182.673 15.6294 183.529 15.6294C183.966 15.6294 184.261 15.8773 184.411 16.3701Z" fill="white"/>
<path d="M184.411 16.3701C184.261 15.8773 183.966 15.6294 183.529 15.6294C182.673 15.6294 181.395 15.6702 179.691 15.7455C177.987 15.8208 176.707 15.8585 175.85 15.8585C175.498 15.8585 175.322 16.0374 175.322 16.3983C175.322 16.9318 175.363 17.7196 175.448 18.7616C175.53 19.8067 175.574 20.585 175.574 21.0966C175.574 23.0549 175.489 24.8658 175.322 26.5355C175.253 27.1443 174.792 28.3306 173.935 30.0976C173.013 31.9587 172.36 32.8877 171.974 32.8877C171.519 32.8877 170.791 31.9461 169.783 30.0693C168.826 28.2647 168.321 27.0313 168.27 26.366C168.204 25.5123 168.17 23.8898 168.17 21.4951C168.17 20.9647 168.195 20.1644 168.245 19.0911C168.296 18.0177 168.321 17.2143 168.321 16.6839C168.321 16.097 168.145 15.802 167.793 15.802C166.937 15.802 165.64 15.7738 163.902 15.7141C162.166 15.6576 160.867 15.6294 160.013 15.6294C159.458 15.6294 159.181 15.8773 159.181 16.3701C159.181 17.0542 159.163 18.0837 159.131 19.4614C159.097 20.8361 159.081 21.8655 159.081 22.5496C159.081 25.9297 159.147 27.8944 159.282 28.4436C159.517 29.4134 160.817 31.7296 163.186 35.3921C165.468 38.9637 166.61 40.8499 166.61 41.0601C166.61 43.4705 164.275 44.6756 159.608 44.6756C159.323 44.6756 159.181 44.8576 159.181 45.2186C159.181 45.3472 159.213 45.5324 159.276 45.7709C159.367 46.1224 159.53 46.5932 159.759 47.1832C160.029 47.8674 160.296 48.539 160.566 49.2044C160.901 50.2683 161.178 51.1879 161.397 51.9662C161.648 52.1576 162.135 52.2518 162.857 52.2518C167.608 52.2518 170.185 52.1106 170.587 51.825C170.922 51.6147 172.325 49.65 174.792 45.931C174.827 45.8776 174.864 45.8243 174.899 45.7709C177.071 42.4819 178.42 40.3791 178.947 39.4658C182.371 33.5436 184.211 30.107 184.462 29.1561C184.662 28.3589 184.763 26.118 184.763 22.4367C184.763 19.2668 184.647 17.2457 184.411 16.3701Z" fill="white"/>
<path d="M197.028 23.4315C197.028 24.0968 197.455 24.9411 198.311 25.9673C199.604 27.5052 200.402 28.5409 200.703 29.0712C201.56 30.5149 201.987 32.0622 201.987 33.713C201.987 34.6828 201.82 35.7059 201.484 36.7887C201.098 37.9844 200.612 38.8569 200.022 39.4093C198.782 40.6238 197.329 41.6501 195.666 42.4849C193.871 43.3574 192.217 43.7937 190.707 43.7937C190.371 43.7937 189.621 42.7642 188.454 40.7054C187.286 38.6435 186.702 37.3881 186.702 36.9299C186.702 36.7604 186.797 36.6568 186.979 36.6192C188.155 36.3713 189.339 36.1233 190.531 35.8785C192.006 35.345 192.747 34.4725 192.747 33.2579C192.747 32.4231 192.317 31.4533 191.463 30.3517C189.935 28.4341 189.138 27.4204 189.069 27.3043C188.215 25.9391 187.785 24.4954 187.785 22.9764C187.785 20.1298 189.062 17.7101 191.614 15.7141C193.896 13.9503 196.337 13.0684 198.939 13.0684C199.209 13.0684 199.871 14.0884 200.929 16.1283C201.987 18.1683 202.517 19.3609 202.517 19.703C202.517 19.8913 202.391 20.1487 202.137 20.4719C201.67 20.3401 201.199 20.2711 200.728 20.2711C199.736 20.2711 198.908 20.519 198.236 21.0117C197.43 21.5829 197.028 22.3895 197.028 23.4315Z" fill="white"/>
<path d="M198.236 21.0117C198.908 20.519 199.736 20.2711 200.728 20.2711C201.199 20.2711 201.67 20.3401 202.137 20.4719C202.391 20.1487 202.517 19.8913 202.517 19.703C202.517 19.3609 201.987 18.1683 200.929 16.1283C199.871 14.0884 199.209 13.0684 198.939 13.0684C196.337 13.0684 193.896 13.9503 191.614 15.7141C189.062 17.7101 187.785 20.1298 187.785 22.9764C187.785 24.4954 188.215 25.9391 189.069 27.3043C189.138 27.4204 189.935 28.4341 191.463 30.3517C192.317 31.4533 192.747 32.4231 192.747 33.2579C192.747 34.4725 192.006 35.345 190.531 35.8785C189.339 36.1233 188.155 36.3713 186.979 36.6192C186.797 36.6568 186.702 36.7604 186.702 36.9299C186.702 37.3881 187.286 38.6435 188.454 40.7054C189.621 42.7642 190.371 43.7937 190.707 43.7937C192.217 43.7937 193.871 43.3574 195.666 42.4849C197.329 41.6501 198.782 40.6238 200.022 39.4093C200.612 38.8569 201.098 37.9844 201.484 36.7887C201.82 35.7059 201.987 34.6828 201.987 33.713C201.987 32.0622 201.56 30.5149 200.703 29.0712C200.402 28.5409 199.604 27.5052 198.311 25.9673C197.455 24.9411 197.028 24.0968 197.028 23.4315C197.028 22.3895 197.43 21.5829 198.236 21.0117Z" fill="white"/>
<path d="M214.578 4.89578C215.601 5.84358 216.113 7.04874 216.113 8.51126C216.113 11.8129 214.468 13.4668 211.179 13.4668C209.767 13.4668 208.602 13.0494 207.68 12.2115C206.672 11.3013 206.167 10.0679 206.167 8.51126C206.167 6.95459 206.688 5.81534 207.73 4.86439C208.684 3.99191 209.836 3.55566 211.179 3.55566C212.522 3.55566 213.621 4.00132 214.578 4.89578Z" fill="white"/>
<path d="M216.063 16.2571C216.063 16.3324 216.047 16.5144 216.012 16.7969C215.642 20.5002 215.46 24.7905 215.46 29.6708C215.46 31.0548 215.485 33.1199 215.535 35.8629C215.586 38.6059 215.611 40.6616 215.611 42.0268C215.611 42.4285 215.4 42.6639 214.98 42.7392C214.409 42.8553 213.125 42.9118 211.129 42.9118C209.133 42.9118 207.821 42.8553 207.25 42.7392C206.879 42.6639 206.654 42.5415 206.569 42.3689C206.537 42.2936 206.519 42.0111 206.519 41.5152C206.519 40.2065 206.544 38.2356 206.594 35.6055C206.647 32.9787 206.672 30.9983 206.672 29.6708C206.672 24.2789 206.487 19.9887 206.117 16.7969C206.082 16.4956 206.067 16.2947 206.067 16.2006C206.067 15.8208 206.293 15.6294 206.748 15.6294C207.203 15.6294 207.934 15.6859 208.901 15.802C209.864 15.915 210.589 15.9715 211.079 15.9715C211.568 15.9715 212.293 15.9244 213.269 15.8303C214.242 15.7361 214.974 15.6859 215.46 15.6859C215.862 15.6859 216.063 15.8773 216.063 16.2571Z" fill="white"/>
<path d="M214.578 4.89578C213.621 4.00132 212.488 3.55566 211.179 3.55566C209.87 3.55566 208.684 3.99191 207.73 4.86439C206.688 5.81534 206.167 7.02991 206.167 8.51126C206.167 10.0679 206.672 11.3013 207.68 12.2115C208.602 13.0494 209.767 13.4668 211.179 13.4668C214.468 13.4668 216.113 11.8129 216.113 8.51126C216.113 7.04874 215.601 5.84358 214.578 4.89578ZM216.063 16.2569C216.063 15.8772 215.862 15.6857 215.46 15.6857C214.974 15.6857 214.242 15.7359 213.269 15.8301C212.293 15.9242 211.565 15.9713 211.079 15.9713C210.592 15.9713 209.864 15.9148 208.901 15.8018C207.934 15.6857 207.215 15.6292 206.748 15.6292C206.28 15.6292 206.067 15.8207 206.067 16.2004C206.067 16.2946 206.082 16.4954 206.117 16.7967C206.487 19.9885 206.672 24.2788 206.672 29.6706C206.672 30.9982 206.647 32.9785 206.594 35.6054C206.544 38.2354 206.519 40.2063 206.519 41.5151C206.519 42.0109 206.537 42.2934 206.569 42.3687C206.654 42.5413 206.879 42.6637 207.25 42.739C207.821 42.8552 209.114 42.9117 211.129 42.9117C213.144 42.9117 214.409 42.8552 214.98 42.739C215.4 42.6637 215.611 42.4283 215.611 42.0266C215.611 40.6614 215.586 38.6057 215.535 35.8627C215.485 33.1197 215.46 31.0546 215.46 29.6706C215.46 24.7903 215.642 20.5001 216.012 16.7967C216.047 16.5143 216.063 16.3322 216.063 16.2569Z" fill="white"/>
<path d="M244.541 28.7291C244.541 33.057 243.37 36.569 241.029 39.2649C238.687 41.9608 235.612 43.3072 231.799 43.3072C227.985 43.3072 225.067 41.9796 222.685 39.3214C220.299 36.6631 219.11 33.2453 219.11 29.0712C219.11 24.668 220.252 21.0933 222.534 18.3503C224.816 15.6073 227.907 14.2358 231.802 14.2358C235.696 14.2358 238.669 15.5791 241.019 18.2656C243.37 20.9521 244.544 24.442 244.544 28.7323L244.541 28.7291ZM236.28 28.7291C236.28 27.229 235.869 25.9045 235.047 24.7559C234.225 23.6072 233.157 23.0329 231.849 23.0329C230.54 23.0329 229.432 23.6229 228.575 24.7998C227.769 25.9014 227.367 27.2101 227.367 28.7291C227.367 30.2481 227.769 31.5851 228.575 32.6867C229.432 33.8636 230.521 34.4536 231.849 34.4536C233.176 34.4536 234.24 33.8668 235.097 32.6867C235.885 31.5851 236.28 30.267 236.28 28.7291Z" fill="white"/>
<path d="M79.5941 87.3179C79.8043 88.9594 50.9966 103.961 25.8044 89.7377C11.8195 81.8414 -1.04491 65.0413 0.0660949 44.7764C1.21476 23.7458 16.7343 11.5153 19.2702 9.58202C40.4766 -6.56838 65.6217 2.41383 67.5895 3.1545C64.2408 2.95364 39.6575 1.8646 24.1159 20.3155C21.646 23.2468 12.8584 33.6821 13.5394 48.5206C14.4621 68.6191 31.9934 80.0368 34.3723 81.5338C54.8695 94.4202 79.3995 85.8146 79.5909 87.3148L79.5941 87.3179Z" fill="white"/>
<path d="M93.2305 55.8171C89.072 72.6486 75.4481 80.1777 73.2323 81.3546C54.7062 91.1936 37.1403 80.1149 35.772 79.2142C39.3592 79.823 56.5265 82.3243 70.2634 69.962C73.1821 67.332 80.2875 60.939 81.9509 50.4441C84.3173 35.5051 73.7878 24.0467 71.3901 21.5987C58.2651 8.21017 39.7578 10.79 39.8865 9.34628C40.0308 7.71116 64.0712 0.238536 80.8462 15.5572C90.1642 24.0655 97.2382 39.604 93.2305 55.8171Z" fill="white"/>
<path d="M63.255 46.0817C61.8176 43.7185 60.2515 42.3784 59.0872 41.5938C56.5011 39.8488 55.5878 39.8708 54.3513 38.3486C52.5278 36.0984 53.7048 34.3534 52.5404 30.5496C51.0183 25.5815 47.4279 23.3877 47.8987 22.8636C48.3882 22.3175 52.5153 24.2006 55.5596 27.8129C58.3904 31.171 58.2649 33.6222 60.0475 33.9046C60.9389 34.0458 61.8019 33.5688 67.0023 28.4469C70.2004 25.3022 71.0132 24.3606 71.3051 24.5364C71.7037 24.778 71.0697 27.1036 66.1204 36.8014C65.1632 39.8928 64.206 42.9873 63.2519 46.0786L63.255 46.0817Z" fill="white"/>
<path d="M61.1118 27.1787C63.301 27.1787 65.0756 25.7736 65.0756 24.0403C65.0756 22.307 63.301 20.9019 61.1118 20.9019C58.9226 20.9019 57.1479 22.307 57.1479 24.0403C57.1479 25.7736 58.9226 27.1787 61.1118 27.1787Z" fill="white"/>
<path d="M71.3051 67.395C70.69 67.7151 67.743 58.9714 58.9742 51.9068C56.4791 49.895 45.3942 40.7904 35.6054 44.544C31.9585 45.9438 27.2258 49.6126 27.072 54.5556C26.981 57.5026 28.5659 60.8042 31.2367 62.2668C37.501 65.6939 46.3608 57.0758 46.9414 56.4983C49.2984 54.1539 50.6636 51.7185 51.4294 50.0865C52.2799 50.3564 53.4348 50.8303 54.6337 51.6902C56.4101 52.9644 57.4207 54.4709 57.9416 55.3904C56.9405 57.1825 55.208 59.8094 52.3897 62.2668C50.8645 63.5975 39.9584 72.8653 29.9531 68.0352C25.2015 65.741 21.2219 60.5406 20.9803 54.5556C20.6727 46.9135 26.5824 40.9693 31.7608 38.6343C42.9305 33.594 56.1684 42.8744 62.326 49.4462C69.739 57.3614 71.9328 67.0654 71.302 67.395H71.3051Z" fill="white"/>
<path d="M139.34 84.6875C139.306 81.9162 139.29 77.9398 139.29 72.7551C139.29 69.0549 139.365 65.0283 139.516 60.6753H130.408C130.418 61.0613 130.421 61.4536 130.427 61.8491C130.408 61.1492 130.402 64.7835 130.402 72.7551C130.402 74.4279 130.383 76.9481 130.352 80.3188C130.317 83.6863 130.302 86.2159 130.302 87.9075V89.1315C130.352 89.5489 130.562 89.8063 130.929 89.9004C131.485 90.0511 132.768 90.1264 134.783 90.1264C136.798 90.1264 138.107 90.0511 138.863 89.9004C139.281 89.8251 139.491 89.5866 139.491 89.188C139.491 88.6576 139.466 87.9075 139.416 86.9377C139.365 85.8738 139.34 85.1237 139.34 84.6875Z" fill="white"/>
<path d="M153.818 63.4151C153.818 63.0353 153.617 62.847 153.215 62.847C152.729 62.847 151.998 62.8941 151.025 62.9882C150.052 63.0855 149.321 63.1326 148.834 63.1326C148.348 63.1326 147.62 63.073 146.656 62.96C145.689 62.847 144.974 62.7905 144.503 62.7905C144.032 62.7905 143.822 62.9788 143.822 63.3586C143.822 63.4527 143.841 63.6536 143.872 63.958C144.243 67.1467 144.428 71.4369 144.428 76.8288C144.428 78.1563 144.403 80.1367 144.352 82.7667C144.302 85.3967 144.277 87.3645 144.277 88.6763C144.277 89.1691 144.293 89.4547 144.327 89.53C144.409 89.6995 144.638 89.825 145.005 89.9003C145.576 90.0133 146.869 90.0698 148.884 90.0698C150.899 90.0698 152.167 90.0133 152.735 89.9003C153.156 89.825 153.366 89.5865 153.366 89.1879C153.366 87.8196 153.341 85.767 153.291 83.0209C153.24 80.2779 153.215 78.2159 153.215 76.8288C153.215 71.9485 153.401 67.6582 153.768 63.958C153.802 63.6724 153.818 63.4935 153.818 63.4151Z" fill="white"/>
<path d="M183.077 83.5359C183.062 81.0785 183.052 79.23 183.052 77.9966V68.9139C183.052 66.5789 182.255 64.7555 180.661 63.4436C179.236 62.3044 177.456 61.7363 175.322 61.7363C173.828 61.7363 172.087 62.3954 170.097 63.7167C168.195 64.9783 167.285 65.6374 167.373 65.6908C167.197 65.65 167.062 65.0097 166.965 63.7732C166.864 62.4895 166.72 61.8493 166.535 61.8493C166.199 61.8493 164.696 62.1443 162.028 62.7312C160.264 63.0168 158.855 63.2271 157.797 63.3589C157.546 63.4719 157.421 63.6822 157.421 63.9866C157.421 64.0996 157.436 64.2408 157.471 64.4134C158.124 67.1093 158.453 70.819 158.453 75.5486C158.453 77.0488 158.444 79.2865 158.428 82.268C158.409 85.2495 158.403 87.4778 158.403 88.9591C158.403 89.4927 158.663 89.8065 159.181 89.9007C159.771 90.0136 161.046 90.0701 163.01 90.0701C164.824 90.0701 166.023 90.0325 166.61 89.9571C167.131 89.8818 167.391 89.5303 167.391 88.9026V73.5243C167.391 72.8244 167.862 72.112 168.801 71.3902C169.673 70.7436 170.439 70.4204 171.092 70.4204C173.091 70.4204 174.089 71.7228 174.089 74.3215C174.089 75.0245 174.105 76.0758 174.139 77.4693C174.174 78.8659 174.189 79.9141 174.189 80.6172C174.189 81.5273 174.164 82.8862 174.114 84.6877C174.064 86.4923 174.039 87.8387 174.039 88.7332C174.039 89.3954 174.29 89.7845 174.795 89.9007C175.297 90.0136 176.609 90.0701 178.721 90.0701C180.702 90.0701 181.929 90.0325 182.399 89.9571C182.87 89.8818 183.102 89.5868 183.102 89.0752C183.102 87.8387 183.096 85.9933 183.077 83.5359Z" fill="white"/>
<path d="M208.737 77.7108C209.829 77.4472 210.376 76.355 210.376 74.4375C210.376 70.7718 209.249 67.6114 206.999 64.9531C204.751 62.2948 202.015 60.9673 198.792 60.9673C194.963 60.9673 191.893 62.411 189.574 65.2952C187.327 68.0853 186.2 71.6662 186.2 76.0318C186.2 80.3973 187.459 84.0913 189.979 86.7684C192.43 89.4078 195.653 90.7259 199.648 90.7259C203.961 90.7259 207.143 89.4831 209.189 86.9943C209.443 86.6931 209.569 86.4734 209.569 86.3415C209.569 85.8645 209.152 84.7566 208.323 83.0085C207.491 81.2636 206.898 80.2938 206.547 80.1023C205.91 80.5605 205.272 81.0156 204.632 81.4707C203.123 82.3808 201.619 82.8359 200.125 82.8359C198.883 82.8359 197.775 82.5723 196.802 82.0387C195.609 81.3954 194.897 80.4538 194.661 79.2204C198.591 78.8783 201.544 78.5865 203.524 78.3385C206.817 77.9588 208.552 77.7485 208.737 77.7108ZM200.731 73.1538C198.111 73.5932 196.18 73.8098 194.938 73.8098C194.47 73.8098 194.235 73.5556 194.235 73.0409C194.235 71.7886 194.552 70.6964 195.192 69.7675C195.879 68.76 196.752 68.2579 197.809 68.2579C198.867 68.2579 199.714 68.7035 200.452 69.5948C201.193 70.4893 201.56 71.5218 201.56 72.6988C201.56 72.909 201.284 73.0597 200.731 73.1538Z" fill="white"/>
<path d="M139.984 49.9734C139.805 52.9737 139.66 55.8328 139.554 58.5476H247.902C248.288 58.5319 248.869 58.444 249.286 58.0266C249.829 57.4868 249.782 56.7022 249.769 55.8736C249.747 54.4331 249.791 50.463 249.857 49.0287C249.87 48.7274 249.907 48.0683 249.484 47.585C249.17 47.2272 248.734 47.1143 248.483 47.0703H177.155C176.907 47.4061 176.644 47.7608 176.368 48.1311C172.57 53.1997 172.068 53.5794 171.629 53.8274C171.054 54.182 170.386 54.4833 162.844 54.4833C161.677 54.4833 160.851 54.2981 160.249 53.8964L159.74 53.5575L159.568 53.0114C159.364 52.3617 159.097 51.5771 158.777 50.6795C158.516 50.1052 158.253 49.5214 157.992 48.9314C157.628 48.1123 157.421 47.5285 157.333 47.0703H111.189C111.195 47.221 111.204 47.3747 111.211 47.5285C111.298 49.2955 111.339 50.5854 111.339 51.4735C111.339 52.9298 110.222 53.9498 108.621 53.9498L103.484 53.9749H103.481C101.742 53.9749 101.114 53.8839 100.738 53.7928C99.4163 53.4759 98.594 52.5029 98.594 51.2476L98.6034 47.0703H97.709C97.0813 49.9859 96.8459 53.4539 97.709 57.1478C97.7937 57.5119 97.8879 57.8697 97.9883 58.2149C98.3461 58.3279 98.8294 58.4566 99.4131 58.5444C100.844 58.7578 101.949 58.5727 102.153 58.5444C103.421 58.3655 111.072 58.3185 130.44 58.5444C130.082 52.4088 129.869 50.2182 129.828 49.9702C129.796 49.7882 129.778 49.6407 129.778 49.5434C129.778 49.1731 129.997 48.9879 130.433 48.9879H139.431C139.475 48.9848 139.742 48.9691 139.93 49.1636C140.122 49.3614 140.153 49.694 139.987 49.9734H139.984ZM145.529 50.8835C146.487 50.1115 147.638 49.7223 148.982 49.7223C150.325 49.7223 151.426 50.1209 152.384 50.9086C153.407 51.7497 153.925 52.8199 153.925 54.113C153.925 57.0411 152.274 58.5036 148.982 58.5036C147.569 58.5036 146.402 58.1333 145.479 57.3926C144.472 56.5829 143.963 55.4907 143.963 54.1098C143.963 52.7289 144.484 51.7215 145.529 50.8804V50.8835Z" fill="white"/>
</g>
<defs>
<clipPath id="clip0_85_224">
<rect width="249.863" height="100" fill="white"/>
</clipPath>
</defs>
</svg>
