<svg width="162" height="74" viewBox="0 0 162 74" fill="none" xmlns="http://www.w3.org/2000/svg">
<g clip-path="url(#clip0_742_184)">
<path d="M80.6267 12.479C79.2105 10.679 77.3222 9.77802 74.9618 9.77802C74.1112 9.77802 73.1671 10.1214 72.1293 10.808C71.1506 11.451 70.6805 11.7944 70.7212 11.8318C70.6398 11.8048 70.5707 11.4802 70.5116 10.8642C70.4526 10.215 70.2105 9.89038 69.7852 9.89038C69.2643 9.89038 68.4199 9.99859 67.2559 10.2129C66.0574 10.4272 65.2476 10.627 64.8223 10.8164C64.6921 10.8788 64.627 11.0057 64.627 11.1951C64.627 11.2825 64.6371 11.3886 64.6595 11.5155C65.04 13.5298 65.2313 16.0019 65.2313 18.9359L65.2048 30.3474L65.1987 33.4729C65.1987 33.8516 65.3615 34.0847 65.6871 34.1721C65.9048 34.2345 66.3891 34.2657 67.142 34.2657L70.471 34.247C70.8311 34.247 71.0102 34.0452 71.0102 33.6435C71.0102 33.0026 70.9837 32.035 70.9288 30.7449C70.9227 30.6096 70.9186 30.4765 70.9125 30.3474C70.8677 29.255 70.8474 28.4206 70.8474 27.8462C70.8474 27.4696 70.9186 27.2802 71.059 27.2802C70.9715 27.2802 71.407 27.5195 72.3654 27.9981C73.3238 28.4767 74.2211 28.716 75.0595 28.716C77.3547 28.716 79.2105 27.7963 80.6267 25.9589C81.9982 24.1839 82.6839 21.9511 82.6839 19.2564C82.6839 16.5617 81.9982 14.2144 80.6267 12.479ZM73.7531 23.0332C72.8497 23.0332 72.1415 22.6482 71.6308 21.8804C71.1526 21.175 70.9125 20.2885 70.9125 19.2189C70.9125 18.1494 71.1404 17.292 71.5982 16.5741C72.1212 15.7813 72.8171 15.386 73.688 15.386C74.5589 15.386 75.2487 15.7813 75.8266 16.5741C76.3597 17.3295 76.6263 18.2118 76.6263 19.2189C76.6263 21.7618 75.6679 23.0332 73.7531 23.0332Z" fill="white"/>
<path d="M101.098 14.6493L101.066 27.6777C101.066 28.1188 100.913 28.3623 100.608 28.4143C100.26 28.4643 99.4663 28.4892 98.2251 28.4892C96.9839 28.4892 96.1943 28.4393 95.7263 28.3373C95.3682 28.2624 95.1871 27.9919 95.1871 27.5258C95.1871 26.4437 95.2034 24.8144 95.2359 22.6357C95.2705 20.4591 95.2868 18.8277 95.2868 17.7457C95.2868 16.2724 94.6377 15.5358 93.3436 15.5358C92.9081 15.5358 92.3953 15.7376 91.8093 16.1413C91.1663 16.5825 90.8448 17.0403 90.8448 17.5189V22.1821C90.8448 22.7876 90.857 23.697 90.8774 24.9101C90.8997 26.1253 90.9099 27.0347 90.9099 27.6402C90.9099 28.1063 90.741 28.3623 90.4053 28.4143C90.0675 28.4643 89.1193 28.4892 87.5647 28.4892C86.6714 28.4892 86.0284 28.4393 85.6377 28.3373C85.245 28.2374 85.0496 28.0169 85.0496 27.6777C85.0496 26.683 85.0557 25.189 85.0659 23.1934C85.0761 21.1978 85.0822 19.7038 85.0822 18.7091C85.0822 14.5932 85.0435 11.1888 84.9682 8.49411C84.9357 7.5494 84.9072 6.60676 84.8869 5.66204C84.8319 4.56751 84.7342 3.62903 84.5918 2.8487C84.5593 2.68432 84.543 2.56571 84.543 2.4908C84.543 2.30144 84.6244 2.1745 84.7892 2.11208C85.1249 1.99971 85.6214 1.93104 86.2746 1.90399C87.1455 1.86653 87.6501 1.83532 87.7926 1.81035L90.7471 1.4129C90.9221 1.4129 91.0096 1.54608 91.0096 1.81035C91.0096 2.21404 90.9872 2.76131 90.9425 3.45216C90.8997 4.25954 90.8774 4.80681 90.8774 5.09605C90.8122 7.9406 90.7797 10.1879 90.7797 11.836C90.7797 12.0878 90.8346 12.2147 90.9425 12.2147C90.9649 12.2147 91.2416 11.9941 91.7768 11.553C92.4075 11.0369 93.0119 10.627 93.5877 10.3253C94.4485 9.88414 95.2807 9.66564 96.0865 9.66564C97.4783 9.66564 98.6443 10.086 99.5803 10.9308C100.592 11.836 101.098 13.0762 101.098 14.6493Z" fill="white"/>
<path d="M99.5803 10.9308C98.6443 10.086 97.4783 9.66564 96.0865 9.66564C95.2807 9.66564 94.4485 9.88414 93.5877 10.3253C93.0119 10.627 92.4075 11.0369 91.7768 11.553C91.2416 11.9941 90.9649 12.2147 90.9425 12.2147C90.8346 12.2147 90.7797 12.0878 90.7797 11.836C90.7797 10.1879 90.8122 7.9406 90.8774 5.09605C90.8774 4.80681 90.8997 4.25954 90.9425 3.45216C90.9872 2.76131 91.0096 2.21404 91.0096 1.81035C91.0096 1.54608 90.9221 1.4129 90.7471 1.4129L87.7926 1.81035C87.6501 1.83532 87.1455 1.86653 86.2746 1.90399C85.6214 1.93104 85.1249 1.99971 84.7892 2.11208C84.6244 2.1745 84.543 2.30144 84.543 2.4908C84.543 2.56571 84.5593 2.68432 84.5918 2.8487C84.7342 3.62903 84.8319 4.56751 84.8869 5.66204C84.9072 6.60676 84.9357 7.5494 84.9682 8.49411C85.0435 11.1888 85.0822 14.5932 85.0822 18.7091C85.0822 19.7038 85.0761 21.1978 85.0659 23.1934C85.0557 25.189 85.0496 26.683 85.0496 27.6777C85.0496 28.0169 85.245 28.2374 85.6377 28.3373C86.0284 28.4393 86.6714 28.4892 87.5647 28.4892C89.1193 28.4892 90.0675 28.4643 90.4053 28.4143C90.741 28.3623 90.9099 28.1063 90.9099 27.6402C90.9099 27.0347 90.8997 26.1253 90.8774 24.9101C90.857 23.697 90.8448 22.7876 90.8448 22.1821V17.5189C90.8448 17.0403 91.1663 16.5825 91.8093 16.1413C92.3953 15.7376 92.9081 15.5358 93.3436 15.5358C94.6377 15.5358 95.2868 16.2724 95.2868 17.7457C95.2868 18.8277 95.2705 20.4591 95.2359 22.6357C95.2034 24.8144 95.1871 26.4437 95.1871 27.5258C95.1871 27.9919 95.3682 28.2624 95.7263 28.3373C96.1943 28.4393 97.0266 28.4892 98.2251 28.4892C99.4236 28.4892 100.26 28.4643 100.608 28.4143C100.913 28.3623 101.066 28.1188 101.066 27.6777L101.098 14.6493C101.098 13.0762 100.592 11.836 99.5803 10.9308Z" fill="white"/>
<path d="M119.564 10.8538C119.716 11.4344 119.792 12.7745 119.792 14.8761C119.792 17.317 119.726 18.8028 119.596 19.3313C119.433 19.9618 118.241 22.2404 116.021 26.167C115.679 26.7725 114.804 28.1667 113.396 30.3474C113.374 30.3828 113.349 30.4182 113.327 30.4536C111.728 32.9194 110.818 34.222 110.6 34.3614C110.34 34.5508 108.669 34.6444 105.589 34.6444C105.12 34.6444 104.805 34.582 104.642 34.4551C104.5 33.939 104.321 33.3293 104.103 32.6239C103.928 32.1828 103.755 31.7375 103.58 31.2838C103.432 30.8926 103.326 30.5805 103.267 30.3474C103.226 30.1893 103.206 30.0665 103.206 29.9812C103.206 29.7419 103.297 29.6212 103.482 29.6212C106.508 29.6212 108.022 28.8222 108.022 27.224C108.022 27.0846 107.281 25.834 105.802 23.466C104.266 21.0376 103.423 19.5019 103.271 18.8589C103.183 18.4948 103.141 17.1922 103.141 14.9511C103.141 14.4974 103.151 13.8149 103.173 12.9035C103.194 11.99 103.206 11.3074 103.206 10.8538C103.206 10.5271 103.385 10.3627 103.745 10.3627C104.298 10.3627 105.141 10.3815 106.266 10.4189C107.393 10.4585 108.234 10.4772 108.789 10.4772C109.017 10.4772 109.131 10.6728 109.131 11.0619C109.131 11.4136 109.115 11.9463 109.082 12.6579C109.05 13.3696 109.033 13.9002 109.033 14.2519C109.033 15.8396 109.056 16.9154 109.099 17.4814C109.131 17.9225 109.459 18.7403 110.079 19.9368C110.733 21.1812 111.205 21.8055 111.5 21.8055C111.75 21.8055 112.173 21.1895 112.771 19.9556C113.327 18.784 113.626 17.9975 113.671 17.5938C113.779 16.4867 113.834 15.2861 113.834 13.9876C113.834 13.6484 113.805 13.1324 113.752 12.4394C113.697 11.7486 113.671 11.2263 113.671 10.8725C113.671 10.6332 113.785 10.5146 114.013 10.5146C114.568 10.5146 115.398 10.4897 116.503 10.4397C117.608 10.3898 118.436 10.3627 118.992 10.3627C119.275 10.3627 119.466 10.5271 119.564 10.8538Z" fill="white"/>
<path d="M119.564 10.8538C119.466 10.5271 119.275 10.3627 118.992 10.3627C118.436 10.3627 117.608 10.3898 116.503 10.4397C115.398 10.4897 114.568 10.5146 114.013 10.5146C113.785 10.5146 113.671 10.6332 113.671 10.8725C113.671 11.2263 113.697 11.7486 113.752 12.4394C113.805 13.1324 113.834 13.6484 113.834 13.9876C113.834 15.2861 113.779 16.4867 113.671 17.5938C113.626 17.9975 113.327 18.784 112.771 19.9556C112.173 21.1895 111.75 21.8055 111.5 21.8055C111.205 21.8055 110.733 21.1812 110.079 19.9368C109.459 18.7403 109.131 17.9225 109.099 17.4814C109.056 16.9154 109.033 15.8396 109.033 14.2519C109.033 13.9002 109.05 13.3696 109.082 12.6579C109.115 11.9463 109.131 11.4136 109.131 11.0619C109.131 10.6728 109.017 10.4772 108.789 10.4772C108.234 10.4772 107.393 10.4585 106.266 10.4189C105.141 10.3815 104.298 10.3627 103.745 10.3627C103.385 10.3627 103.206 10.5271 103.206 10.8538C103.206 11.3074 103.194 11.99 103.173 12.9035C103.151 13.8149 103.141 14.4974 103.141 14.9511C103.141 17.1922 103.183 18.4948 103.271 18.8589C103.423 19.5019 104.266 21.0376 105.802 23.466C107.281 25.834 108.022 27.0846 108.022 27.224C108.022 28.8222 106.508 29.6212 103.482 29.6212C103.297 29.6212 103.206 29.7419 103.206 29.9812C103.206 30.0665 103.226 30.1893 103.267 30.3474C103.326 30.5805 103.432 30.8926 103.58 31.2838C103.755 31.7375 103.928 32.1828 104.103 32.6239C104.321 33.3293 104.5 33.939 104.642 34.4551C104.805 34.582 105.12 34.6444 105.589 34.6444C108.669 34.6444 110.34 34.5508 110.6 34.3614C110.818 34.222 111.728 32.9194 113.327 30.4536C113.349 30.4182 113.374 30.3828 113.396 30.3474C114.804 28.1667 115.679 26.7725 116.021 26.167C118.241 22.2404 119.433 19.9618 119.596 19.3313C119.726 18.8028 119.792 17.317 119.792 14.8761C119.792 12.7745 119.716 11.4344 119.564 10.8538Z" fill="white"/>
<path d="M134.825 11.4115C134.833 11.4385 134.863 11.5322 134.845 11.6508C134.845 11.6591 134.843 11.6654 134.841 11.6695C134.804 11.8714 134.831 12.6059 135.026 14.5578C129.148 22.1613 126.689 25.2514 126.474 25.395C126.455 25.4074 126.295 25.5052 126.24 25.6863C126.238 25.6967 126.181 25.8923 126.272 25.9963C126.399 26.1399 126.732 26.0296 126.812 26.0046C128.02 25.6343 134.037 25.7966 134.326 25.7362C134.328 25.7362 134.342 25.7321 134.361 25.73C134.41 25.7216 134.501 25.7154 134.603 25.7383C134.8 25.7862 134.967 25.9381 135.026 26.1108C135.073 26.2502 135.036 26.375 135.026 26.4167C134.878 26.9473 134.841 28.1667 135.016 28.7368C135.026 28.7701 135.032 28.9158 135.016 29.1031C135 29.282 134.975 29.5338 134.841 29.694C134.672 29.898 134.375 29.9021 134.269 29.9063C130.21 30.0436 126.14 29.8251 122.087 30.0665C121.902 30.0769 121.389 30.1185 121.1 29.8002C120.825 29.4984 120.786 28.9075 120.778 28.7826C120.77 28.6578 120.774 28.5766 120.778 28.4788C120.795 27.8941 120.75 27.351 120.66 26.2689C120.65 26.1357 120.632 25.9339 120.607 25.6842C120.65 25.5156 120.695 25.3471 120.738 25.1785C125.605 19.3708 128.871 15.5212 129.231 15.2174C129.274 15.182 129.53 14.9802 129.491 14.7929C129.471 14.6951 129.373 14.6306 129.284 14.589C128.995 14.5786 128.769 14.5723 128.663 14.5702C127.381 14.537 122.498 14.4079 121.812 14.5994C121.782 14.6077 121.647 14.6472 121.501 14.5994C121.352 14.5515 121.24 14.4308 121.195 14.3081C121.151 14.1874 121.177 14.0792 121.185 14.05C121.287 13.611 121.218 12.2064 120.933 11.5884C120.882 11.4802 120.907 11.3948 120.905 11.2825C120.905 11.1451 120.905 10.5021 121.283 10.2254C121.456 10.0985 121.678 10.1047 122.115 10.1193C122.463 10.1317 122.636 10.138 122.998 10.2254C124.628 10.6208 133.284 10.7019 133.986 10.5979C134.007 10.5958 134.123 10.5771 134.271 10.5979C134.395 10.6166 134.621 10.6478 134.739 10.8101C134.869 10.9891 134.768 11.1888 134.831 11.4094L134.825 11.4115Z" fill="white"/>
<path d="M141.915 3.22743C141.294 2.63438 140.56 2.3389 139.711 2.3389C138.863 2.3389 138.094 2.62814 137.475 3.20662C136.799 3.83713 136.462 4.64242 136.462 5.6246C136.462 6.65671 136.789 7.47449 137.442 8.07794C138.041 8.63354 138.796 8.91029 139.711 8.91029C141.844 8.91029 142.91 7.81367 142.91 5.6246C142.91 4.65491 142.578 3.85585 141.915 3.22743ZM142.877 10.7602C142.877 10.5084 142.747 10.3815 142.487 10.3815C142.171 10.3815 141.697 10.4148 141.066 10.4772C140.434 10.5396 139.961 10.5708 139.646 10.5708C139.331 10.5708 138.859 10.5334 138.234 10.4585C137.607 10.3815 137.141 10.344 136.838 10.344C136.535 10.344 136.396 10.4709 136.396 10.7227C136.396 10.7852 136.407 10.9183 136.429 11.1181C136.669 13.2343 136.789 16.0789 136.789 19.6538C136.789 20.534 136.773 21.8471 136.738 23.5888C136.706 25.3325 136.689 26.6393 136.689 27.5071C136.689 27.8358 136.702 28.0231 136.722 28.0731C136.777 28.1875 136.924 28.2687 137.164 28.3186C137.534 28.3956 138.372 28.433 139.679 28.433C140.985 28.433 141.805 28.3956 142.175 28.3186C142.448 28.2687 142.584 28.1126 142.584 27.8462C142.584 26.9411 142.568 25.5781 142.536 23.7594C142.503 21.9407 142.487 20.5715 142.487 19.6538C142.487 16.4181 142.605 13.5735 142.845 11.1181C142.867 10.9308 142.877 10.8101 142.877 10.7602Z" fill="white"/>
<path d="M160.732 19.0483C160.732 21.9178 159.973 24.2463 158.455 26.0338C156.937 27.8213 154.943 28.714 152.471 28.714C149.999 28.714 148.106 27.8338 146.562 26.0713C145.015 24.3088 144.244 22.0427 144.244 19.2751C144.244 16.3557 144.985 13.9856 146.464 12.1669C147.943 10.3482 149.948 9.43884 152.473 9.43884C154.998 9.43884 156.925 10.3295 158.449 12.1107C159.973 13.8919 160.734 16.2058 160.734 19.0504L160.732 19.0483ZM155.377 19.0483C155.377 18.0537 155.11 17.1755 154.577 16.4139C154.044 15.6523 153.352 15.2715 152.503 15.2715C151.655 15.2715 150.937 15.6627 150.381 16.4431C149.858 17.1734 149.598 18.0412 149.598 19.0483C149.598 20.0555 149.858 20.9419 150.381 21.6723C150.937 22.4526 151.643 22.8438 152.503 22.8438C153.364 22.8438 154.054 22.4547 154.61 21.6723C155.12 20.9419 155.377 20.0679 155.377 19.0483Z" fill="white"/>
<path d="M51.6058 57.8941C51.7421 58.9824 33.0645 68.929 16.731 59.4985C7.66388 54.263 -0.676839 43.1241 0.0434861 29.6879C0.788229 15.744 10.8504 7.6348 12.4945 6.35298C26.2438 -4.35519 42.5468 1.60027 43.8226 2.09136C41.6514 1.95818 25.7127 1.23612 15.6363 13.4696C14.0349 15.4131 8.3374 22.332 8.77896 32.1704C9.3772 45.4963 20.7437 53.0665 22.2861 54.0591C35.5755 62.6031 51.4796 56.8974 51.6037 57.892L51.6058 57.8941Z" fill="white"/>
<path d="M60.4468 37.0083C57.7507 48.1681 48.9175 53.1601 47.4809 53.9404C35.4694 60.4639 24.0805 53.1184 23.1934 52.5212C25.5192 52.9249 36.6496 54.5834 45.556 46.3868C47.4484 44.643 52.0552 40.4043 53.1337 33.4459C54.6679 23.5409 47.8411 15.9437 46.2865 14.3206C37.7769 5.44357 25.7776 7.15405 25.861 6.19684C25.9546 5.11271 41.5413 0.158151 52.4174 10.3149C58.4588 15.9561 63.0453 26.2585 60.4468 37.0083Z" fill="white"/>
<path d="M41.0111 30.5535C40.0791 28.9866 39.0638 28.098 38.3088 27.5778C36.6321 26.4208 36.04 26.4354 35.2383 25.4262C34.0561 23.9342 34.8191 22.7772 34.0642 20.2552C33.0773 16.9612 30.7495 15.5067 31.0547 15.1592C31.3721 14.7971 34.0479 16.0456 36.0217 18.4407C37.8571 20.6672 37.7757 22.2924 38.9315 22.4797C39.5094 22.5733 40.069 22.257 43.4406 18.861C45.5141 16.776 46.0411 16.1517 46.2304 16.2683C46.4888 16.4285 46.0778 17.9704 42.8689 24.4003C42.2482 26.45 41.6276 28.5017 41.009 30.5514L41.0111 30.5535Z" fill="white"/>
<path d="M39.6227 18.0204C41.0421 18.0204 42.1927 17.0887 42.1927 15.9395C42.1927 14.7903 41.0421 13.8586 39.6227 13.8586C38.2034 13.8586 37.0527 14.7903 37.0527 15.9395C37.0527 17.0887 38.2034 18.0204 39.6227 18.0204Z" fill="white"/>
<path d="M46.2315 44.6847C45.8327 44.8969 43.922 39.0996 38.2367 34.4156C36.619 33.0817 29.432 27.0451 23.0854 29.5338C20.721 30.4619 17.6525 32.8944 17.5528 36.1718C17.4937 38.1257 18.5213 40.3148 20.253 41.2845C24.3145 43.5568 30.0587 37.8427 30.4352 37.4599C31.9633 35.9055 32.8485 34.2907 33.345 33.2086C33.8964 33.3876 34.6452 33.7018 35.4225 34.272C36.5742 35.1168 37.2294 36.1156 37.5672 36.7253C36.9181 37.9135 35.7949 39.6552 33.9676 41.2845C32.9787 42.1668 25.9077 48.3116 19.4207 45.1092C16.34 43.588 13.7599 40.14 13.6032 36.1718C13.4038 31.1049 17.2353 27.1637 20.5928 25.6155C27.8347 22.2737 36.4175 28.4268 40.4099 32.7841C45.2161 38.0321 46.6384 44.4662 46.2294 44.6847H46.2315Z" fill="white"/>
<path d="M90.3427 56.1503C90.3203 54.3129 90.3101 51.6764 90.3101 48.2388C90.3101 45.7855 90.359 43.1157 90.4567 40.2295H84.5516C84.5577 40.4855 84.5597 40.7456 84.5638 41.0078C84.5516 40.5437 84.5475 42.9534 84.5475 48.2388C84.5475 49.3479 84.5353 51.0188 84.515 53.2537C84.4926 55.4865 84.4824 57.1637 84.4824 58.2853V59.0968C84.515 59.3736 84.6513 59.5442 84.8894 59.6066C85.2495 59.7065 86.0818 59.7564 87.3881 59.7564C88.6945 59.7564 89.543 59.7065 90.0334 59.6066C90.304 59.5567 90.4404 59.3985 90.4404 59.1343C90.4404 58.7826 90.4241 58.2853 90.3915 57.6423C90.359 56.9369 90.3427 56.4395 90.3427 56.1503Z" fill="white"/>
<path d="M99.7289 42.0461C99.7289 41.7943 99.5987 41.6695 99.3383 41.6695C99.0229 41.6695 98.5487 41.7007 97.918 41.7631C97.2872 41.8276 96.813 41.8588 96.4977 41.8588C96.1823 41.8588 95.7102 41.8193 95.0855 41.7444C94.4588 41.6695 93.9948 41.632 93.6896 41.632C93.3844 41.632 93.248 41.7569 93.248 42.0087C93.248 42.0711 93.2603 42.2043 93.2806 42.4061C93.5207 44.5203 93.6408 47.3648 93.6408 50.9398C93.6408 51.82 93.6245 53.133 93.5919 54.8768C93.5594 56.6205 93.5431 57.9253 93.5431 58.7951C93.5431 59.1218 93.5533 59.3111 93.5756 59.3611C93.6286 59.4734 93.7771 59.5567 94.0152 59.6066C94.3855 59.6815 95.2239 59.719 96.5302 59.719C97.8366 59.719 98.6586 59.6815 99.0269 59.6066C99.2996 59.5567 99.4359 59.3985 99.4359 59.1342C99.4359 58.227 99.4196 56.8661 99.3871 55.0453C99.3545 53.2266 99.3383 51.8595 99.3383 50.9398C99.3383 47.704 99.4583 44.8595 99.6964 42.4061C99.7188 42.2167 99.7289 42.0981 99.7289 42.0461Z" fill="white"/>
<path d="M118.699 55.3866C118.689 53.7573 118.683 52.5316 118.683 51.7139V45.6918C118.683 44.1436 118.166 42.9347 117.132 42.0649C116.208 41.3095 115.055 40.9329 113.671 40.9329C112.702 40.9329 111.573 41.3698 110.283 42.2459C109.05 43.0824 108.46 43.5194 108.517 43.5548C108.403 43.5277 108.315 43.1032 108.252 42.2833C108.187 41.4323 108.094 41.0078 107.974 41.0078C107.756 41.0078 106.781 41.2034 105.052 41.5925C103.908 41.7819 102.994 41.9213 102.309 42.0087C102.146 42.0836 102.064 42.223 102.064 42.4248C102.064 42.4998 102.075 42.5934 102.097 42.7078C102.52 44.4953 102.734 46.9549 102.734 50.0908C102.734 51.0854 102.728 52.5691 102.718 54.5459C102.705 56.5228 102.701 58.0002 102.701 58.9824C102.701 59.3361 102.87 59.5442 103.206 59.6066C103.589 59.6815 104.415 59.719 105.688 59.719C106.865 59.719 107.642 59.694 108.022 59.6441C108.36 59.5941 108.529 59.3611 108.529 58.9449V48.7486C108.529 48.2846 108.834 47.8122 109.443 47.3336C110.008 46.905 110.505 46.6906 110.928 46.6906C112.224 46.6906 112.871 47.5542 112.871 49.2772C112.871 49.7433 112.882 50.4404 112.904 51.3643C112.926 52.2903 112.936 52.9853 112.936 53.4514C112.936 54.0548 112.92 54.9559 112.888 56.1503C112.855 57.3468 112.839 58.2395 112.839 58.8325C112.839 59.2716 113.002 59.5296 113.329 59.6066C113.655 59.6815 114.505 59.719 115.875 59.719C117.159 59.719 117.954 59.694 118.26 59.6441C118.565 59.5941 118.715 59.3985 118.715 59.0593C118.715 58.2395 118.711 57.0159 118.699 55.3866Z" fill="white"/>
<path d="M135.337 51.5245C136.045 51.3497 136.399 50.6256 136.399 49.3541C136.399 46.9237 135.668 44.8282 134.209 43.0657C132.752 41.3032 130.978 40.423 128.888 40.423C126.406 40.423 124.416 41.3802 122.912 43.2926C121.455 45.1425 120.725 47.5167 120.725 50.4112C120.725 53.3057 121.541 55.7549 123.175 57.5299C124.764 59.2799 126.853 60.1539 129.444 60.1539C132.24 60.1539 134.303 59.3298 135.63 57.6797C135.794 57.48 135.876 57.3343 135.876 57.2469C135.876 56.9306 135.605 56.196 135.068 55.037C134.529 53.88 134.144 53.237 133.916 53.1101C133.503 53.4139 133.09 53.7157 132.675 54.0174C131.696 54.6208 130.722 54.9226 129.753 54.9226C128.947 54.9226 128.229 54.7478 127.598 54.394C126.825 53.9674 126.363 53.3432 126.21 52.5254C128.758 52.2986 130.673 52.1051 131.957 51.9407C134.091 51.6889 135.217 51.5495 135.337 51.5245ZM130.146 48.5031C128.447 48.7944 127.195 48.938 126.39 48.938C126.086 48.938 125.934 48.7694 125.934 48.4282C125.934 47.5979 126.139 46.8737 126.554 46.2578C127 45.5898 127.566 45.2569 128.251 45.2569C128.937 45.2569 129.487 45.5524 129.965 46.1434C130.445 46.7364 130.683 47.421 130.683 48.2013C130.683 48.3408 130.504 48.4406 130.146 48.5031Z" fill="white"/>
<path d="M90.7581 33.1337C90.6421 35.123 90.5485 37.0187 90.4793 38.8187H160.727C160.978 38.8083 161.354 38.75 161.625 38.4733C161.977 38.1153 161.946 37.5951 161.938 37.0458C161.924 36.0907 161.952 33.4583 161.995 32.5074C162.003 32.3076 162.028 31.8706 161.753 31.5502C161.549 31.313 161.267 31.2381 161.104 31.2089H114.858C114.698 31.4316 114.527 31.6667 114.348 31.9123C111.886 35.2729 111.56 35.5247 111.275 35.689C110.903 35.9242 110.469 36.1239 105.58 36.1239C104.823 36.1239 104.288 36.0012 103.897 35.7348L103.567 35.5101L103.455 35.148C103.323 34.7173 103.15 34.1971 102.943 33.6019C102.774 33.2211 102.603 32.8341 102.434 32.4429C102.198 31.8998 102.064 31.5127 102.007 31.2089H72.0886C72.0927 31.3088 72.0988 31.4108 72.1028 31.5127C72.1598 32.6843 72.1863 33.5395 72.1863 34.1284C72.1863 35.0939 71.4619 35.7702 70.4241 35.7702L67.0931 35.7868H67.0911C65.9638 35.7868 65.5568 35.7265 65.3127 35.6662C64.456 35.456 63.9229 34.8109 63.9229 33.9786L63.929 31.2089H63.3491C62.9421 33.1421 62.7895 35.4414 63.3491 37.8906C63.404 38.132 63.465 38.3692 63.5302 38.5981C63.7621 38.673 64.0755 38.7583 64.454 38.8166C65.3818 38.9581 66.0981 38.8353 66.2304 38.8166C67.0524 38.698 72.0133 38.6668 84.5702 38.8166C84.3382 34.7485 84.1998 33.296 84.1734 33.1317C84.153 33.011 84.1408 32.9132 84.1408 32.8487C84.1408 32.6031 84.2833 32.4803 84.5661 32.4803H90.3999C90.4284 32.4783 90.6014 32.4679 90.7235 32.5969C90.8476 32.728 90.8679 32.9485 90.7601 33.1337H90.7581ZM94.3536 33.7372C94.9742 33.2253 95.721 32.9673 96.5919 32.9673C97.4628 32.9673 98.177 33.2315 98.7976 33.7538C99.461 34.3115 99.7967 35.0211 99.7967 35.8784C99.7967 37.8199 98.7264 38.7895 96.5919 38.7895C95.6762 38.7895 94.9193 38.544 94.321 38.0529C93.6679 37.516 93.3382 36.7919 93.3382 35.8763C93.3382 34.9607 93.676 34.2928 94.3536 33.7351V33.7372Z" fill="white"/>
<path d="M114.777 63.8584V65.6744H114.569L113.602 64.2486H113.584V65.6744H113.369V63.8584H113.577L114.548 65.2878H114.566V63.8584H114.777Z" fill="white"/>
<path d="M113.007 64.7664C113.007 64.9579 112.973 65.1235 112.906 65.263C112.838 65.4025 112.745 65.5101 112.627 65.5857C112.509 65.6614 112.375 65.6992 112.223 65.6992C112.072 65.6992 111.937 65.6614 111.819 65.5857C111.701 65.5101 111.609 65.4025 111.541 65.263C111.473 65.1235 111.439 64.9579 111.439 64.7664C111.439 64.5749 111.473 64.4093 111.541 64.2698C111.609 64.1303 111.701 64.0227 111.819 63.9471C111.937 63.8714 112.072 63.8336 112.223 63.8336C112.375 63.8336 112.509 63.8714 112.627 63.9471C112.745 64.0227 112.838 64.1303 112.906 64.2698C112.973 64.4093 113.007 64.5749 113.007 64.7664ZM112.799 64.7664C112.799 64.6092 112.773 64.4764 112.722 64.3683C112.671 64.2601 112.602 64.1782 112.515 64.1226C112.428 64.0671 112.331 64.0393 112.223 64.0393C112.116 64.0393 112.018 64.0671 111.931 64.1226C111.844 64.1782 111.775 64.2601 111.724 64.3683C111.673 64.4764 111.648 64.6092 111.648 64.7664C111.648 64.9237 111.673 65.0564 111.724 65.1645C111.775 65.2727 111.844 65.3546 111.931 65.4102C112.018 65.4657 112.116 65.4935 112.223 65.4935C112.331 65.4935 112.428 65.4657 112.515 65.4102C112.602 65.3546 112.671 65.2727 112.722 65.1645C112.773 65.0564 112.799 64.9237 112.799 64.7664Z" fill="white"/>
<path d="M111.078 63.8584V65.6744H110.863V63.8584H111.078Z" fill="white"/>
<path d="M109.199 64.0535V63.8584H110.531V64.0535H109.973V65.6744H109.758V64.0535H109.199Z" fill="white"/>
<path d="M108.652 63.8584H108.867V65.0608C108.867 65.185 108.838 65.2958 108.781 65.3933C108.724 65.4903 108.644 65.5668 108.541 65.623C108.437 65.6786 108.316 65.7064 108.177 65.7064C108.037 65.7064 107.916 65.6786 107.812 65.623C107.709 65.5668 107.629 65.4903 107.571 65.3933C107.515 65.2958 107.486 65.185 107.486 65.0608V63.8584H107.701V65.0431C107.701 65.1318 107.72 65.2107 107.759 65.2798C107.797 65.3484 107.851 65.4025 107.922 65.4421C107.993 65.4811 108.078 65.5006 108.177 65.5006C108.275 65.5006 108.36 65.4811 108.431 65.4421C108.503 65.4025 108.557 65.3484 108.594 65.2798C108.633 65.2107 108.652 65.1318 108.652 65.0431V63.8584Z" fill="white"/>
<path d="M106.113 65.6744V63.8584H106.328V65.4794H107.154V65.6744H106.113Z" fill="white"/>
<path d="M105.751 64.7664C105.751 64.9579 105.718 65.1235 105.65 65.263C105.582 65.4025 105.489 65.5101 105.372 65.5857C105.254 65.6614 105.119 65.6992 104.967 65.6992C104.816 65.6992 104.681 65.6614 104.563 65.5857C104.445 65.5101 104.353 65.4025 104.285 65.263C104.217 65.1235 104.184 64.9579 104.184 64.7664C104.184 64.5749 104.217 64.4093 104.285 64.2698C104.353 64.1303 104.445 64.0227 104.563 63.9471C104.681 63.8714 104.816 63.8336 104.967 63.8336C105.119 63.8336 105.254 63.8714 105.372 63.9471C105.489 64.0227 105.582 64.1303 105.65 64.2698C105.718 64.4093 105.751 64.5749 105.751 64.7664ZM105.543 64.7664C105.543 64.6092 105.517 64.4764 105.466 64.3683C105.415 64.2601 105.346 64.1782 105.259 64.1226C105.172 64.0671 105.075 64.0393 104.967 64.0393C104.86 64.0393 104.763 64.0671 104.675 64.1226C104.589 64.1782 104.519 64.2601 104.468 64.3683C104.417 64.4764 104.392 64.6092 104.392 64.7664C104.392 64.9237 104.417 65.0564 104.468 65.1645C104.519 65.2727 104.589 65.3546 104.675 65.4102C104.763 65.4657 104.86 65.4935 104.967 65.4935C105.075 65.4935 105.172 65.4657 105.259 65.4102C105.346 65.3546 105.415 65.2727 105.466 65.1645C105.517 65.0564 105.543 64.9237 105.543 64.7664Z" fill="white"/>
<path d="M103.669 64.3124C103.658 64.2225 103.616 64.1528 103.542 64.1031C103.468 64.0535 103.377 64.0286 103.27 64.0286C103.191 64.0286 103.122 64.0416 103.063 64.0677C103.005 64.0937 102.959 64.1294 102.926 64.175C102.894 64.2205 102.878 64.2722 102.878 64.3301C102.878 64.3786 102.889 64.4203 102.912 64.4552C102.935 64.4894 102.964 64.5181 103 64.5412C103.036 64.5636 103.073 64.5823 103.113 64.597C103.152 64.6112 103.188 64.6228 103.221 64.6316L103.401 64.6813C103.448 64.6937 103.499 64.7108 103.556 64.7327C103.613 64.7546 103.668 64.7844 103.72 64.8223C103.772 64.8595 103.816 64.9074 103.85 64.9659C103.884 65.0244 103.901 65.0963 103.901 65.1814C103.901 65.2795 103.876 65.3682 103.826 65.4474C103.776 65.5266 103.703 65.5896 103.607 65.6363C103.512 65.683 103.396 65.7063 103.259 65.7063C103.132 65.7063 103.022 65.6854 102.929 65.6434C102.836 65.6014 102.764 65.5429 102.71 65.4678C102.658 65.3927 102.628 65.3055 102.621 65.2062H102.843C102.849 65.2748 102.871 65.3315 102.911 65.3765C102.951 65.4208 103.001 65.4539 103.062 65.4758C103.123 65.4971 103.189 65.5077 103.259 65.5077C103.341 65.5077 103.415 65.4941 103.48 65.4669C103.546 65.4391 103.597 65.4007 103.636 65.3516C103.674 65.302 103.693 65.2441 103.693 65.1778C103.693 65.1176 103.676 65.0685 103.643 65.0307C103.61 64.9928 103.567 64.9621 103.513 64.9384C103.46 64.9148 103.401 64.8941 103.339 64.8764L103.121 64.8125C102.982 64.7717 102.872 64.7135 102.791 64.6378C102.71 64.5622 102.67 64.4631 102.67 64.3408C102.67 64.2391 102.697 64.1504 102.75 64.0747C102.805 63.9985 102.877 63.9394 102.969 63.8974C103.061 63.8548 103.163 63.8336 103.277 63.8336C103.391 63.8336 103.493 63.8545 103.582 63.8965C103.671 63.9379 103.741 63.9946 103.793 64.0668C103.846 64.1389 103.874 64.2208 103.877 64.3124H103.669Z" fill="white"/>
<path d="M100.551 65.6744V63.8584H101.623V64.0535H100.766V64.6671H101.567V64.8622H100.766V65.4794H101.636V65.6744H100.551Z" fill="white"/>
<path d="M98.9883 65.6744V63.8584H99.5883C99.7271 63.8584 99.8409 63.8826 99.93 63.9311C100.019 63.979 100.085 64.0449 100.128 64.1289C100.17 64.2128 100.192 64.3083 100.192 64.4153C100.192 64.5223 100.17 64.6171 100.128 64.6999C100.085 64.7827 100.019 64.8477 99.9308 64.895C99.8424 64.9417 99.7294 64.965 99.5918 64.965H99.1062V64.7664H99.5849C99.6797 64.7664 99.756 64.7522 99.8138 64.7239C99.8722 64.6955 99.9144 64.6553 99.9404 64.6033C99.967 64.5506 99.9803 64.488 99.9803 64.4153C99.9803 64.3426 99.967 64.279 99.9404 64.2246C99.9138 64.1702 99.8713 64.1283 99.8129 64.0987C99.7545 64.0686 99.6773 64.0535 99.5814 64.0535H99.2033V65.6744H98.9883ZM99.8242 64.8586L100.261 65.6744H100.011L99.5814 64.8586H99.8242Z" fill="white"/>
<path d="M97.411 65.6744H97.1855L97.8376 63.8584H98.0596L98.7117 65.6744H98.4862L97.9555 64.1457H97.9417L97.411 65.6744ZM97.4942 64.965H98.403V65.1601H97.4942V64.965Z" fill="white"/>
<path d="M95.4817 65.6744L94.9961 63.8584H95.2146L95.5857 65.3375H95.6031L95.9811 63.8584H96.2239L96.602 65.3375H96.6193L96.9904 63.8584H97.209L96.7234 65.6744H96.5014L96.1095 64.2273H96.0956L95.7037 65.6744H95.4817Z" fill="white"/>
<path d="M93.4961 64.0535V63.8584H94.828V64.0535H94.2696V65.6744H94.0545V64.0535H93.4961Z" fill="white"/>
<path d="M92.1582 65.6744V63.8584H93.223V64.0535H92.3732V64.6671H93.1432V64.8622H92.3732V65.6744H92.1582Z" fill="white"/>
<path d="M91.7982 64.7664C91.7982 64.9579 91.7644 65.1235 91.6968 65.263C91.6291 65.4025 91.5363 65.5101 91.4184 65.5857C91.3005 65.6614 91.1658 65.6992 91.0143 65.6992C90.8629 65.6992 90.7282 65.6614 90.6103 65.5857C90.4923 65.5101 90.3996 65.4025 90.3319 65.263C90.2643 65.1235 90.2305 64.9579 90.2305 64.7664C90.2305 64.5749 90.2643 64.4093 90.3319 64.2698C90.3996 64.1303 90.4923 64.0227 90.6103 63.9471C90.7282 63.8714 90.8629 63.8336 91.0143 63.8336C91.1658 63.8336 91.3005 63.8714 91.4184 63.9471C91.5363 64.0227 91.6291 64.1303 91.6968 64.2698C91.7644 64.4093 91.7982 64.5749 91.7982 64.7664ZM91.5901 64.7664C91.5901 64.6092 91.5644 64.4764 91.5129 64.3683C91.4621 64.2601 91.393 64.1782 91.3057 64.1226C91.219 64.0671 91.1219 64.0393 91.0143 64.0393C90.9068 64.0393 90.8094 64.0671 90.7221 64.1226C90.6354 64.1782 90.5663 64.2601 90.5149 64.3683C90.464 64.4764 90.4386 64.6092 90.4386 64.7664C90.4386 64.9237 90.464 65.0564 90.5149 65.1645C90.5663 65.2727 90.6354 65.3546 90.7221 65.4102C90.8094 65.4657 90.9068 65.4935 91.0143 65.4935C91.1219 65.4935 91.219 65.4657 91.3057 65.4102C91.393 65.3546 91.4621 65.2727 91.5129 65.1645C91.5644 65.0564 91.5901 64.9237 91.5901 64.7664Z" fill="white"/>
<path d="M89.7135 64.3124C89.7031 64.2225 89.6609 64.1528 89.5869 64.1031C89.5129 64.0535 89.4221 64.0286 89.3146 64.0286C89.236 64.0286 89.1672 64.0416 89.1082 64.0677C89.0499 64.0937 89.0042 64.1294 88.9712 64.175C88.9389 64.2205 88.9227 64.2722 88.9227 64.3301C88.9227 64.3786 88.934 64.4203 88.9565 64.4552C88.9796 64.4894 89.0091 64.5181 89.0449 64.5412C89.0808 64.5636 89.1184 64.5823 89.1577 64.597C89.197 64.6112 89.2331 64.6228 89.2661 64.6316L89.4464 64.6813C89.4927 64.6937 89.5441 64.7108 89.6008 64.7327C89.658 64.7546 89.7126 64.7844 89.7646 64.8223C89.8172 64.8595 89.8606 64.9074 89.8947 64.9659C89.9288 65.0244 89.9459 65.0963 89.9459 65.1814C89.9459 65.2795 89.9207 65.3682 89.8704 65.4474C89.8207 65.5266 89.7479 65.5896 89.6519 65.6363C89.5565 65.683 89.4406 65.7063 89.3042 65.7063C89.177 65.7063 89.0669 65.6854 88.9738 65.6434C88.8813 65.6014 88.8085 65.5429 88.7553 65.4678C88.7027 65.3927 88.673 65.3055 88.666 65.2062H88.888C88.8938 65.2748 88.9163 65.3315 88.9556 65.3765C88.9955 65.4208 89.0458 65.4539 89.1065 65.4758C89.1678 65.4971 89.2337 65.5077 89.3042 65.5077C89.3863 65.5077 89.46 65.4941 89.5253 65.4669C89.5906 65.4391 89.6424 65.4007 89.6805 65.3516C89.7187 65.302 89.7378 65.2441 89.7378 65.1778C89.7378 65.1176 89.7213 65.0685 89.6883 65.0307C89.6554 64.9928 89.612 64.9621 89.5583 64.9384C89.5045 64.9148 89.4464 64.8941 89.384 64.8764L89.1655 64.8125C89.0267 64.7717 88.9169 64.7135 88.836 64.6378C88.755 64.5622 88.7146 64.4631 88.7146 64.3408C88.7146 64.2391 88.7415 64.1504 88.7952 64.0747C88.8496 63.9985 88.9224 63.9394 89.0137 63.8974C89.1056 63.8548 89.2082 63.8336 89.3216 63.8336C89.436 63.8336 89.5378 63.8545 89.6268 63.8965C89.7158 63.9379 89.7863 63.9946 89.8383 64.0668C89.891 64.1389 89.9187 64.2208 89.9216 64.3124H89.7135Z" fill="white"/>
<path d="M86.2793 63.8584H86.5256L87.0181 64.7061H87.0389L87.5314 63.8584H87.7777L87.136 64.926V65.6744H86.921V64.926L86.2793 63.8584Z" fill="white"/>
<path d="M84.8809 65.6744V63.8584H85.4809C85.6202 63.8584 85.7341 63.8841 85.8225 63.9355C85.9116 63.9864 85.9775 64.0553 86.0202 64.1422C86.063 64.2291 86.0844 64.326 86.0844 64.433C86.0844 64.54 86.063 64.6372 86.0202 64.7247C85.978 64.8122 85.9127 64.882 85.8243 64.934C85.7358 64.9854 85.6225 65.0112 85.4844 65.0112H85.0543V64.8161H85.4774C85.5728 64.8161 85.6494 64.7992 85.7072 64.7655C85.765 64.7318 85.8069 64.6863 85.8329 64.629C85.8595 64.571 85.8728 64.5057 85.8728 64.433C85.8728 64.3603 85.8595 64.2953 85.8329 64.2379C85.8069 64.1806 85.7647 64.1357 85.7063 64.1031C85.648 64.07 85.5705 64.0535 85.474 64.0535H85.0959V65.6744H84.8809Z" fill="white"/>
<path d="M83.3036 65.6744H83.0781L83.7302 63.8584H83.9522L84.6042 65.6744H84.3788L83.8481 64.1457H83.8342L83.3036 65.6744ZM83.3868 64.965H84.2955V65.1601H83.3868V64.965Z" fill="white"/>
<path d="M81.6699 65.6744V63.8584H82.27C82.4087 63.8584 82.5226 63.8826 82.6116 63.9311C82.7006 63.979 82.7665 64.0449 82.8093 64.1289C82.8521 64.2128 82.8735 64.3083 82.8735 64.4153C82.8735 64.5223 82.8521 64.6171 82.8093 64.6999C82.7665 64.7827 82.7009 64.8477 82.6125 64.895C82.524 64.9417 82.411 64.965 82.2734 64.965H81.7878V64.7664H82.2665C82.3613 64.7664 82.4376 64.7522 82.4954 64.7239C82.5538 64.6955 82.596 64.6553 82.622 64.6033C82.6486 64.5506 82.6619 64.488 82.6619 64.4153C82.6619 64.3426 82.6486 64.279 82.622 64.2246C82.5954 64.1702 82.5529 64.1283 82.4945 64.0987C82.4362 64.0686 82.359 64.0535 82.263 64.0535H81.885V65.6744H81.6699ZM82.5058 64.8586L82.9428 65.6744H82.6931L82.263 64.8586H82.5058Z" fill="white"/>
<path d="M80.2109 65.6744V63.8584H81.2827V64.0535H80.426V64.6671H81.2272V64.8622H80.426V65.4794H81.2966V65.6744H80.2109Z" fill="white"/>
<path d="M78.4023 65.6744V63.8584H78.6174V64.6671H79.5643V63.8584H79.7793V65.6744H79.5643V64.8622H78.6174V65.6744H78.4023Z" fill="white"/>
<path d="M76.7383 64.0535V63.8584H78.0702V64.0535H77.5117V65.6744H77.2967V64.0535H76.7383Z" fill="white"/>
<path d="M75.6992 65.6744V63.8584H75.9143V65.4794H76.7398V65.6744H75.6992Z" fill="white"/>
<path d="M74.1219 65.6744H73.8965L74.5486 63.8584H74.7705L75.4226 65.6744H75.1971L74.6665 64.1457H74.6526L74.1219 65.6744ZM74.2052 64.965H75.1139V65.1601H74.2052V64.965Z" fill="white"/>
<path d="M73.7015 64.4259H73.4864C73.4737 64.3626 73.4515 64.3071 73.4197 64.2592C73.3885 64.2113 73.3503 64.1711 73.3052 64.1386C73.2607 64.1055 73.2113 64.0807 73.1569 64.0641C73.1026 64.0476 73.046 64.0393 72.987 64.0393C72.8795 64.0393 72.7821 64.0671 72.6948 64.1226C72.6081 64.1782 72.539 64.2601 72.4875 64.3683C72.4367 64.4764 72.4112 64.6092 72.4112 64.7664C72.4112 64.9237 72.4367 65.0564 72.4875 65.1645C72.539 65.2727 72.6081 65.3546 72.6948 65.4102C72.7821 65.4657 72.8795 65.4935 72.987 65.4935C73.046 65.4935 73.1026 65.4853 73.1569 65.4687C73.2113 65.4521 73.2607 65.4276 73.3052 65.3951C73.3503 65.362 73.3885 65.3215 73.4197 65.2736C73.4515 65.2251 73.4737 65.1696 73.4864 65.1069H73.7015C73.6853 65.1997 73.6558 65.2828 73.613 65.3561C73.5703 65.4294 73.5171 65.4918 73.4535 65.5432C73.3899 65.594 73.3185 65.6327 73.2393 65.6593C73.1607 65.6859 73.0766 65.6992 72.987 65.6992C72.8355 65.6992 72.7008 65.6614 72.5829 65.5857C72.465 65.5101 72.3722 65.4025 72.3046 65.263C72.2369 65.1235 72.2031 64.9579 72.2031 64.7664C72.2031 64.5749 72.2369 64.4093 72.3046 64.2698C72.3722 64.1303 72.465 64.0227 72.5829 63.9471C72.7008 63.8714 72.8355 63.8336 72.987 63.8336C73.0766 63.8336 73.1607 63.8469 73.2393 63.8735C73.3185 63.9001 73.3899 63.9391 73.4535 63.9905C73.5171 64.0413 73.5703 64.1034 73.613 64.1767C73.6558 64.2494 73.6853 64.3325 73.7015 64.4259Z" fill="white"/>
<path d="M71.84 63.8584V65.6744H71.625V63.8584H71.84Z" fill="white"/>
<path d="M71.0397 64.3124C71.0293 64.2225 70.9871 64.1528 70.9131 64.1031C70.8391 64.0535 70.7483 64.0286 70.6408 64.0286C70.5622 64.0286 70.4934 64.0416 70.4344 64.0677C70.376 64.0937 70.3304 64.1294 70.2974 64.175C70.265 64.2205 70.2489 64.2722 70.2489 64.3301C70.2489 64.3786 70.2601 64.4203 70.2827 64.4552C70.3058 64.4894 70.3353 64.5181 70.3711 64.5412C70.407 64.5636 70.4445 64.5823 70.4838 64.597C70.5231 64.6112 70.5593 64.6228 70.5922 64.6316L70.7726 64.6813C70.8188 64.6937 70.8703 64.7108 70.9269 64.7327C70.9842 64.7546 71.0388 64.7844 71.0908 64.8223C71.1434 64.8595 71.1868 64.9074 71.2209 64.9659C71.255 65.0244 71.272 65.0963 71.272 65.1814C71.272 65.2795 71.2469 65.3682 71.1966 65.4474C71.1469 65.5266 71.0741 65.5896 70.9781 65.6363C70.8827 65.683 70.7668 65.7063 70.6304 65.7063C70.5032 65.7063 70.3931 65.6854 70.3 65.6434C70.2075 65.6014 70.1347 65.5429 70.0815 65.4678C70.0289 65.3927 69.9991 65.3055 69.9922 65.2062H70.2142C70.2199 65.2748 70.2425 65.3315 70.2818 65.3765C70.3217 65.4208 70.372 65.4539 70.4327 65.4758C70.494 65.4971 70.5599 65.5077 70.6304 65.5077C70.7125 65.5077 70.7862 65.4941 70.8515 65.4669C70.9168 65.4391 70.9686 65.4007 71.0067 65.3516C71.0449 65.302 71.0639 65.2441 71.0639 65.1778C71.0639 65.1176 71.0475 65.0685 71.0145 65.0307C70.9816 64.9928 70.9382 64.9621 70.8844 64.9384C70.8307 64.9148 70.7726 64.8941 70.7102 64.8764L70.4916 64.8125C70.3529 64.7717 70.2431 64.7135 70.1621 64.6378C70.0812 64.5622 70.0407 64.4631 70.0407 64.3408C70.0407 64.2391 70.0676 64.1504 70.1214 64.0747C70.1757 63.9985 70.2486 63.9394 70.3399 63.8974C70.4318 63.8548 70.5344 63.8336 70.6477 63.8336C70.7622 63.8336 70.8639 63.8545 70.9529 63.8965C71.042 63.9379 71.1125 63.9946 71.1645 64.0668C71.2171 64.1389 71.2449 64.2208 71.2478 64.3124H71.0397Z" fill="white"/>
<path d="M68.293 63.8584H68.5392L69.0317 64.7061H69.0526L69.5451 63.8584H69.7913L69.1497 64.926V65.6744H68.9346V64.926L68.293 63.8584Z" fill="white"/>
<path d="M66.6367 65.6744V63.8584H66.8518V64.6671H67.7986V63.8584H68.0137V65.6744H67.7986V64.8622H66.8518V65.6744H66.6367Z" fill="white"/>
<path d="M64.877 65.6744V63.5722H65.5715C65.7328 63.5722 65.8646 63.602 65.967 63.6615C66.0701 63.7204 66.1464 63.8001 66.1959 63.9007C66.2454 64.0013 66.2702 64.1135 66.2702 64.2374C66.2702 64.3612 66.2454 64.4738 66.1959 64.5751C66.147 64.6763 66.0714 64.7571 65.969 64.8173C65.8667 64.8768 65.7355 64.9066 65.5756 64.9066H65.0777V64.6808H65.5675C65.6779 64.6808 65.7666 64.6613 65.8335 64.6223C65.9004 64.5833 65.949 64.5306 65.9791 64.4642C66.0099 64.3971 66.0252 64.3215 66.0252 64.2374C66.0252 64.1532 66.0099 64.0779 65.9791 64.0115C65.949 63.9452 65.9001 63.8931 65.8325 63.8555C65.7649 63.8172 65.6753 63.798 65.5635 63.798H65.1259V65.6744H64.877Z" fill="white"/>
</g>
<defs>
<clipPath id="clip0_742_184">
<rect width="162" height="74" fill="white"/>
</clipPath>
</defs>
</svg>
