<svg width="51" height="50" viewBox="0 0 51 50" fill="none" xmlns="http://www.w3.org/2000/svg">
<path d="M48.565 1.42607C47.8139 1.42607 46.9376 1.42607 46.1866 1.42607C41.0543 1.67643 36.1723 2.80303 31.5407 5.05624C25.9077 7.68498 21.1509 11.4403 17.3956 16.4475C14.7668 19.8273 12.8891 23.5826 11.5122 27.5883C11.387 27.8387 11.5122 27.9639 11.6374 28.089C12.764 29.2157 13.8906 30.3423 15.0172 31.4689C15.1424 31.594 15.2675 31.8444 15.2675 32.0948C15.2675 32.3451 15.1424 32.5955 14.892 32.7206C14.6416 32.8458 14.2661 32.8458 14.1409 32.5955C13.515 31.9696 13.0143 31.4689 12.3884 30.843C11.6374 30.0919 11.0115 29.3408 10.2604 28.7149C10.01 28.4646 9.88487 28.089 10.01 27.7135C11.6374 22.8316 14.0158 18.3251 17.3956 14.3194C20.7754 10.1885 24.9063 6.93391 29.5379 4.55553C33.7939 2.30232 38.4255 0.925356 43.1823 0.299465C45.1851 0.049108 47.188 -0.0760702 49.1908 0.0491081C49.8167 0.0491081 49.9419 0.299465 50.0671 0.925356C50.3175 9.06195 48.3146 16.5726 43.9334 23.5826C39.5521 30.4674 33.5436 35.5997 26.0329 38.8544C24.9063 39.3551 23.6545 39.7306 22.4027 40.2313C22.0272 40.3565 21.7768 40.3565 21.5264 39.981C20.2747 38.7292 18.8977 37.3522 17.6459 36.1005C17.3956 35.8501 17.2704 35.4746 17.5207 35.099C17.7711 34.7235 18.2718 34.7235 18.6473 35.099C19.774 36.2256 20.9006 37.3522 22.0272 38.4788C22.2775 38.7292 22.4027 38.7292 22.6531 38.604C28.1609 36.7264 33.0428 33.7221 37.1737 29.7164C42.0557 24.9596 45.3103 19.3266 47.188 12.9425C48.1894 9.43748 48.6901 5.80731 48.6901 2.05196C48.6901 1.8016 48.565 1.67643 48.565 1.42607Z" fill="#02767F"/>
<path d="M41.68 16.0719C41.68 20.328 38.3001 23.7078 34.0441 23.7078C29.788 23.7078 26.4082 20.328 26.4082 16.0719C26.4082 11.941 29.788 8.43604 33.9189 8.43604C38.3001 8.43604 41.68 11.8158 41.68 16.0719ZM40.1778 16.1971C40.1778 12.6921 37.4239 9.93817 33.9189 9.93817C30.4139 9.93817 27.66 12.6921 27.66 16.1971C27.66 19.7021 30.4139 22.456 33.9189 22.456C37.4239 22.3308 40.1778 19.5769 40.1778 16.1971Z" fill="#02767F"/>
<path d="M22.5282 48.1174C23.4044 47.6167 24.2807 46.9908 25.0317 46.3649C27.5353 44.1117 28.9122 41.3578 29.5381 38.1031C29.6633 37.6024 29.9137 37.3521 30.2892 37.3521C30.7899 37.3521 31.0403 37.7276 31.0403 38.2283C30.9151 38.8542 30.7899 39.6053 30.5396 40.2312C29.1626 44.4872 26.659 47.6167 22.7785 49.7447C21.9023 50.2454 21.5267 49.9951 21.4016 49.1188C20.9008 46.4901 20.4001 43.7361 19.8994 41.1074C19.8994 40.857 19.8994 40.6067 19.8994 40.4815C20.0246 40.2311 20.2749 40.106 20.6505 40.106C20.9008 40.106 21.1512 40.3563 21.2764 40.6067C21.4016 41.3578 21.5267 42.1088 21.7771 42.9851C21.9023 44.7376 22.2778 46.3649 22.5282 48.1174Z" fill="#02767F"/>
<path d="M1.87339 27.4633C2.62446 27.5885 3.37553 27.7137 4.00142 27.8389C5.75391 28.2144 7.50641 28.4647 9.13373 28.8403C9.25891 28.8403 9.25891 28.8403 9.38408 28.8403C9.75962 28.9655 10.01 29.341 9.8848 29.7165C9.75962 30.0921 9.50926 30.3424 9.00855 30.2172C8.00712 29.9669 6.88052 29.8417 5.87909 29.5914C4.25177 29.2158 2.62446 28.9655 0.87196 28.5899C0.746782 28.5899 0.746782 28.5899 0.621604 28.5899C-0.00428792 28.4647 -0.129466 28.0892 0.12089 27.4633C0.87196 26.0864 1.74821 24.7094 2.87481 23.5828C5.2532 21.0792 8.1323 19.7023 11.3869 18.9512C11.5121 18.9512 11.6373 18.9512 11.6373 18.826C12.0128 18.7008 12.3884 18.9512 12.5135 19.3267C12.6387 19.7023 12.3884 20.0778 11.8876 20.203C11.1366 20.4533 10.2603 20.5785 9.50926 20.8289C6.25463 21.9555 3.75106 23.9583 1.87339 26.8374C1.99856 27.213 1.99856 27.3381 1.87339 27.4633Z" fill="#02767F"/>
<path d="M10.7607 38.604C10.8859 38.4788 11.0111 38.2284 11.1363 38.1033C13.5147 35.7249 15.7679 33.4717 18.1463 31.0933C19.0225 30.217 19.7736 29.4659 20.6498 28.5897C21.0254 28.2142 21.4009 28.2142 21.7764 28.4645C22.0268 28.7149 22.0268 29.2156 21.6513 29.5911C18.8973 32.345 16.1434 35.2241 13.2643 37.9781C12.8888 38.3536 12.5132 38.8543 12.0125 39.2299C11.7622 39.4802 11.5118 39.4802 11.2615 39.355C10.8859 39.2299 10.7607 38.9795 10.7607 38.604Z" fill="#02767F"/>
<path d="M7.50662 41.8589C7.75698 41.9841 8.00733 42.1092 8.13251 42.3596C8.25769 42.61 8.13251 42.8603 8.00733 43.1107C7.88215 43.2358 7.6318 43.4862 7.50662 43.7366C6.00448 45.2387 4.50234 46.866 2.87502 48.3682C2.62467 48.4933 2.49949 48.6185 2.24913 48.6185C1.99877 48.6185 1.74842 48.4933 1.62324 48.243C1.49806 47.8674 1.49806 47.6171 1.74842 47.3667C2.74984 46.3653 3.75127 45.3639 4.7527 44.3625C5.50377 43.6114 6.12966 42.9855 6.88073 42.2344C7.13108 42.1092 7.25626 41.9841 7.50662 41.8589Z" fill="#02767F"/>
<path d="M6.37969 36.7261C7.00559 36.7261 7.38112 37.352 7.13076 37.7275C7.00559 37.8527 7.00559 37.9779 6.88041 38.103C5.25309 39.7304 3.62577 41.3577 1.99845 42.985L1.87328 43.1102C1.49774 43.3605 1.12221 43.4857 0.871849 43.1102C0.621493 42.8598 0.621493 42.3591 0.871849 42.1087C2.12363 40.857 3.37542 39.6052 4.6272 38.3534C5.12791 37.8527 5.50345 37.4771 6.00416 37.1016C6.12934 36.8513 6.37969 36.7261 6.37969 36.7261Z" fill="#02767F"/>
<path d="M13.3898 43.7362C13.3898 43.8614 13.2646 43.9866 13.1395 44.2369C11.387 45.9894 9.75964 47.6167 8.00714 49.3692C7.63161 49.7448 7.25607 49.7448 6.88054 49.3692C6.63018 49.1189 6.63018 48.6182 7.00572 48.3678C8.75821 46.6153 10.3855 44.988 12.138 43.2355C12.3884 42.9851 12.6387 42.86 13.0143 42.9851C13.2646 43.1103 13.3898 43.2355 13.3898 43.7362Z" fill="#02767F"/>
</svg>
