<svg width="770" height="418" viewBox="0 0 770 418" fill="none" xmlns="http://www.w3.org/2000/svg">
<g filter="url(#filter0_d_647_1616)">
<mask id="path-1-outside-1_647_1616" maskUnits="userSpaceOnUse" x="-22.5327" y="-58.5732" width="783.825" height="491.308" fill="black">
<rect fill="white" x="-22.5327" y="-58.5732" width="783.825" height="491.308"/>
<path d="M147.554 218.605C138.975 217.081 130.508 216.375 122.151 216.486C113.981 216.523 106.516 217.246 99.7564 218.657C92.9228 219.882 86.9061 221.535 81.7065 223.614C72.9786 227.104 66.5904 231.598 62.5418 237.094C58.679 242.516 58.0472 248.477 60.6465 254.977C63.023 260.919 66.8109 265.004 72.0103 267.233C77.3953 269.388 83.6346 270.447 90.7281 270.41C98.0074 270.299 105.807 269.872 114.126 269.13C122.445 268.388 130.876 267.924 139.418 267.739C147.885 267.368 156.037 268.093 163.874 269.913C171.895 271.659 179.1 275.132 185.488 280.332C191.875 285.532 197.074 293.146 201.085 303.174C205.912 315.244 206.784 326.851 203.701 337.992C200.617 349.134 194.34 359.291 184.869 368.463C175.584 377.562 163.792 384.97 149.493 390.689C139.093 394.848 128.36 397.632 117.292 399.043C106.336 400.193 95.4732 400.23 84.7029 399.152C74.1183 398 64.0724 395.771 54.565 392.465L58.0214 355.865C67.1574 359.319 76.5163 361.715 86.0981 363.053C95.6056 364.205 104.742 364.428 113.507 363.723C122.383 362.758 130.257 360.902 137.127 358.154C147.712 353.921 155.066 348.611 159.189 342.223C163.498 335.761 164.167 328.816 161.196 321.388C158.745 315.26 154.827 311.119 149.442 308.964C144.243 306.735 138.097 305.639 131.003 305.676C123.835 305.527 116.073 306.046 107.717 307.234C99.4718 308.162 91.1155 308.812 82.6478 309.182C74.1058 309.368 65.8609 308.68 57.9133 307.12C50.0771 305.299 42.9095 301.919 36.4105 296.979C30.0972 291.965 24.9353 284.444 20.925 274.416C16.3948 263.088 15.5599 252.114 18.4203 241.492C21.2065 230.685 27.0937 220.899 36.0819 212.135C45.1816 203.111 57.0666 195.665 71.737 189.798C84.736 184.6 98.1063 181.407 111.848 180.219C125.775 178.957 138.607 179.534 150.342 181.949L147.554 218.605ZM262.465 169.095C277.878 162.931 292.697 160.667 306.921 162.302C321.331 163.863 334.051 169.007 345.08 177.736C356.296 186.39 364.911 198.238 370.927 213.28C376.942 228.321 378.872 242.843 376.717 256.844C374.748 270.771 369.121 283.361 359.835 294.613C350.661 305.606 338.367 314.184 322.954 320.348C307.356 326.587 292.351 328.925 277.941 327.365C263.457 325.618 250.607 320.418 239.392 311.764C228.362 303.035 219.84 291.15 213.824 276.108C207.809 261.067 205.786 246.582 207.755 232.655C209.91 218.654 215.667 206.12 225.027 195.053C234.387 183.986 246.866 175.334 262.465 169.095ZM274.162 198.343C265.805 201.685 259.194 206.698 254.329 213.383C249.574 219.808 246.844 227.254 246.138 235.722C245.357 244.004 246.787 252.694 250.426 261.794C254.139 271.079 259.171 278.544 265.521 284.19C271.872 289.835 278.984 293.345 286.857 294.72C294.916 296.02 303.124 295 311.48 291.658C319.651 288.39 326.114 283.544 330.868 277.119C335.622 270.694 338.352 263.248 339.059 254.78C339.765 246.313 338.261 237.436 334.548 228.151C330.909 219.052 325.951 211.772 319.675 206.313C313.325 200.667 306.213 197.157 298.34 195.782C290.392 194.222 282.333 195.075 274.162 198.343ZM437.375 99.145C452.788 92.981 467.607 90.7165 481.831 92.3516C496.241 93.9124 508.961 99.057 519.99 107.785C531.206 116.44 539.821 128.288 545.837 143.329C551.852 158.371 553.783 172.893 551.628 186.894C549.658 200.821 544.031 213.411 534.745 224.663C525.571 235.656 513.278 244.234 497.864 250.398C482.266 256.636 467.261 258.975 452.851 257.414C438.367 255.668 425.518 250.467 414.302 241.813C403.272 233.085 394.75 221.2 388.734 206.158C382.719 191.116 380.696 176.632 382.665 162.705C384.82 148.704 390.577 136.169 399.937 125.103C409.297 114.036 421.776 105.383 437.375 99.145ZM449.072 128.393C440.715 131.735 434.104 136.748 429.239 143.433C424.484 149.858 421.754 157.304 421.048 165.771C420.268 174.053 421.697 182.744 425.336 191.843C429.049 201.128 434.081 208.594 440.431 214.239C446.782 219.885 453.894 223.395 461.767 224.77C469.826 226.07 478.034 225.049 486.39 221.707C494.561 218.44 501.024 213.593 505.778 207.169C510.532 200.744 513.262 193.298 513.969 184.83C514.675 176.362 513.171 167.486 509.458 158.201C505.819 149.102 500.862 141.822 494.585 136.362C488.235 130.717 481.123 127.207 473.25 125.832C465.302 124.271 457.243 125.125 449.072 128.393ZM682.196 78.7801C677.889 68.0094 671.539 60.7483 663.145 56.9967C654.938 53.1708 645.635 53.3373 635.235 57.4962C623.165 62.3235 615.309 70.4192 611.669 81.7836C608.14 92.8879 608.938 104.847 614.062 117.66L604.313 121.559C597.035 103.36 593.675 87.6874 594.233 74.5403C594.902 61.1331 598.932 49.9359 606.324 40.9488C613.826 31.7017 623.984 24.5159 636.798 19.3916C648.311 14.7871 659.082 13.1723 669.109 14.5472C679.137 15.922 688.087 19.9893 695.96 26.7492C703.759 33.3233 710.034 42.5528 714.787 54.4376L751.883 147.195L715.393 161.788L682.196 78.7801ZM547.661 56.6546L583.873 42.1728L643.248 190.64L607.037 205.122L547.661 56.6546Z"/>
</mask>
<path d="M147.554 218.605C138.975 217.081 130.508 216.375 122.151 216.486C113.981 216.523 106.516 217.246 99.7564 218.657C92.9228 219.882 86.9061 221.535 81.7065 223.614C72.9786 227.104 66.5904 231.598 62.5418 237.094C58.679 242.516 58.0472 248.477 60.6465 254.977C63.023 260.919 66.8109 265.004 72.0103 267.233C77.3953 269.388 83.6346 270.447 90.7281 270.41C98.0074 270.299 105.807 269.872 114.126 269.13C122.445 268.388 130.876 267.924 139.418 267.739C147.885 267.368 156.037 268.093 163.874 269.913C171.895 271.659 179.1 275.132 185.488 280.332C191.875 285.532 197.074 293.146 201.085 303.174C205.912 315.244 206.784 326.851 203.701 337.992C200.617 349.134 194.34 359.291 184.869 368.463C175.584 377.562 163.792 384.97 149.493 390.689C139.093 394.848 128.36 397.632 117.292 399.043C106.336 400.193 95.4732 400.23 84.7029 399.152C74.1183 398 64.0724 395.771 54.565 392.465L58.0214 355.865C67.1574 359.319 76.5163 361.715 86.0981 363.053C95.6056 364.205 104.742 364.428 113.507 363.723C122.383 362.758 130.257 360.902 137.127 358.154C147.712 353.921 155.066 348.611 159.189 342.223C163.498 335.761 164.167 328.816 161.196 321.388C158.745 315.26 154.827 311.119 149.442 308.964C144.243 306.735 138.097 305.639 131.003 305.676C123.835 305.527 116.073 306.046 107.717 307.234C99.4718 308.162 91.1155 308.812 82.6478 309.182C74.1058 309.368 65.8609 308.68 57.9133 307.12C50.0771 305.299 42.9095 301.919 36.4105 296.979C30.0972 291.965 24.9353 284.444 20.925 274.416C16.3948 263.088 15.5599 252.114 18.4203 241.492C21.2065 230.685 27.0937 220.899 36.0819 212.135C45.1816 203.111 57.0666 195.665 71.737 189.798C84.736 184.6 98.1063 181.407 111.848 180.219C125.775 178.957 138.607 179.534 150.342 181.949L147.554 218.605ZM262.465 169.095C277.878 162.931 292.697 160.667 306.921 162.302C321.331 163.863 334.051 169.007 345.08 177.736C356.296 186.39 364.911 198.238 370.927 213.28C376.942 228.321 378.872 242.843 376.717 256.844C374.748 270.771 369.121 283.361 359.835 294.613C350.661 305.606 338.367 314.184 322.954 320.348C307.356 326.587 292.351 328.925 277.941 327.365C263.457 325.618 250.607 320.418 239.392 311.764C228.362 303.035 219.84 291.15 213.824 276.108C207.809 261.067 205.786 246.582 207.755 232.655C209.91 218.654 215.667 206.12 225.027 195.053C234.387 183.986 246.866 175.334 262.465 169.095ZM274.162 198.343C265.805 201.685 259.194 206.698 254.329 213.383C249.574 219.808 246.844 227.254 246.138 235.722C245.357 244.004 246.787 252.694 250.426 261.794C254.139 271.079 259.171 278.544 265.521 284.19C271.872 289.835 278.984 293.345 286.857 294.72C294.916 296.02 303.124 295 311.48 291.658C319.651 288.39 326.114 283.544 330.868 277.119C335.622 270.694 338.352 263.248 339.059 254.78C339.765 246.313 338.261 237.436 334.548 228.151C330.909 219.052 325.951 211.772 319.675 206.313C313.325 200.667 306.213 197.157 298.34 195.782C290.392 194.222 282.333 195.075 274.162 198.343ZM437.375 99.145C452.788 92.981 467.607 90.7165 481.831 92.3516C496.241 93.9124 508.961 99.057 519.99 107.785C531.206 116.44 539.821 128.288 545.837 143.329C551.852 158.371 553.783 172.893 551.628 186.894C549.658 200.821 544.031 213.411 534.745 224.663C525.571 235.656 513.278 244.234 497.864 250.398C482.266 256.636 467.261 258.975 452.851 257.414C438.367 255.668 425.518 250.467 414.302 241.813C403.272 233.085 394.75 221.2 388.734 206.158C382.719 191.116 380.696 176.632 382.665 162.705C384.82 148.704 390.577 136.169 399.937 125.103C409.297 114.036 421.776 105.383 437.375 99.145ZM449.072 128.393C440.715 131.735 434.104 136.748 429.239 143.433C424.484 149.858 421.754 157.304 421.048 165.771C420.268 174.053 421.697 182.744 425.336 191.843C429.049 201.128 434.081 208.594 440.431 214.239C446.782 219.885 453.894 223.395 461.767 224.77C469.826 226.07 478.034 225.049 486.39 221.707C494.561 218.44 501.024 213.593 505.778 207.169C510.532 200.744 513.262 193.298 513.969 184.83C514.675 176.362 513.171 167.486 509.458 158.201C505.819 149.102 500.862 141.822 494.585 136.362C488.235 130.717 481.123 127.207 473.25 125.832C465.302 124.271 457.243 125.125 449.072 128.393ZM682.196 78.7801C677.889 68.0094 671.539 60.7483 663.145 56.9967C654.938 53.1708 645.635 53.3373 635.235 57.4962C623.165 62.3235 615.309 70.4192 611.669 81.7836C608.14 92.8879 608.938 104.847 614.062 117.66L604.313 121.559C597.035 103.36 593.675 87.6874 594.233 74.5403C594.902 61.1331 598.932 49.9359 606.324 40.9488C613.826 31.7017 623.984 24.5159 636.798 19.3916C648.311 14.7871 659.082 13.1723 669.109 14.5472C679.137 15.922 688.087 19.9893 695.96 26.7492C703.759 33.3233 710.034 42.5528 714.787 54.4376L751.883 147.195L715.393 161.788L682.196 78.7801ZM547.661 56.6546L583.873 42.1728L643.248 190.64L607.037 205.122L547.661 56.6546Z" fill="url(#paint0_linear_647_1616)"/>
<path d="M147.554 218.605L146.505 224.512L153.034 225.672L153.537 219.06L147.554 218.605ZM122.151 216.486L122.178 222.486L122.205 222.486L122.231 222.486L122.151 216.486ZM99.7564 218.657L100.815 224.563L100.899 224.548L100.982 224.531L99.7564 218.657ZM62.5418 237.094L57.7109 233.536L57.6827 233.574L57.6552 233.613L62.5418 237.094ZM72.0103 267.233L69.6464 272.748L69.7136 272.777L69.7815 272.804L72.0103 267.233ZM90.7281 270.41L90.7591 276.41L90.7894 276.41L90.8196 276.409L90.7281 270.41ZM114.126 269.13L113.593 263.154L113.593 263.154L114.126 269.13ZM139.418 267.739L139.548 273.738L139.614 273.736L139.68 273.733L139.418 267.739ZM163.874 269.913L162.516 275.758L162.557 275.767L162.597 275.776L163.874 269.913ZM185.488 280.332L181.7 284.986L181.7 284.986L185.488 280.332ZM203.701 337.992L209.483 339.592L203.701 337.992ZM184.869 368.463L180.695 364.153L180.682 364.166L180.67 364.178L184.869 368.463ZM117.292 399.043L117.919 405.01L117.985 405.003L118.051 404.995L117.292 399.043ZM84.7029 399.152L84.0537 405.117L84.0796 405.12L84.1055 405.122L84.7029 399.152ZM54.565 392.465L48.5916 391.901L48.1491 396.586L52.5944 398.132L54.565 392.465ZM58.0214 355.865L60.1435 350.252L52.7874 347.471L52.048 355.301L58.0214 355.865ZM86.0981 363.053L85.2685 368.995L85.3224 369.003L85.3764 369.009L86.0981 363.053ZM113.507 363.723L113.988 369.704L114.072 369.697L114.155 369.688L113.507 363.723ZM159.189 342.223L154.197 338.894L154.172 338.932L154.148 338.969L159.189 342.223ZM149.442 308.964L147.079 314.479L147.146 314.508L147.214 314.535L149.442 308.964ZM131.003 305.676L130.878 311.675L130.956 311.676L131.034 311.676L131.003 305.676ZM107.717 307.234L108.388 313.197L108.475 313.187L108.561 313.175L107.717 307.234ZM82.6478 309.182L82.7778 315.181L82.844 315.18L82.9103 315.177L82.6478 309.182ZM57.9133 307.12L56.5556 312.964L56.6561 312.987L56.7574 313.007L57.9133 307.12ZM36.4105 296.979L32.6788 301.678L32.7288 301.717L32.7796 301.756L36.4105 296.979ZM18.4203 241.492L24.2139 243.052L24.2223 243.021L24.2304 242.99L18.4203 241.492ZM36.0819 212.135L40.2707 216.431L40.2889 216.413L40.3069 216.395L36.0819 212.135ZM111.848 180.219L112.364 186.197L112.377 186.196L112.389 186.195L111.848 180.219ZM150.342 181.949L156.325 182.404L156.726 177.136L151.552 176.072L150.342 181.949ZM148.603 212.697C139.668 211.11 130.822 210.371 122.072 210.487L122.231 222.486C130.193 222.38 138.283 223.052 146.505 224.512L148.603 212.697ZM122.125 210.486C113.622 210.524 105.748 211.277 98.5305 212.784L100.982 224.531C107.283 223.215 114.34 222.521 122.178 222.486L122.125 210.486ZM98.6977 212.751C91.5548 214.032 85.1326 215.782 79.4785 218.043L83.9345 229.185C88.6796 227.287 94.2907 225.733 100.815 224.563L98.6977 212.751ZM79.4785 218.043C70.089 221.798 62.6278 226.861 57.7109 233.536L67.3727 240.653C70.5529 236.335 75.8682 232.411 83.9345 229.185L79.4785 218.043ZM57.6552 233.613C52.5362 240.798 51.7651 248.927 55.0755 257.205L66.2176 252.749C64.3294 248.027 64.8218 244.234 67.4285 240.576L57.6552 233.613ZM55.0755 257.205C57.9583 264.413 62.7876 269.808 69.6464 272.748L74.3742 261.718C70.8343 260.201 68.0878 257.425 66.2176 252.749L55.0755 257.205ZM69.7815 272.804C76.0259 275.302 83.0594 276.45 90.7591 276.41L90.6971 264.41C84.2097 264.443 78.7647 263.473 74.239 261.662L69.7815 272.804ZM90.8196 276.409C98.2659 276.296 106.214 275.86 114.659 275.106L113.593 263.154C105.4 263.885 97.7489 264.302 90.6367 264.411L90.8196 276.409ZM114.659 275.106C122.841 274.376 131.137 273.92 139.548 273.738L139.288 261.741C130.614 261.929 122.049 262.399 113.593 263.154L114.659 275.106ZM139.68 273.733C147.633 273.385 155.238 274.067 162.516 275.758L165.231 264.069C156.837 262.119 148.138 261.351 139.155 261.745L139.68 273.733ZM162.597 275.776C169.696 277.321 176.041 280.378 181.7 284.986L189.276 275.679C182.16 269.887 174.095 265.998 165.15 264.051L162.597 275.776ZM181.7 284.986C187.088 289.372 191.768 296.035 195.514 305.402L206.656 300.946C202.381 290.257 196.663 281.693 189.276 275.679L181.7 284.986ZM195.514 305.402C199.917 316.413 200.608 326.671 197.918 336.392L209.483 339.592C212.96 327.03 211.907 314.076 206.656 300.946L195.514 305.402ZM197.918 336.392C195.158 346.365 189.508 355.618 180.695 364.153L189.043 372.773C199.172 362.963 206.077 351.902 209.483 339.592L197.918 336.392ZM180.67 364.178C172.045 372.629 160.961 379.64 147.265 385.118L151.721 396.26C166.622 390.3 179.123 382.494 189.068 372.749L180.67 364.178ZM147.265 385.118C137.335 389.089 127.096 391.745 116.534 393.091L118.051 404.995C129.624 403.52 140.851 400.606 151.721 396.26L147.265 385.118ZM116.666 393.076C106.109 394.184 95.6563 394.218 85.3003 393.182L84.1055 405.122C95.29 406.241 106.563 406.203 117.919 405.01L116.666 393.076ZM85.3521 393.187C75.192 392.081 65.5913 389.947 56.5357 386.798L52.5944 398.132C62.5535 401.595 73.0447 403.919 84.0537 405.117L85.3521 393.187ZM60.5384 393.029L63.9948 356.429L52.048 355.301L48.5916 391.901L60.5384 393.029ZM55.8993 361.477C65.4485 365.088 75.2407 367.595 85.2685 368.995L86.9276 357.111C77.7919 355.835 68.8663 353.551 60.1435 350.252L55.8993 361.477ZM85.3764 369.009C95.2479 370.205 104.788 370.444 113.988 369.704L113.026 357.743C104.695 358.413 95.9632 358.204 86.8198 357.097L85.3764 369.009ZM114.155 369.688C123.466 368.676 131.887 366.712 139.355 363.725L134.9 352.583C128.626 355.092 121.3 356.841 112.858 357.758L114.155 369.688ZM139.355 363.725C150.551 359.248 159.172 353.313 164.23 345.477L154.148 338.969C150.961 343.908 144.874 348.594 134.9 352.583L139.355 363.725ZM164.181 345.551C169.625 337.387 170.445 328.357 166.767 319.16L155.625 323.616C157.888 329.275 157.371 334.134 154.197 338.894L164.181 345.551ZM166.767 319.16C163.799 311.738 158.797 306.244 151.671 303.393L147.214 314.535C150.858 315.993 153.692 318.782 155.625 323.616L166.767 319.16ZM151.806 303.449C145.684 300.825 138.687 299.636 130.972 299.676L131.034 311.676C137.507 311.643 142.802 312.646 147.079 314.479L151.806 303.449ZM131.128 299.677C123.585 299.521 115.495 300.068 106.872 301.294L108.561 313.175C116.651 312.025 124.085 311.534 130.878 311.675L131.128 299.677ZM107.046 301.272C98.9395 302.184 90.7194 302.823 82.3853 303.188L82.9103 315.177C91.5116 314.8 100.004 314.14 108.388 313.197L107.046 301.272ZM82.5178 303.184C74.3836 303.36 66.571 302.705 59.0692 301.232L56.7574 313.007C65.1509 314.655 73.8279 315.375 82.7778 315.181L82.5178 303.184ZM59.2709 301.275C52.2717 299.649 45.8766 296.638 40.0413 292.202L32.7796 301.756C39.9423 307.2 47.8825 310.949 56.5556 312.964L59.2709 301.275ZM40.1421 292.281C34.878 288.1 30.2456 281.564 26.496 272.188L15.354 276.644C19.6251 287.324 25.3164 295.83 32.6788 301.678L40.1421 292.281ZM26.496 272.188C22.3925 261.927 21.7279 252.284 24.2139 243.052L12.6267 239.932C9.3919 251.944 10.3971 264.249 15.354 276.644L26.496 272.188ZM24.2304 242.99C26.7093 233.375 31.9681 224.526 40.2707 216.431L31.8932 207.839C22.2193 217.272 15.7037 227.995 12.6103 239.994L24.2304 242.99ZM40.3069 216.395C48.7191 208.053 59.8725 201.005 73.9649 195.369L69.509 184.227C54.2608 190.325 41.6441 198.169 31.857 207.875L40.3069 216.395ZM73.9649 195.369C86.4249 190.386 99.2191 187.333 112.364 186.197L111.331 174.241C96.9935 175.48 83.0471 178.813 69.509 184.227L73.9649 195.369ZM112.389 186.195C125.826 184.977 138.06 185.547 149.133 187.825L151.552 176.072C139.153 173.521 125.724 172.937 111.306 174.244L112.389 186.195ZM144.36 181.494L141.572 218.15L153.537 219.06L156.325 182.404L144.36 181.494ZM306.921 162.302L306.236 168.263L306.255 168.265L306.275 168.267L306.921 162.302ZM345.08 177.736L341.357 182.441L341.386 182.464L341.415 182.486L345.08 177.736ZM376.717 256.844L370.787 255.931L370.782 255.968L370.777 256.004L376.717 256.844ZM359.835 294.613L364.442 298.458L364.452 298.445L364.463 298.432L359.835 294.613ZM277.941 327.365L277.223 333.321L277.259 333.326L277.295 333.33L277.941 327.365ZM239.392 311.764L235.669 316.469L235.697 316.491L235.727 316.514L239.392 311.764ZM207.755 232.655L201.825 231.742L201.819 231.779L201.814 231.815L207.755 232.655ZM225.027 195.053L229.608 198.928L225.027 195.053ZM254.329 213.383L259.152 216.952L259.166 216.933L259.18 216.914L254.329 213.383ZM246.138 235.722L252.111 236.285L252.114 236.253L252.117 236.22L246.138 235.722ZM265.521 284.19L269.508 279.705L265.521 284.19ZM286.857 294.72L285.825 300.63L285.863 300.637L285.901 300.643L286.857 294.72ZM330.868 277.119L326.045 273.55L330.868 277.119ZM339.059 254.78L333.079 254.282L339.059 254.78ZM319.675 206.313L315.689 210.797L315.713 210.818L315.737 210.839L319.675 206.313ZM298.34 195.782L297.184 201.67L297.245 201.682L297.308 201.693L298.34 195.782ZM264.693 174.666C279.331 168.812 293.147 166.758 306.236 168.263L307.606 156.341C292.246 154.576 276.426 157.05 260.237 163.524L264.693 174.666ZM306.275 168.267C319.597 169.71 331.242 174.436 341.357 182.441L348.804 173.031C336.859 163.579 323.065 158.015 307.567 156.337L306.275 168.267ZM341.415 182.486C351.665 190.395 359.68 201.316 365.356 215.508L376.498 211.052C370.142 195.159 360.926 182.385 348.746 172.986L341.415 182.486ZM365.356 215.508C371.031 229.699 372.757 243.135 370.787 255.931L382.648 257.757C384.988 242.551 382.853 226.944 376.498 211.052L365.356 215.508ZM370.777 256.004C368.968 268.794 363.817 280.362 355.207 290.795L364.463 298.432C374.425 286.36 380.528 272.748 382.658 257.684L370.777 256.004ZM355.229 290.769C346.787 300.884 335.364 308.923 320.726 314.777L325.182 325.919C341.371 319.445 354.535 310.328 364.442 298.458L355.229 290.769ZM320.726 314.777C305.893 320.709 291.877 322.839 278.587 321.399L277.295 333.33C292.826 335.012 308.818 332.464 325.182 325.919L320.726 314.777ZM278.66 321.408C265.215 319.787 253.391 314.987 243.057 307.013L235.727 316.514C247.824 325.849 261.699 331.45 277.223 333.321L278.66 321.408ZM243.115 307.059C233.025 299.073 225.081 288.099 219.395 273.88L208.253 278.336C214.598 294.201 223.7 306.997 235.669 316.469L243.115 307.059ZM219.395 273.88C213.709 259.662 211.894 246.236 213.696 233.495L201.814 231.815C199.677 246.928 201.908 262.471 208.253 278.336L219.395 273.88ZM213.685 233.568C215.668 220.686 220.945 209.171 229.608 198.928L220.446 191.178C210.39 203.069 204.152 216.622 201.825 231.742L213.685 233.568ZM229.608 198.928C238.24 188.722 249.86 180.598 264.693 174.666L260.237 163.524C243.873 170.069 230.534 179.251 220.446 191.178L229.608 198.928ZM271.934 192.772C262.625 196.495 255.067 202.174 249.478 209.852L259.18 216.914C263.322 211.223 268.986 206.875 276.39 203.914L271.934 192.772ZM249.505 209.814C244.046 217.192 240.951 225.718 240.159 235.223L252.117 236.22C252.737 228.791 255.103 222.423 259.152 216.952L249.505 209.814ZM240.164 235.159C239.28 244.545 240.925 254.194 244.855 264.022L255.997 259.566C252.649 251.194 251.435 243.462 252.111 236.285L240.164 235.159ZM244.855 264.022C248.853 274.019 254.375 282.309 261.535 288.674L269.508 279.705C263.966 274.779 259.425 268.138 255.997 259.566L244.855 264.022ZM261.535 288.674C268.663 295.011 276.783 299.052 285.825 300.63L287.889 288.809C281.184 287.639 275.08 284.659 269.508 279.705L261.535 288.674ZM285.901 300.643C295.142 302.134 304.449 300.932 313.708 297.229L309.252 286.087C301.799 289.067 294.69 289.906 287.813 288.797L285.901 300.643ZM313.708 297.229C322.805 293.591 330.208 288.097 335.691 280.688L326.045 273.55C322.019 278.99 316.497 283.189 309.252 286.087L313.708 297.229ZM335.691 280.688C341.151 273.31 344.245 264.785 345.038 255.279L333.079 254.282C332.46 261.712 330.094 268.079 326.045 273.55L335.691 280.688ZM345.038 255.279C345.834 245.732 344.117 235.921 340.119 225.923L328.977 230.379C332.405 238.952 333.696 246.893 333.079 254.282L345.038 255.279ZM340.119 225.923C336.189 216.096 330.726 207.974 323.613 201.786L315.737 210.839C321.176 215.571 325.629 222.008 328.977 230.379L340.119 225.923ZM323.662 201.828C316.533 195.491 308.413 191.45 299.372 189.872L297.308 201.693C304.013 202.863 310.117 205.843 315.689 210.797L323.662 201.828ZM299.495 189.895C290.315 188.092 281.082 189.114 271.934 192.772L276.39 203.914C283.584 201.037 290.469 200.352 297.184 201.67L299.495 189.895ZM481.831 92.3516L481.146 98.3123L481.165 98.3146L481.185 98.3167L481.831 92.3516ZM519.99 107.785L516.267 112.49L516.296 112.513L516.325 112.536L519.99 107.785ZM551.628 186.894L545.697 185.981L545.692 186.017L545.687 186.054L551.628 186.894ZM534.745 224.663L539.352 228.508L539.363 228.495L539.373 228.482L534.745 224.663ZM452.851 257.414L452.133 263.371L452.169 263.375L452.205 263.379L452.851 257.414ZM414.302 241.813L410.579 246.518L410.608 246.541L410.637 246.563L414.302 241.813ZM382.665 162.705L376.735 161.792L376.729 161.828L376.724 161.865L382.665 162.705ZM399.937 125.103L404.518 128.977L399.937 125.103ZM429.239 143.433L434.062 147.002L434.076 146.983L434.09 146.964L429.239 143.433ZM421.048 165.771L427.022 166.334L427.025 166.302L427.027 166.27L421.048 165.771ZM440.431 214.239L444.418 209.755L440.431 214.239ZM461.767 224.77L460.735 230.68L460.773 230.687L460.811 230.693L461.767 224.77ZM505.778 207.169L500.955 203.6L505.778 207.169ZM513.969 184.83L507.989 184.331L513.969 184.83ZM494.585 136.362L490.599 140.846L490.623 140.868L490.647 140.889L494.585 136.362ZM473.25 125.832L472.094 131.719L472.156 131.732L472.218 131.742L473.25 125.832ZM439.603 104.716C454.241 98.8622 468.057 96.8078 481.146 98.3123L482.516 86.3908C467.157 84.6252 451.336 87.0998 435.147 93.574L439.603 104.716ZM481.185 98.3167C494.507 99.7597 506.152 104.486 516.267 112.49L523.714 103.08C511.769 93.6283 497.975 88.0651 482.477 86.3865L481.185 98.3167ZM516.325 112.536C526.575 120.445 534.59 131.366 540.266 145.557L551.408 141.101C545.052 125.209 535.837 112.434 523.656 103.035L516.325 112.536ZM540.266 145.557C545.941 159.749 547.667 173.185 545.697 185.981L557.558 187.807C559.898 172.6 557.763 156.994 551.408 141.101L540.266 145.557ZM545.687 186.054C543.878 198.844 538.727 210.411 530.118 220.844L539.373 228.482C549.335 216.41 555.438 202.798 557.569 187.734L545.687 186.054ZM530.139 220.819C521.697 230.934 510.274 238.973 495.637 244.827L500.092 255.969C516.281 249.495 529.445 240.378 539.352 228.508L530.139 220.819ZM495.637 244.827C480.803 250.759 466.787 252.889 453.498 251.449L452.205 263.379C467.736 265.062 483.728 262.513 500.092 255.969L495.637 244.827ZM453.57 251.457C440.125 249.836 428.301 245.036 417.968 237.063L410.637 246.563C422.734 255.898 436.61 261.499 452.133 263.371L453.57 251.457ZM418.025 237.108C407.935 229.123 399.992 218.148 394.305 203.93L383.163 208.386C389.508 224.251 398.61 237.046 410.579 246.518L418.025 237.108ZM394.305 203.93C388.619 189.712 386.804 176.286 388.606 163.545L376.724 161.865C374.587 176.978 376.819 192.521 383.163 208.386L394.305 203.93ZM388.595 163.618C390.578 150.735 395.855 139.221 404.518 128.977L395.356 121.228C385.3 133.118 379.062 146.672 376.735 161.792L388.595 163.618ZM404.518 128.977C413.15 118.771 424.77 110.648 439.603 104.716L435.147 93.574C418.783 100.119 405.444 109.301 395.356 121.228L404.518 128.977ZM446.844 122.822C437.535 126.545 429.977 132.223 424.388 139.902L434.09 146.964C438.232 141.273 443.896 136.925 451.3 133.964L446.844 122.822ZM424.416 139.864C418.956 147.242 415.862 155.767 415.069 165.273L427.027 166.27C427.647 158.84 430.013 152.473 434.062 147.002L424.416 139.864ZM415.075 165.208C414.19 174.595 415.835 184.244 419.765 194.071L430.907 189.615C427.559 181.244 426.345 173.512 427.022 166.334L415.075 165.208ZM419.765 194.071C423.763 204.069 429.285 212.358 436.445 218.723L444.418 209.755C438.877 204.829 434.335 198.188 430.907 189.615L419.765 194.071ZM436.445 218.723C443.574 225.061 451.693 229.101 460.735 230.68L462.799 218.859C456.094 217.688 449.99 214.709 444.418 209.755L436.445 218.723ZM460.811 230.693C470.052 232.184 479.359 230.981 488.618 227.278L484.162 216.136C476.709 219.117 469.6 219.956 462.723 218.846L460.811 230.693ZM488.618 227.278C497.715 223.64 505.118 218.147 510.601 210.738L500.955 203.6C496.929 209.04 491.407 213.239 484.162 216.136L488.618 227.278ZM510.601 210.738C516.061 203.359 519.155 194.834 519.948 185.329L507.989 184.331C507.37 191.761 505.004 198.128 500.955 203.6L510.601 210.738ZM519.948 185.329C520.744 175.782 519.027 165.971 515.029 155.973L503.887 160.429C507.315 169.001 508.606 176.943 507.989 184.331L519.948 185.329ZM515.029 155.973C511.099 146.146 505.636 138.023 498.523 131.835L490.647 140.889C496.087 145.621 500.539 152.058 503.887 160.429L515.029 155.973ZM498.572 131.878C491.443 125.541 483.323 121.5 474.282 119.921L472.218 131.742C478.923 132.913 485.027 135.893 490.599 140.846L498.572 131.878ZM474.406 119.944C465.225 118.142 455.992 119.163 446.844 122.822L451.3 133.964C458.494 131.087 465.379 130.401 472.094 131.719L474.406 119.944ZM663.145 56.9967L660.61 62.4349L660.654 62.455L660.697 62.4744L663.145 56.9967ZM611.669 81.7835L605.955 79.9531L605.951 79.9663L611.669 81.7835ZM614.062 117.66L616.29 123.231L621.861 121.003L619.633 115.432L614.062 117.66ZM604.313 121.559L598.742 123.787L600.97 129.358L606.541 127.13L604.313 121.559ZM594.233 74.5403L588.24 74.2411L588.239 74.2634L588.238 74.2858L594.233 74.5403ZM606.324 40.9488L610.958 44.76L610.97 44.7446L610.983 44.7291L606.324 40.9488ZM669.109 14.5472L668.294 20.4915L668.294 20.4915L669.109 14.5472ZM695.96 26.7491L692.051 31.3014L692.072 31.3191L692.093 31.3366L695.96 26.7491ZM751.883 147.195L754.111 152.766L759.682 150.538L757.454 144.967L751.883 147.195ZM715.393 161.788L709.822 164.016L712.05 169.587L717.621 167.359L715.393 161.788ZM547.661 56.6546L545.434 51.0836L539.862 53.3116L542.09 58.8826L547.661 56.6546ZM583.873 42.1729L589.444 39.9449L587.216 34.3739L581.645 36.6018L583.873 42.1729ZM643.248 190.64L645.476 196.211L651.047 193.983L648.819 188.412L643.248 190.64ZM607.037 205.122L601.466 207.35L603.694 212.921L609.265 210.693L607.037 205.122ZM687.767 76.5521C683.04 64.7308 675.758 56.0624 665.594 51.519L660.697 62.4744C667.319 65.4342 672.738 71.2881 676.625 81.008L687.767 76.5521ZM665.68 51.5585C655.629 46.8733 644.555 47.3072 633.007 51.9252L637.463 63.0672C646.715 59.3674 654.247 59.4684 660.61 62.4349L665.68 51.5585ZM633.007 51.9252C619.444 57.3494 610.195 66.7184 605.955 79.9532L617.383 83.614C620.424 74.1201 626.886 67.2975 637.463 63.0672L633.007 51.9252ZM605.951 79.9663C601.926 92.6299 602.95 106.033 608.491 119.888L619.633 115.432C614.925 103.661 614.354 93.1459 617.387 83.6008L605.951 79.9663ZM611.834 112.089L602.085 115.988L606.541 127.13L616.29 123.231L611.834 112.089ZM609.884 119.331C602.78 101.569 599.718 86.783 600.227 74.7947L588.238 74.2858C587.631 88.5919 591.289 105.152 598.742 123.787L609.884 119.331ZM600.225 74.8395C600.841 62.513 604.506 52.6047 610.958 44.76L601.69 37.1376C593.359 47.2672 588.963 59.7532 588.24 74.2411L600.225 74.8395ZM610.983 44.7291C617.745 36.3947 627.01 29.768 639.026 24.9626L634.57 13.8206C620.959 19.2639 609.908 27.0086 601.664 37.1684L610.983 44.7291ZM639.026 24.9626C649.79 20.6578 659.504 19.2864 668.294 20.4915L669.924 8.60277C658.659 7.05827 646.832 8.91654 634.57 13.8206L639.026 24.9626ZM668.294 20.4915C677.148 21.7054 685.031 25.2734 692.051 31.3014L699.868 22.1969C691.143 14.7052 681.125 10.1385 669.924 8.60277L668.294 20.4915ZM692.093 31.3366C698.97 37.1344 704.738 45.4667 709.216 56.6656L720.358 52.2097C715.331 39.6389 708.547 29.5122 699.827 22.1617L692.093 31.3366ZM709.216 56.6656L746.312 149.423L757.454 144.967L720.358 52.2097L709.216 56.6656ZM749.655 141.624L713.165 156.217L717.621 167.359L754.111 152.766L749.655 141.624ZM720.964 159.56L687.767 76.5521L676.625 81.008L709.822 164.016L720.964 159.56ZM549.889 62.2257L586.101 47.7439L581.645 36.6018L545.434 51.0836L549.889 62.2257ZM578.302 44.4008L637.677 192.868L648.819 188.412L589.444 39.9449L578.302 44.4008ZM641.02 185.069L604.809 199.551L609.265 210.693L645.476 196.211L641.02 185.069ZM612.608 202.894L553.232 54.4267L542.09 58.8826L601.466 207.35L612.608 202.894Z" fill="white" mask="url(#path-1-outside-1_647_1616)"/>
</g>
<defs>
<filter id="filter0_d_647_1616" x="0.759766" y="0.0727539" width="768.922" height="417.861" filterUnits="userSpaceOnUse" color-interpolation-filters="sRGB">
<feFlood flood-opacity="0" result="BackgroundImageFix"/>
<feColorMatrix in="SourceAlpha" type="matrix" values="0 0 0 0 0 0 0 0 0 0 0 0 0 0 0 0 0 0 127 0" result="hardAlpha"/>
<feOffset dy="2"/>
<feGaussianBlur stdDeviation="5"/>
<feComposite in2="hardAlpha" operator="out"/>
<feColorMatrix type="matrix" values="0 0 0 0 0 0 0 0 0 0 0 0 0 0 0 0 0 0 0.5 0"/>
<feBlend mode="normal" in2="BackgroundImageFix" result="effect1_dropShadow_647_1616"/>
<feBlend mode="normal" in="SourceGraphic" in2="effect1_dropShadow_647_1616" result="shape"/>
</filter>
<linearGradient id="paint0_linear_647_1616" x1="19.6132" y1="323.729" x2="729.917" y2="39.6632" gradientUnits="userSpaceOnUse">
<stop stop-color="#02767F"/>
<stop offset="1" stop-color="#04D5E5"/>
</linearGradient>
</defs>
</svg>
